<svg width="1408" height="227" viewBox="0 0 1408 227" fill="none" xmlns="http://www.w3.org/2000/svg">
<g opacity="0.4">
<mask id="path-1-outside-1_47_102" maskUnits="userSpaceOnUse" x="0" y="0" width="1408" height="227" fill="black">
<rect fill="white" width="1408" height="227"/>
<path d="M120.062 224.69C103.048 224.69 87.2643 221.922 72.7105 216.388C58.3617 210.853 45.8578 203.064 35.1987 193.02C24.7446 182.976 16.5453 171.189 10.6008 157.66C4.86124 144.131 1.99149 129.373 1.99149 113.384C1.99149 97.3954 4.86124 82.6367 10.6008 69.1078C16.5453 55.579 24.8471 43.7925 35.5062 33.7483C46.1653 23.7042 58.6692 15.9148 73.018 10.3803C87.3668 4.84577 102.945 2.07851 119.754 2.07851C136.768 2.07851 152.346 4.84577 166.49 10.3803C180.839 15.9148 193.24 23.7042 203.694 33.7483C214.354 43.7925 222.655 55.579 228.6 69.1078C234.544 82.4317 237.517 97.1905 237.517 113.384C237.517 129.373 234.544 144.234 228.6 157.968C222.655 171.497 214.354 183.283 203.694 193.327C193.24 203.167 180.839 210.853 166.49 216.388C152.346 221.922 136.87 224.69 120.062 224.69ZM119.754 182.258C129.388 182.258 138.202 180.618 146.197 177.339C154.396 174.059 161.571 169.344 167.72 163.195C173.869 157.045 178.584 149.769 181.864 141.364C185.348 132.96 187.091 123.633 187.091 113.384C187.091 103.135 185.348 93.8083 181.864 85.404C178.584 76.9997 173.869 69.7228 167.72 63.5733C161.775 57.4238 154.704 52.7092 146.504 49.4295C138.305 46.1498 129.388 44.5099 119.754 44.5099C110.12 44.5099 101.203 46.1498 93.0038 49.4295C85.0095 52.7092 77.9376 57.4238 71.7881 63.5733C65.6386 69.7228 60.8215 76.9997 57.3368 85.404C54.0571 93.8083 52.4172 103.135 52.4172 113.384C52.4172 123.428 54.0571 132.755 57.3368 141.364C60.8215 149.769 65.5361 157.045 71.4806 163.195C77.6301 169.344 84.8045 174.059 93.0038 177.339C101.203 180.618 110.12 182.258 119.754 182.258ZM357.97 224.69C341.366 224.69 325.89 222.025 311.541 216.695C297.397 211.161 285.098 203.371 274.644 193.327C264.19 183.283 255.991 171.497 250.046 157.968C244.307 144.439 241.437 129.578 241.437 113.384C241.437 97.1905 244.307 82.3292 250.046 68.8004C255.991 55.2715 264.19 43.485 274.644 33.4409C285.303 23.3967 297.705 15.7098 311.848 10.3803C325.992 4.84577 341.468 2.07851 358.277 2.07851C376.93 2.07851 393.739 5.35823 408.703 11.9177C423.871 18.2721 436.58 27.7013 446.829 40.2053L414.852 69.7228C407.473 61.3185 399.274 55.0665 390.254 50.9669C381.235 46.6622 371.396 44.5099 360.737 44.5099C350.693 44.5099 341.468 46.1498 333.064 49.4295C324.66 52.7092 317.383 57.4238 311.233 63.5733C305.084 69.7228 300.267 76.9997 296.782 85.404C293.502 93.8083 291.863 103.135 291.863 113.384C291.863 123.633 293.502 132.96 296.782 141.364C300.267 149.769 305.084 157.045 311.233 163.195C317.383 169.344 324.66 174.059 333.064 177.339C341.468 180.618 350.693 182.258 360.737 182.258C371.396 182.258 381.235 180.208 390.254 176.109C399.274 171.804 407.473 165.347 414.852 156.738L446.829 186.255C436.58 198.759 423.871 208.291 408.703 214.851C393.739 221.41 376.828 224.69 357.97 224.69ZM502.963 221V46.3548H434.089V5.76819H621.648V46.3548H552.774V221H502.963ZM589.365 221L685.297 5.76819H734.493L830.732 221H778.462L699.748 30.9811H719.427L640.406 221H589.365ZM637.331 174.879L650.553 137.06H761.243L774.772 174.879H637.331ZM903.796 224.69C886.577 224.69 870.076 222.435 854.293 217.925C838.509 213.211 825.8 207.164 816.166 199.784L833.077 162.272C842.301 168.832 853.165 174.264 865.669 178.569C878.378 182.668 891.189 184.718 904.103 184.718C913.943 184.718 921.834 183.796 927.779 181.951C933.928 179.901 938.438 177.134 941.308 173.649C944.177 170.164 945.612 166.167 945.612 161.658C945.612 155.918 943.358 151.408 938.848 148.129C934.338 144.644 928.394 141.877 921.014 139.827C913.635 137.572 905.436 135.522 896.417 133.677C887.602 131.628 878.686 129.168 869.666 126.298C860.852 123.428 852.755 119.739 845.376 115.229C837.996 110.719 831.949 104.775 827.235 97.3954C822.725 90.0161 820.47 80.5869 820.47 69.1078C820.47 56.8089 823.75 45.6373 830.31 35.5932C837.074 25.344 847.118 17.2472 860.442 11.3027C873.971 5.15325 890.882 2.07851 911.175 2.07851C924.704 2.07851 938.028 3.71837 951.147 6.99808C964.266 10.0728 975.847 14.7874 985.891 21.1419L970.518 58.9612C960.474 53.2217 950.429 49.0195 940.385 46.3548C930.341 43.485 920.502 42.0501 910.868 42.0501C901.234 42.0501 893.342 43.1775 887.192 45.4323C881.043 47.6872 876.636 50.6594 873.971 54.3491C871.306 57.8338 869.974 61.9334 869.974 66.648C869.974 72.1826 872.229 76.6922 876.738 80.1769C881.248 83.4566 887.192 86.1214 894.572 88.1712C901.951 90.2211 910.048 92.2709 918.862 94.3207C927.881 96.3705 936.798 98.7278 945.612 101.393C954.632 104.057 962.831 107.645 970.21 112.154C977.59 116.664 983.534 122.608 988.044 129.988C992.758 137.367 995.116 146.694 995.116 157.968C995.116 170.062 991.733 181.131 984.969 191.175C978.205 201.219 968.058 209.316 954.529 215.465C941.205 221.615 924.294 224.69 903.796 224.69ZM1113.71 224.69C1096.69 224.69 1080.91 221.922 1066.36 216.388C1052.01 210.853 1039.5 203.064 1028.84 193.02C1018.39 182.976 1010.19 171.189 1004.25 157.66C998.507 144.131 995.637 129.373 995.637 113.384C995.637 97.3954 998.507 82.6367 1004.25 69.1078C1010.19 55.579 1018.49 43.7925 1029.15 33.7483C1039.81 23.7042 1052.31 15.9148 1066.66 10.3803C1081.01 4.84577 1096.59 2.07851 1113.4 2.07851C1130.41 2.07851 1145.99 4.84577 1160.14 10.3803C1174.48 15.9148 1186.89 23.7042 1197.34 33.7483C1208 43.7925 1216.3 55.579 1222.25 69.1078C1228.19 82.4317 1231.16 97.1905 1231.16 113.384C1231.16 129.373 1228.19 144.234 1222.25 157.968C1216.3 171.497 1208 183.283 1197.34 193.327C1186.89 203.167 1174.48 210.853 1160.14 216.388C1145.99 221.922 1130.52 224.69 1113.71 224.69ZM1113.4 182.258C1123.03 182.258 1131.85 180.618 1139.84 177.339C1148.04 174.059 1155.22 169.344 1161.37 163.195C1167.51 157.045 1172.23 149.769 1175.51 141.364C1178.99 132.96 1180.74 123.633 1180.74 113.384C1180.74 103.135 1178.99 93.8083 1175.51 85.404C1172.23 76.9997 1167.51 69.7228 1161.37 63.5733C1155.42 57.4238 1148.35 52.7092 1140.15 49.4295C1131.95 46.1498 1123.03 44.5099 1113.4 44.5099C1103.77 44.5099 1094.85 46.1498 1086.65 49.4295C1078.65 52.7092 1071.58 57.4238 1065.43 63.5733C1059.28 69.7228 1054.47 76.9997 1050.98 85.404C1047.7 93.8083 1046.06 103.135 1046.06 113.384C1046.06 123.428 1047.7 132.755 1050.98 141.364C1054.47 149.769 1059.18 157.045 1065.13 163.195C1071.28 169.344 1078.45 174.059 1086.65 177.339C1094.85 180.618 1103.77 182.258 1113.4 182.258ZM1248.61 221V5.76819H1298.42V180.413H1406.35V221H1248.61Z"/>
</mask>
<path d="M72.7105 216.388L72.1814 217.76L72.1879 217.762L72.7105 216.388ZM35.1987 193.02L34.18 194.08L34.1851 194.085L34.1903 194.09L35.1987 193.02ZM10.6008 157.66L9.24719 158.235L9.25086 158.243L9.25463 158.252L10.6008 157.66ZM10.6008 69.1078L9.25463 68.5164L9.25086 68.5249L9.24719 68.5336L10.6008 69.1078ZM73.018 10.3803L72.4889 9.00846H72.4888L73.018 10.3803ZM166.49 10.3803L165.954 11.7495L165.961 11.7521L166.49 10.3803ZM203.694 33.7483L202.676 34.8086L202.681 34.8135L202.686 34.8184L203.694 33.7483ZM228.6 69.1078L227.254 69.6993L227.257 69.7069L228.6 69.1078ZM228.6 157.968L229.946 158.559L229.949 158.552L228.6 157.968ZM203.694 193.327L204.702 194.398L204.703 194.397L203.694 193.327ZM166.49 216.388L165.961 215.016L165.954 215.019L166.49 216.388ZM146.197 177.339L145.651 175.973L145.639 175.978L146.197 177.339ZM167.72 163.195L166.68 162.155L167.72 163.195ZM181.864 141.364L180.506 140.801L180.5 140.815L180.494 140.83L181.864 141.364ZM181.864 85.404L180.494 85.9385L180.5 85.9529L180.506 85.9671L181.864 85.404ZM167.72 63.5733L166.663 64.5952L166.671 64.6042L166.68 64.613L167.72 63.5733ZM146.504 49.4295L145.958 50.7947L146.504 49.4295ZM93.0038 49.4295L92.4577 48.0643L92.4457 48.0692L93.0038 49.4295ZM71.7881 63.5733L72.8278 64.613L71.7881 63.5733ZM57.3368 85.404L55.9786 84.8408L55.9727 84.8551L55.9671 84.8694L57.3368 85.404ZM57.3368 141.364L55.9628 141.888L55.9704 141.908L55.9786 141.927L57.3368 141.364ZM71.4806 163.195L70.4235 164.217L70.4321 164.226L70.4409 164.235L71.4806 163.195ZM93.0038 177.339L92.4577 178.704L93.0038 177.339ZM120.062 223.219C103.21 223.219 87.6052 220.479 73.2331 215.014L72.1879 217.762C86.9234 223.366 102.886 226.16 120.062 226.16V223.219ZM73.2396 215.016C59.0596 209.547 46.7206 201.857 36.207 191.95L34.1903 194.09C44.995 204.271 57.6638 212.16 72.1814 217.76L73.2396 215.016ZM36.2174 191.96C25.9047 182.051 17.8155 170.425 11.9469 157.069L9.25463 158.252C15.275 171.953 23.5844 183.9 34.18 194.08L36.2174 191.96ZM11.9543 157.086C6.29842 143.754 3.46183 129.193 3.46183 113.384H0.521147C0.521147 129.553 3.42406 144.509 9.24719 158.235L11.9543 157.086ZM3.46183 113.384C3.46183 97.5753 6.29842 83.0139 11.9543 69.6821L9.24719 68.5336C3.42406 82.2595 0.521147 97.2156 0.521147 113.384H3.46183ZM11.9469 69.6993C17.8128 56.3494 26.0003 44.7261 36.5145 34.8184L34.4978 32.6782C23.6938 42.8589 15.2777 54.8086 9.25463 68.5164L11.9469 69.6993ZM36.5145 34.8184C47.028 24.9114 59.3671 17.2216 73.5471 11.7521L72.4888 9.00846C57.9713 14.6081 45.3025 22.4969 34.4978 32.6782L36.5145 34.8184ZM73.5471 11.7521C87.712 6.28851 103.11 3.54885 119.754 3.54885V0.60817C102.781 0.60817 87.0215 3.40302 72.4889 9.00846L73.5471 11.7521ZM119.754 3.54885C136.606 3.54885 152.001 6.28938 165.954 11.7495L167.026 9.01105C152.692 3.40216 136.929 0.60817 119.754 0.60817V3.54885ZM165.961 11.7521C180.139 17.2207 192.371 24.9079 202.676 34.8086L204.713 32.6881C194.11 22.5005 181.539 14.609 167.019 9.00846L165.961 11.7521ZM202.686 34.8184C213.2 44.7261 221.388 56.3494 227.254 69.6993L229.946 68.5164C223.923 54.8086 215.507 42.8589 204.703 32.6782L202.686 34.8184ZM227.257 69.7069C233.109 82.8225 236.046 97.3741 236.046 113.384H238.987C238.987 97.0069 235.98 82.0409 229.943 68.5088L227.257 69.7069ZM236.046 113.384C236.046 129.186 233.11 143.847 227.25 157.384L229.949 158.552C235.979 144.621 238.987 129.56 238.987 113.384H236.046ZM227.254 157.376C221.388 170.726 213.2 182.35 202.686 192.257L204.703 194.397C215.507 184.217 223.923 172.267 229.946 158.559L227.254 157.376ZM202.687 192.257C192.381 201.956 180.145 209.545 165.961 215.016L167.019 217.76C181.533 212.162 194.1 204.377 204.702 194.398L202.687 192.257ZM165.954 215.019C151.999 220.48 136.706 223.219 120.062 223.219V226.16C137.034 226.16 152.694 223.365 167.026 217.757L165.954 215.019ZM119.754 183.729C129.558 183.729 138.564 182.059 146.755 178.699L145.639 175.978C137.841 179.178 129.219 180.788 119.754 180.788V183.729ZM146.743 178.704C155.124 175.351 162.467 170.527 168.76 164.235L166.68 162.155C160.674 168.162 153.668 172.767 145.651 175.974L146.743 178.704ZM168.76 164.235C175.058 157.936 179.883 150.485 183.234 141.899L180.494 140.83C177.285 149.052 172.681 156.155 166.68 162.155L168.76 164.235ZM183.222 141.927C186.79 133.323 188.561 123.802 188.561 113.384H185.62C185.62 123.464 183.907 132.597 180.506 140.801L183.222 141.927ZM188.561 113.384C188.561 102.966 186.79 93.4448 183.222 84.8408L180.506 85.9671C183.907 94.1717 185.62 103.304 185.62 113.384H188.561ZM183.234 84.8694C179.883 76.283 175.058 68.8322 168.76 62.5336L166.68 64.613C172.681 70.6133 177.285 77.7164 180.494 85.9385L183.234 84.8694ZM168.777 62.5514C162.684 56.2478 155.436 51.4185 147.05 48.0643L145.958 50.7947C153.971 53.9999 160.867 58.5998 166.663 64.5952L168.777 62.5514ZM147.05 48.0643C138.662 44.7091 129.558 43.0396 119.754 43.0396V45.9803C129.218 45.9803 137.948 47.5905 145.958 50.7947L147.05 48.0643ZM119.754 43.0396C109.95 43.0396 100.846 44.7091 92.4577 48.0643L93.5499 50.7947C101.56 47.5905 110.29 45.9803 119.754 45.9803V43.0396ZM92.4457 48.0692C84.27 51.4233 77.0347 56.2473 70.7484 62.5336L72.8278 64.613C78.8404 58.6003 85.7489 53.9951 93.5619 50.7898L92.4457 48.0692ZM70.7484 62.5336C64.4562 68.8258 59.5337 76.2667 55.9786 84.8408L58.695 85.9671C62.1093 77.7327 66.821 70.6198 72.8278 64.613L70.7484 62.5336ZM55.9671 84.8694C52.6124 93.4657 50.9469 102.977 50.9469 113.384H53.8876C53.8876 103.293 55.5017 94.1508 58.7065 85.9385L55.9671 84.8694ZM50.9469 113.384C50.9469 123.591 52.6139 133.097 55.9628 141.888L58.7108 140.841C55.5003 132.413 53.8876 123.266 53.8876 113.384H50.9469ZM55.9786 141.927C59.5294 150.491 64.3427 157.926 70.4235 164.217L72.5378 162.173C66.7295 156.164 62.1136 149.046 58.695 140.801L55.9786 141.927ZM70.4409 164.235C76.7334 170.527 84.0765 175.351 92.4577 178.704L93.5499 175.974C85.5325 172.767 78.5268 168.162 72.5203 162.155L70.4409 164.235ZM92.4577 178.704C100.846 182.059 109.95 183.729 119.754 183.729V180.788C110.29 180.788 101.56 179.178 93.5499 175.974L92.4577 178.704ZM311.541 216.695L311.005 218.065L311.017 218.069L311.029 218.074L311.541 216.695ZM274.644 193.327L273.625 194.388L274.644 193.327ZM250.046 157.968L248.693 158.542L248.696 158.551L248.7 158.559L250.046 157.968ZM250.046 68.8004L248.7 68.2089L248.696 68.2175L248.693 68.2261L250.046 68.8004ZM274.644 33.4409L273.636 32.3708L273.63 32.3756L273.625 32.3806L274.644 33.4409ZM311.848 10.3803L312.367 11.7562L312.376 11.7529L312.384 11.7495L311.848 10.3803ZM408.703 11.9177L408.112 13.2643L408.123 13.2692L408.135 13.2738L408.703 11.9177ZM446.829 40.2053L447.827 41.2857L448.845 40.3454L447.967 39.2732L446.829 40.2053ZM414.852 69.7228L413.747 70.6929L414.742 71.8256L415.85 70.8032L414.852 69.7228ZM390.254 50.9669L389.621 52.2938L389.633 52.2997L389.646 52.3054L390.254 50.9669ZM311.233 63.5733L312.273 64.613L311.233 63.5733ZM296.782 85.404L295.424 84.8408L295.418 84.8551L295.412 84.8694L296.782 85.404ZM296.782 141.364L295.412 141.899L295.418 141.913L295.424 141.927L296.782 141.364ZM311.233 163.195L310.194 164.235L311.233 163.195ZM390.254 176.109L390.863 177.447L390.875 177.442L390.888 177.436L390.254 176.109ZM414.852 156.738L415.85 155.658L414.729 154.623L413.736 155.781L414.852 156.738ZM446.829 186.255L447.967 187.188L448.845 186.115L447.827 185.175L446.829 186.255ZM408.703 214.851L408.119 213.501L408.112 213.504L408.703 214.851ZM357.97 223.219C341.526 223.219 326.224 220.581 312.053 215.317L311.029 218.074C325.555 223.469 341.206 226.16 357.97 226.16V223.219ZM312.077 215.326C298.104 209.858 285.971 202.171 275.663 192.267L273.625 194.388C284.225 204.572 296.69 212.463 311.005 218.065L312.077 215.326ZM275.663 192.267C265.35 182.359 257.261 170.732 251.392 157.376L248.7 158.559C254.72 172.261 263.03 184.208 273.625 194.388L275.663 192.267ZM251.4 157.394C245.745 144.064 242.907 129.401 242.907 113.384H239.967C239.967 129.755 242.868 144.814 248.693 158.542L251.4 157.394ZM242.907 113.384C242.907 97.3676 245.745 82.7041 251.4 69.3746L248.693 68.2261C242.868 81.9543 239.967 97.0134 239.967 113.384H242.907ZM251.392 69.3918C257.261 56.0357 265.35 44.4093 275.663 34.5011L273.625 32.3806C263.03 42.5607 254.72 54.5073 248.7 68.2089L251.392 69.3918ZM275.652 34.511C286.165 24.6044 298.399 17.0194 312.367 11.7562L311.33 9.00439C297.01 14.4003 284.441 22.189 273.636 32.3708L275.652 34.511ZM312.384 11.7495C326.34 6.28859 341.632 3.54885 358.277 3.54885V0.60817C341.305 0.60817 325.644 3.40295 311.313 9.01105L312.384 11.7495ZM358.277 3.54885C376.756 3.54885 393.359 6.79723 408.112 13.2643L409.293 10.571C394.119 3.91924 377.105 0.60817 358.277 0.60817V3.54885ZM408.135 13.2738C423.086 19.5372 435.598 28.8224 445.692 41.1374L447.967 39.2732C437.563 26.5803 424.657 17.0071 409.271 10.5615L408.135 13.2738ZM445.832 39.1249L413.855 68.6424L415.85 70.8032L447.827 41.2857L445.832 39.1249ZM415.957 68.7527C408.458 60.212 400.095 53.8247 390.863 49.6283L389.646 52.3054C398.452 56.3084 406.488 62.425 413.747 70.6929L415.957 68.7527ZM390.888 49.6399C381.658 45.2347 371.6 43.0396 360.737 43.0396V45.9803C371.192 45.9803 380.813 48.0898 389.621 52.2938L390.888 49.6399ZM360.737 43.0396C350.53 43.0396 341.122 44.7064 332.53 48.0598L333.599 50.7992C341.814 47.5931 350.855 45.9803 360.737 45.9803V43.0396ZM332.53 48.0598C323.943 51.4106 316.492 56.235 310.194 62.5336L312.273 64.613C318.273 58.6127 325.376 54.0079 333.599 50.7992L332.53 48.0598ZM310.194 62.5336C303.902 68.8258 298.979 76.2667 295.424 84.8408L298.14 85.9671C301.555 77.7327 306.266 70.6198 312.273 64.613L310.194 62.5336ZM295.412 84.8694C292.058 93.4657 290.392 102.977 290.392 113.384H293.333C293.333 103.293 294.947 94.1508 298.152 85.9385L295.412 84.8694ZM290.392 113.384C290.392 123.791 292.058 133.303 295.412 141.899L298.152 140.83C294.947 132.617 293.333 123.475 293.333 113.384H290.392ZM295.424 141.927C298.979 150.502 303.902 157.942 310.194 164.235L312.273 162.155C306.266 156.148 301.555 149.036 298.14 140.801L295.424 141.927ZM310.194 164.235C316.492 170.533 323.943 175.358 332.53 178.708L333.599 175.969C325.376 172.76 318.273 168.156 312.273 162.155L310.194 164.235ZM332.53 178.708C341.122 182.062 350.53 183.729 360.737 183.729V180.788C350.855 180.788 341.814 179.175 333.599 175.969L332.53 178.708ZM360.737 183.729C371.59 183.729 381.638 181.64 390.863 177.447L389.646 174.77C380.832 178.777 371.202 180.788 360.737 180.788V183.729ZM390.888 177.436C400.115 173.032 408.474 166.439 415.969 157.695L413.736 155.781C406.472 164.256 398.432 170.577 389.621 174.782L390.888 177.436ZM413.855 157.818L445.832 187.336L447.827 185.175L415.85 155.658L413.855 157.818ZM445.692 185.323C435.595 197.642 423.078 207.032 408.119 213.501L409.286 216.2C424.665 209.55 437.566 199.877 447.967 187.188L445.692 185.323ZM408.112 213.504C393.361 219.97 376.656 223.219 357.97 223.219V226.16C377 226.16 394.117 222.85 409.293 216.197L408.112 213.504ZM502.963 221H501.492V222.47H502.963V221ZM502.963 46.3548H504.433V44.8844H502.963V46.3548ZM434.089 46.3548H432.618V47.8251H434.089V46.3548ZM434.089 5.76819V4.29784H432.618V5.76819H434.089ZM621.648 5.76819H623.118V4.29784H621.648V5.76819ZM621.648 46.3548V47.8251H623.118V46.3548H621.648ZM552.773 46.3548V44.8844H551.303V46.3548H552.773ZM552.773 221V222.47H554.244V221H552.773ZM504.433 221V46.3548H501.492V221H504.433ZM502.963 44.8844H434.089V47.8251H502.963V44.8844ZM435.559 46.3548V5.76819H432.618V46.3548H435.559ZM434.089 7.23853H621.648V4.29784H434.089V7.23853ZM620.177 5.76819V46.3548H623.118V5.76819H620.177ZM621.648 44.8844H552.773V47.8251H621.648V44.8844ZM551.303 46.3548V221H554.244V46.3548H551.303ZM552.773 219.53H502.963V222.47H552.773V219.53ZM589.365 221L588.022 220.401L587.1 222.47H589.365V221ZM685.297 5.76819V4.29784H684.343L683.954 5.1696L685.297 5.76819ZM734.493 5.76819L735.835 5.168L735.446 4.29784H734.493V5.76819ZM830.732 221V222.47H833L832.075 220.4L830.732 221ZM778.462 221L777.103 221.563L777.479 222.47H778.462V221ZM699.748 30.9811V29.5107H697.548L698.39 31.5438L699.748 30.9811ZM719.427 30.9811L720.784 31.5456L721.631 29.5107H719.427V30.9811ZM640.406 221V222.47H641.387L641.764 221.565L640.406 221ZM637.331 174.879L635.943 174.394L635.26 176.349H637.331V174.879ZM650.553 137.06V135.589H649.509L649.165 136.574L650.553 137.06ZM761.243 137.06L762.628 136.564L762.279 135.589H761.243V137.06ZM774.772 174.879V176.349H776.86L776.157 174.384L774.772 174.879ZM590.708 221.599L686.64 6.36677L683.954 5.1696L588.022 220.401L590.708 221.599ZM685.297 7.23853H734.493V4.29784H685.297V7.23853ZM733.151 6.36837L829.39 221.6L832.075 220.4L735.835 5.168L733.151 6.36837ZM830.732 219.53H778.462V222.47H830.732V219.53ZM779.82 220.437L701.107 30.4184L698.39 31.5438L777.103 221.563L779.82 220.437ZM699.748 32.4514H719.427V29.5107H699.748V32.4514ZM718.069 30.4165L639.048 220.435L641.764 221.565L720.784 31.5456L718.069 30.4165ZM640.406 219.53H589.365V222.47H640.406V219.53ZM638.719 175.364L651.941 137.545L649.165 136.574L635.943 174.394L638.719 175.364ZM650.553 138.53H761.243V135.589H650.553V138.53ZM759.859 137.555L773.388 175.374L776.157 174.384L762.628 136.564L759.859 137.555ZM774.772 173.409H637.331V176.349H774.772V173.409ZM854.293 217.925L853.872 219.334L853.88 219.337L853.889 219.339L854.293 217.925ZM816.166 199.784L814.825 199.18L814.346 200.243L815.272 200.952L816.166 199.784ZM833.077 162.272L833.929 161.074L832.471 160.038L831.736 161.668L833.077 162.272ZM865.669 178.569L865.19 179.959L865.204 179.964L865.218 179.968L865.669 178.569ZM927.779 181.951L928.215 183.355L928.229 183.351L928.244 183.346L927.779 181.951ZM941.308 173.649L940.173 172.714L941.308 173.649ZM938.848 148.129L937.949 149.292L937.966 149.305L937.983 149.318L938.848 148.129ZM921.014 139.827L920.585 141.233L920.603 141.239L920.621 141.244L921.014 139.827ZM896.417 133.677L896.083 135.109L896.103 135.114L896.122 135.118L896.417 133.677ZM869.666 126.298L869.211 127.696L869.22 127.699L869.666 126.298ZM845.376 115.229L844.609 116.484L845.376 115.229ZM827.235 97.3954L825.98 98.1622L825.988 98.1747L825.996 98.1871L827.235 97.3954ZM830.31 35.5932L829.082 34.7832L829.079 34.7892L830.31 35.5932ZM860.442 11.3027L861.041 12.6455L861.05 12.6413L860.442 11.3027ZM951.147 6.99809L950.79 8.42452L950.801 8.42715L950.811 8.42963L951.147 6.99809ZM985.891 21.1419L987.254 21.6956L987.717 20.5566L986.678 19.8993L985.891 21.1419ZM970.518 58.9612L969.788 60.2378L971.247 61.0714L971.88 59.5149L970.518 58.9612ZM940.385 46.3548L939.981 47.7685L939.995 47.7724L940.008 47.7759L940.385 46.3548ZM887.192 45.4323L886.686 44.0519V44.0519L887.192 45.4323ZM873.971 54.3491L875.139 55.2422L875.151 55.2263L875.163 55.2099L873.971 54.3491ZM876.738 80.1769L875.839 81.3404L875.856 81.3534L875.873 81.366L876.738 80.1769ZM894.572 88.1712L894.178 89.5879L894.572 88.1712ZM918.862 94.3207L918.529 95.7528L918.536 95.7545L918.862 94.3207ZM945.612 101.393L945.187 102.8L945.196 102.803L945.612 101.393ZM970.21 112.154L970.977 110.9L970.21 112.154ZM988.044 129.988L986.789 130.754L986.797 130.767L986.805 130.779L988.044 129.988ZM984.969 191.175L986.189 191.996L984.969 191.175ZM954.529 215.465L953.921 214.127L953.913 214.13L954.529 215.465ZM903.796 223.219C886.707 223.219 870.343 220.982 854.696 216.512L853.889 219.339C869.81 223.888 886.447 226.16 903.796 226.16V223.219ZM854.713 216.516C839.044 211.836 826.512 205.857 817.06 198.617L815.272 200.952C825.088 208.471 837.974 214.585 853.872 219.334L854.713 216.516ZM817.506 200.389L834.417 162.877L831.736 161.668L814.825 199.18L817.506 200.389ZM832.225 163.471C841.581 170.124 852.575 175.616 865.19 179.959L866.148 177.178C853.755 172.912 843.021 167.54 833.929 161.074L832.225 163.471ZM865.218 179.968C878.067 184.113 891.031 186.188 904.103 186.188V183.248C891.348 183.248 878.689 181.223 866.12 177.169L865.218 179.968ZM904.103 186.188C914.015 186.188 922.072 185.261 928.215 183.355L927.343 180.547C921.597 182.33 913.87 183.248 904.103 183.248V186.188ZM928.244 183.346C934.547 181.245 939.337 178.355 942.443 174.584L940.173 172.714C937.539 175.912 933.31 178.557 927.314 180.556L928.244 183.346ZM942.443 174.584C945.529 170.836 947.083 166.509 947.083 161.658H944.142C944.142 165.826 942.826 169.493 940.173 172.714L942.443 174.584ZM947.083 161.658C947.083 155.464 944.616 150.505 939.713 146.94L937.983 149.318C942.099 152.311 944.142 156.372 944.142 161.658H947.083ZM939.747 146.965C935.045 143.332 928.911 140.494 921.408 138.41L920.621 141.244C927.876 143.259 933.632 145.956 937.949 149.292L939.747 146.965ZM921.444 138.421C914.013 136.15 905.768 134.089 896.711 132.237L896.122 135.118C905.104 136.955 913.257 138.994 920.585 141.233L921.444 138.421ZM896.75 132.245C887.975 130.205 879.096 127.755 870.112 124.897L869.22 127.699C878.275 130.58 887.23 133.05 896.083 135.109L896.75 132.245ZM870.121 124.9C861.409 122.063 853.417 118.42 846.143 113.974L844.609 116.484C852.093 121.057 860.296 124.793 869.211 127.696L870.121 124.9ZM846.143 113.974C838.956 109.583 833.07 103.797 828.474 96.6038L825.996 98.1871C830.829 105.752 837.037 111.856 844.609 116.484L846.143 113.974ZM828.489 96.6287C824.16 89.5441 821.941 80.4025 821.941 69.1078H819C819 80.7712 821.291 90.488 825.98 98.1622L828.489 96.6287ZM821.941 69.1078C821.941 57.0868 825.141 46.1959 831.541 36.3971L829.079 34.7892C822.359 45.0787 819 56.531 819 69.1078H821.941ZM831.537 36.4031C838.12 26.4287 847.924 18.4976 861.041 12.6455L859.843 9.95996C846.312 15.9968 836.028 24.2594 829.082 34.7832L831.537 36.4031ZM861.05 12.6413C874.332 6.60427 891.02 3.54885 911.175 3.54885V0.60817C890.744 0.60817 873.61 3.70222 859.834 9.96417L861.05 12.6413ZM911.175 3.54885C924.584 3.54885 937.788 5.17397 950.79 8.42452L951.503 5.57165C938.268 2.26276 924.824 0.60817 911.175 0.60817V3.54885ZM950.811 8.42963C963.792 11.4719 975.217 16.1285 985.105 22.3844L986.678 19.8993C976.478 13.4463 964.74 8.67376 951.482 5.56654L950.811 8.42963ZM984.529 20.5882L969.156 58.4075L971.88 59.5149L987.254 21.6956L984.529 20.5882ZM971.247 57.6846C961.105 51.8889 950.943 47.6345 940.762 44.9336L940.008 47.7759C949.916 50.4046 959.842 54.5545 969.788 60.2378L971.247 57.6846ZM940.789 44.941C930.625 42.0368 920.65 40.5798 910.868 40.5798V43.5205C920.354 43.5205 930.058 44.9332 939.981 47.7685L940.789 44.941ZM910.868 40.5798C901.135 40.5798 893.055 41.7166 886.686 44.0519L887.698 46.8128C893.629 44.6384 901.333 43.5205 910.868 43.5205V40.5798ZM886.686 44.0519C880.377 46.3653 875.675 49.4776 872.779 53.4882L875.163 55.2099C877.596 51.8412 881.709 49.009 887.698 46.8128L886.686 44.0519ZM872.803 53.4559C869.927 57.2168 868.503 61.6363 868.503 66.648H871.444C871.444 62.2306 872.685 58.4508 875.139 55.2422L872.803 53.4559ZM868.503 66.648C868.503 72.6535 870.982 77.5869 875.839 81.3404L877.637 79.0134C873.475 75.7975 871.444 71.7116 871.444 66.648H868.503ZM875.873 81.366C880.567 84.7799 886.688 87.5074 894.178 89.5879L894.965 86.7545C887.696 84.7354 881.928 82.1334 877.603 78.9878L875.873 81.366ZM894.178 89.5879C901.581 91.6442 909.698 93.6991 918.529 95.7528L919.195 92.8886C910.398 90.8427 902.321 88.7979 894.965 86.7545L894.178 89.5879ZM918.536 95.7545C927.522 97.7967 936.406 100.145 945.187 102.8L946.038 99.9852C937.191 97.3104 928.241 94.9443 919.188 92.8869L918.536 95.7545ZM945.196 102.803C954.103 105.434 962.183 108.972 969.444 113.409L970.977 110.9C963.479 106.318 955.161 102.68 946.029 99.9825L945.196 102.803ZM969.444 113.409C976.624 117.797 982.401 123.574 986.789 130.754L989.298 129.221C984.667 121.643 978.555 115.531 970.977 110.9L969.444 113.409ZM986.805 130.779C991.33 137.863 993.645 146.895 993.645 157.968H996.586C996.586 146.493 994.186 136.871 989.283 129.196L986.805 130.779ZM993.645 157.968C993.645 169.769 990.351 180.552 983.749 190.354L986.189 191.996C993.116 181.71 996.586 170.355 996.586 157.968H993.645ZM983.749 190.354C977.168 200.126 967.258 208.064 953.921 214.127L955.138 216.804C968.858 210.568 979.241 202.312 986.189 191.996L983.749 190.354ZM953.913 214.13C940.843 220.163 924.16 223.219 903.796 223.219V226.16C924.428 226.16 941.567 223.067 955.145 216.8L953.913 214.13ZM1066.36 216.388L1065.83 217.76L1065.83 217.762L1066.36 216.388ZM1028.84 193.02L1027.83 194.08L1027.83 194.085L1027.84 194.09L1028.84 193.02ZM1004.25 157.66L1002.89 158.235L1002.9 158.243L1002.9 158.252L1004.25 157.66ZM1004.25 69.1078L1002.9 68.5164L1002.9 68.5249L1002.89 68.5336L1004.25 69.1078ZM1066.66 10.3803L1066.13 9.00846L1066.66 10.3803ZM1160.14 10.3803L1159.6 11.7495L1159.61 11.7521L1160.14 10.3803ZM1197.34 33.7483L1196.32 34.8086L1196.33 34.8135L1196.33 34.8184L1197.34 33.7483ZM1222.25 69.1078L1220.9 69.6993L1220.9 69.7069L1222.25 69.1078ZM1222.25 157.968L1223.59 158.559L1223.59 158.552L1222.25 157.968ZM1197.34 193.327L1198.35 194.398L1198.35 194.397L1197.34 193.327ZM1160.14 216.388L1159.61 215.016L1159.6 215.019L1160.14 216.388ZM1139.84 177.339L1139.3 175.973L1139.28 175.978L1139.84 177.339ZM1161.37 163.195L1160.33 162.155L1161.37 163.195ZM1175.51 141.364L1174.15 140.801L1174.15 140.815L1174.14 140.83L1175.51 141.364ZM1175.51 85.404L1174.14 85.9385L1174.15 85.9529L1174.15 85.9671L1175.51 85.404ZM1161.37 63.5733L1160.31 64.5952L1160.32 64.6042L1160.33 64.613L1161.37 63.5733ZM1140.15 49.4295L1139.6 50.7947L1140.15 49.4295ZM1086.65 49.4295L1086.1 48.0643L1086.09 48.0692L1086.65 49.4295ZM1065.43 63.5733L1066.47 64.613L1065.43 63.5733ZM1050.98 85.404L1049.62 84.8408L1049.62 84.8551L1049.61 84.8694L1050.98 85.404ZM1050.98 141.364L1049.61 141.888L1049.62 141.908L1049.62 141.927L1050.98 141.364ZM1065.13 163.195L1064.07 164.217L1064.08 164.226L1064.09 164.235L1065.13 163.195ZM1086.65 177.339L1086.1 178.704L1086.65 177.339ZM1113.71 223.219C1096.86 223.219 1081.25 220.479 1066.88 215.014L1065.83 217.762C1080.57 223.366 1096.53 226.16 1113.71 226.16V223.219ZM1066.89 215.016C1052.71 209.547 1040.37 201.857 1029.85 191.95L1027.84 194.09C1038.64 204.271 1051.31 212.16 1065.83 217.76L1066.89 215.016ZM1029.86 191.96C1019.55 182.051 1011.46 170.425 1005.59 157.069L1002.9 158.252C1008.92 171.953 1017.23 183.9 1027.83 194.08L1029.86 191.96ZM1005.6 157.086C999.944 143.754 997.107 129.193 997.107 113.384H994.167C994.167 129.553 997.07 144.509 1002.89 158.235L1005.6 157.086ZM997.107 113.384C997.107 97.5753 999.944 83.0139 1005.6 69.6821L1002.89 68.5336C997.07 82.2595 994.167 97.2156 994.167 113.384H997.107ZM1005.59 69.6993C1011.46 56.3494 1019.65 44.7261 1030.16 34.8184L1028.14 32.6782C1017.34 42.8589 1008.92 54.8086 1002.9 68.5164L1005.59 69.6993ZM1030.16 34.8184C1040.67 24.9114 1053.01 17.2216 1067.19 11.7521L1066.13 9.00846C1051.62 14.6081 1038.95 22.4969 1028.14 32.6782L1030.16 34.8184ZM1067.19 11.7521C1081.36 6.28851 1096.76 3.54885 1113.4 3.54885V0.60817C1096.43 0.60817 1080.67 3.40302 1066.13 9.00846L1067.19 11.7521ZM1113.4 3.54885C1130.25 3.54885 1145.65 6.28938 1159.6 11.7495L1160.67 9.01105C1146.34 3.40216 1130.57 0.60817 1113.4 0.60817V3.54885ZM1159.61 11.7521C1173.78 17.2207 1186.02 24.9079 1196.32 34.8086L1198.36 32.6881C1187.76 22.5005 1175.18 14.609 1160.66 9.00846L1159.61 11.7521ZM1196.33 34.8184C1206.85 44.7261 1215.03 56.3494 1220.9 69.6993L1223.59 68.5164C1217.57 54.8086 1209.15 42.8589 1198.35 32.6782L1196.33 34.8184ZM1220.9 69.7069C1226.75 82.8225 1229.69 97.3741 1229.69 113.384H1232.63C1232.63 97.0069 1229.63 82.0409 1223.59 68.5088L1220.9 69.7069ZM1229.69 113.384C1229.69 129.186 1226.76 143.847 1220.9 157.384L1223.59 158.552C1229.62 144.621 1232.63 129.56 1232.63 113.384H1229.69ZM1220.9 157.376C1215.03 170.726 1206.85 182.35 1196.33 192.257L1198.35 194.397C1209.15 184.217 1217.57 172.267 1223.59 158.559L1220.9 157.376ZM1196.33 192.257C1186.03 201.956 1173.79 209.545 1159.61 215.016L1160.66 217.76C1175.18 212.162 1187.75 204.377 1198.35 194.398L1196.33 192.257ZM1159.6 215.019C1145.64 220.48 1130.35 223.219 1113.71 223.219V226.16C1130.68 226.16 1146.34 223.365 1160.67 217.757L1159.6 215.019ZM1113.4 183.729C1123.2 183.729 1132.21 182.059 1140.4 178.699L1139.28 175.978C1131.49 179.178 1122.86 180.788 1113.4 180.788V183.729ZM1140.39 178.704C1148.77 175.351 1156.11 170.527 1162.41 164.235L1160.33 162.155C1154.32 168.162 1147.31 172.767 1139.3 175.974L1140.39 178.704ZM1162.41 164.235C1168.7 157.936 1173.53 150.485 1176.88 141.899L1174.14 140.83C1170.93 149.052 1166.33 156.155 1160.33 162.155L1162.41 164.235ZM1176.87 141.927C1180.43 133.323 1182.21 123.802 1182.21 113.384H1179.27C1179.27 123.464 1177.55 132.597 1174.15 140.801L1176.87 141.927ZM1182.21 113.384C1182.21 102.966 1180.43 93.4448 1176.87 84.8408L1174.15 85.9671C1177.55 94.1717 1179.27 103.304 1179.27 113.384H1182.21ZM1176.88 84.8694C1173.53 76.283 1168.7 68.8322 1162.41 62.5336L1160.33 64.613C1166.33 70.6133 1170.93 77.7164 1174.14 85.9385L1176.88 84.8694ZM1162.42 62.5514C1156.33 56.2478 1149.08 51.4185 1140.7 48.0643L1139.6 50.7947C1147.62 53.9999 1154.51 58.5998 1160.31 64.5952L1162.42 62.5514ZM1140.7 48.0643C1132.31 44.7091 1123.2 43.0396 1113.4 43.0396V45.9803C1122.86 45.9803 1131.59 47.5905 1139.6 50.7947L1140.7 48.0643ZM1113.4 43.0396C1103.6 43.0396 1094.49 44.7091 1086.1 48.0643L1087.2 50.7947C1095.21 47.5905 1103.94 45.9803 1113.4 45.9803V43.0396ZM1086.09 48.0692C1077.92 51.4233 1070.68 56.2473 1064.39 62.5336L1066.47 64.613C1072.49 58.6003 1079.39 53.9951 1087.21 50.7898L1086.09 48.0692ZM1064.39 62.5336C1058.1 68.8258 1053.18 76.2667 1049.62 84.8408L1052.34 85.9671C1055.75 77.7327 1060.47 70.6198 1066.47 64.613L1064.39 62.5336ZM1049.61 84.8694C1046.26 93.4657 1044.59 102.977 1044.59 113.384H1047.53C1047.53 103.293 1049.15 94.1508 1052.35 85.9385L1049.61 84.8694ZM1044.59 113.384C1044.59 123.591 1046.26 133.097 1049.61 141.888L1052.36 140.841C1049.15 132.413 1047.53 123.266 1047.53 113.384H1044.59ZM1049.62 141.927C1053.17 150.491 1057.99 157.926 1064.07 164.217L1066.18 162.173C1060.38 156.164 1055.76 149.046 1052.34 140.801L1049.62 141.927ZM1064.09 164.235C1070.38 170.527 1077.72 175.351 1086.1 178.704L1087.2 175.974C1079.18 172.767 1072.17 168.162 1066.17 162.155L1064.09 164.235ZM1086.1 178.704C1094.49 182.059 1103.6 183.729 1113.4 183.729V180.788C1103.94 180.788 1095.21 179.178 1087.2 175.974L1086.1 178.704ZM1248.61 221H1247.14V222.47H1248.61V221ZM1248.61 5.76819V4.29784H1247.14V5.76819H1248.61ZM1298.42 5.76819H1299.89V4.29784H1298.42V5.76819ZM1298.42 180.413H1296.95V181.884H1298.42V180.413ZM1406.35 180.413H1407.82V178.943H1406.35V180.413ZM1406.35 221V222.47H1407.82V221H1406.35ZM1250.08 221V5.76819H1247.14V221H1250.08ZM1248.61 7.23853H1298.42V4.29784H1248.61V7.23853ZM1296.95 5.76819V180.413H1299.89V5.76819H1296.95ZM1298.42 181.884H1406.35V178.943H1298.42V181.884ZM1404.88 180.413V221H1407.82V180.413H1404.88ZM1406.35 219.53H1248.61V222.47H1406.35V219.53Z" fill="url(#paint0_linear_47_102)" mask="url(#path-1-outside-1_47_102)"/>
</g>
<defs>
<linearGradient id="paint0_linear_47_102" x1="690.331" y1="-86.0565" x2="690.331" y2="220.595" gradientUnits="userSpaceOnUse">
<stop stop-color="#AAAAAA"/>
<stop offset="1" stop-color="white" stop-opacity="0"/>
</linearGradient>
</defs>
</svg>
