<svg width="1444" height="329" viewBox="0 0 1444 329" fill="none" xmlns="http://www.w3.org/2000/svg">
<g id="Octasol" opacity="0.4">
<mask id="path-1-outside-1_173_85" maskUnits="userSpaceOnUse" x="9" y="57" width="1283" height="206" fill="black">
<rect fill="white" x="9" y="57" width="1283" height="206"/>
<path d="M118.44 261.36C102.947 261.36 88.5733 258.84 75.32 253.8C62.2533 248.76 50.8667 241.667 41.16 232.52C31.64 223.373 24.1733 212.64 18.76 200.32C13.5333 188 10.92 174.56 10.92 160C10.92 145.44 13.5333 132 18.76 119.68C24.1733 107.36 31.7333 96.6267 41.44 87.48C51.1467 78.3333 62.5333 71.24 75.6 66.2C88.6667 61.16 102.853 58.64 118.16 58.64C133.653 58.64 147.84 61.16 160.72 66.2C173.787 71.24 185.08 78.3333 194.6 87.48C204.307 96.6267 211.867 107.36 217.28 119.68C222.693 131.813 225.4 145.253 225.4 160C225.4 174.56 222.693 188.093 217.28 200.6C211.867 212.92 204.307 223.653 194.6 232.8C185.08 241.76 173.787 248.76 160.72 253.8C147.84 258.84 133.747 261.36 118.44 261.36ZM118.16 222.72C126.933 222.72 134.96 221.227 142.24 218.24C149.707 215.253 156.24 210.96 161.84 205.36C167.44 199.76 171.733 193.133 174.72 185.48C177.893 177.827 179.48 169.333 179.48 160C179.48 150.667 177.893 142.173 174.72 134.52C171.733 126.867 167.44 120.24 161.84 114.64C156.427 109.04 149.987 104.747 142.52 101.76C135.053 98.7733 126.933 97.28 118.16 97.28C109.387 97.28 101.267 98.7733 93.8 101.76C86.52 104.747 80.08 109.04 74.48 114.64C68.88 120.24 64.4933 126.867 61.32 134.52C58.3333 142.173 56.84 150.667 56.84 160C56.84 169.147 58.3333 177.64 61.32 185.48C64.4933 193.133 68.7867 199.76 74.2 205.36C79.8 210.96 86.3333 215.253 93.8 218.24C101.267 221.227 109.387 222.72 118.16 222.72ZM335.09 261.36C319.97 261.36 305.877 258.933 292.81 254.08C279.93 249.04 268.73 241.947 259.21 232.8C249.69 223.653 242.223 212.92 236.81 200.6C231.583 188.28 228.97 174.747 228.97 160C228.97 145.253 231.583 131.72 236.81 119.4C242.223 107.08 249.69 96.3467 259.21 87.2C268.917 78.0533 280.21 71.0533 293.09 66.2C305.97 61.16 320.063 58.64 335.37 58.64C352.357 58.64 367.663 61.6267 381.29 67.6C395.103 73.3867 406.677 81.9733 416.01 93.36L386.89 120.24C380.17 112.587 372.703 106.893 364.49 103.16C356.277 99.24 347.317 97.28 337.61 97.28C328.463 97.28 320.063 98.7733 312.41 101.76C304.757 104.747 298.13 109.04 292.53 114.64C286.93 120.24 282.543 126.867 279.37 134.52C276.383 142.173 274.89 150.667 274.89 160C274.89 169.333 276.383 177.827 279.37 185.48C282.543 193.133 286.93 199.76 292.53 205.36C298.13 210.96 304.757 215.253 312.41 218.24C320.063 221.227 328.463 222.72 337.61 222.72C347.317 222.72 356.277 220.853 364.49 217.12C372.703 213.2 380.17 207.32 386.89 199.48L416.01 226.36C406.677 237.747 395.103 246.427 381.29 252.4C367.663 258.373 352.263 261.36 335.09 261.36ZM467.128 258V98.96H404.408V62H575.208V98.96H512.488V258H467.128ZM545.81 258L633.17 62H677.97L765.61 258H718.01L646.33 84.96H664.25L592.29 258H545.81ZM589.49 216L601.53 181.56H702.33L714.65 216H589.49ZM832.145 261.36C816.465 261.36 801.438 259.307 787.065 255.2C772.691 250.907 761.118 245.4 752.345 238.68L767.745 204.52C776.145 210.493 786.038 215.44 797.425 219.36C808.998 223.093 820.665 224.96 832.425 224.96C841.385 224.96 848.571 224.12 853.985 222.44C859.585 220.573 863.691 218.053 866.305 214.88C868.918 211.707 870.225 208.067 870.225 203.96C870.225 198.733 868.171 194.627 864.065 191.64C859.958 188.467 854.545 185.947 847.825 184.08C841.105 182.027 833.638 180.16 825.425 178.48C817.398 176.613 809.278 174.373 801.065 171.76C793.038 169.147 785.665 165.787 778.945 161.68C772.225 157.573 766.718 152.16 762.425 145.44C758.318 138.72 756.265 130.133 756.265 119.68C756.265 108.48 759.251 98.3067 765.225 89.16C771.385 79.8267 780.531 72.4533 792.665 67.04C804.985 61.44 820.385 58.64 838.865 58.64C851.185 58.64 863.318 60.1333 875.265 63.12C887.211 65.92 897.758 70.2133 906.905 76L892.905 110.44C883.758 105.213 874.611 101.387 865.465 98.96C856.318 96.3467 847.358 95.04 838.585 95.04C829.811 95.04 822.625 96.0667 817.025 98.12C811.425 100.173 807.411 102.88 804.985 106.24C802.558 109.413 801.345 113.147 801.345 117.44C801.345 122.48 803.398 126.587 807.505 129.76C811.611 132.747 817.025 135.173 823.745 137.04C830.465 138.907 837.838 140.773 845.865 142.64C854.078 144.507 862.198 146.653 870.225 149.08C878.438 151.507 885.905 154.773 892.625 158.88C899.345 162.987 904.758 168.4 908.865 175.12C913.158 181.84 915.305 190.333 915.305 200.6C915.305 211.613 912.225 221.693 906.065 230.84C899.905 239.987 890.665 247.36 878.345 252.96C866.211 258.56 850.811 261.36 832.145 261.36ZM1023.3 261.36C1007.81 261.36 993.433 258.84 980.179 253.8C967.113 248.76 955.726 241.667 946.019 232.52C936.499 223.373 929.033 212.64 923.619 200.32C918.393 188 915.779 174.56 915.779 160C915.779 145.44 918.393 132 923.619 119.68C929.033 107.36 936.593 96.6267 946.299 87.48C956.006 78.3333 967.393 71.24 980.459 66.2C993.526 61.16 1007.71 58.64 1023.02 58.64C1038.51 58.64 1052.7 61.16 1065.58 66.2C1078.65 71.24 1089.94 78.3333 1099.46 87.48C1109.17 96.6267 1116.73 107.36 1122.14 119.68C1127.55 131.813 1130.26 145.253 1130.26 160C1130.26 174.56 1127.55 188.093 1122.14 200.6C1116.73 212.92 1109.17 223.653 1099.46 232.8C1089.94 241.76 1078.65 248.76 1065.58 253.8C1052.7 258.84 1038.61 261.36 1023.3 261.36ZM1023.02 222.72C1031.79 222.72 1039.82 221.227 1047.1 218.24C1054.57 215.253 1061.1 210.96 1066.7 205.36C1072.3 199.76 1076.59 193.133 1079.58 185.48C1082.75 177.827 1084.34 169.333 1084.34 160C1084.34 150.667 1082.75 142.173 1079.58 134.52C1076.59 126.867 1072.3 120.24 1066.7 114.64C1061.29 109.04 1054.85 104.747 1047.38 101.76C1039.91 98.7733 1031.79 97.28 1023.02 97.28C1014.25 97.28 1006.13 98.7733 998.659 101.76C991.379 104.747 984.939 109.04 979.339 114.64C973.739 120.24 969.353 126.867 966.179 134.52C963.193 142.173 961.699 150.667 961.699 160C961.699 169.147 963.193 177.64 966.179 185.48C969.353 193.133 973.646 199.76 979.059 205.36C984.659 210.96 991.193 215.253 998.659 218.24C1006.13 221.227 1014.25 222.72 1023.02 222.72ZM1146.15 258V62H1191.51V221.04H1289.79V258H1146.15Z"/>
</mask>
<path d="M75.32 253.8L74.7909 255.172L74.7974 255.174L75.32 253.8ZM41.16 232.52L40.1413 233.58L40.1465 233.585L40.1516 233.59L41.16 232.52ZM18.76 200.32L17.4064 200.894L17.4101 200.903L17.4139 200.911L18.76 200.32ZM18.76 119.68L17.4139 119.089L17.4101 119.097L17.4064 119.106L18.76 119.68ZM75.6 66.2L75.0709 64.8282L75.0709 64.8282L75.6 66.2ZM160.72 66.2L160.184 67.5692L160.191 67.5718L160.72 66.2ZM194.6 87.48L193.581 88.5403L193.586 88.5452L193.592 88.5501L194.6 87.48ZM217.28 119.68L215.934 120.271L215.937 120.279L217.28 119.68ZM217.28 200.6L218.626 201.191L218.629 201.184L217.28 200.6ZM194.6 232.8L195.608 233.871L195.608 233.87L194.6 232.8ZM160.72 253.8L160.191 252.428L160.184 252.431L160.72 253.8ZM142.24 218.24L141.694 216.875L141.682 216.88L142.24 218.24ZM161.84 205.36L160.8 204.32L160.8 204.32L161.84 205.36ZM174.72 185.48L173.362 184.917L173.356 184.931L173.35 184.945L174.72 185.48ZM174.72 134.52L173.35 135.055L173.356 135.069L173.362 135.083L174.72 134.52ZM161.84 114.64L160.783 115.662L160.792 115.671L160.8 115.68L161.84 114.64ZM142.52 101.76L141.974 103.125L141.974 103.125L142.52 101.76ZM93.8 101.76L93.2539 100.395L93.2419 100.4L93.8 101.76ZM74.48 114.64L75.5197 115.68L75.5197 115.68L74.48 114.64ZM61.32 134.52L59.9618 133.957L59.9559 133.971L59.9503 133.985L61.32 134.52ZM61.32 185.48L59.946 186.003L59.9536 186.023L59.9618 186.043L61.32 185.48ZM74.2 205.36L73.1428 206.382L73.1515 206.391L73.1603 206.4L74.2 205.36ZM93.8 218.24L93.2539 219.605L93.2539 219.605L93.8 218.24ZM118.44 259.89C103.109 259.89 88.9142 257.397 75.8426 252.426L74.7974 255.174C88.2325 260.283 102.785 262.83 118.44 262.83V259.89ZM75.8491 252.428C62.9512 247.453 51.7295 240.459 42.1684 231.45L40.1516 233.59C50.0039 242.874 61.5555 250.067 74.7909 255.172L75.8491 252.428ZM42.1787 231.46C32.8002 222.449 25.4436 211.876 20.1061 199.729L17.4139 200.911C22.9031 213.404 30.4798 224.298 40.1413 233.58L42.1787 231.46ZM20.1136 199.746C14.9705 187.623 12.3903 174.38 12.3903 160H9.44966C9.44966 174.74 12.0962 188.377 17.4064 200.894L20.1136 199.746ZM12.3903 160C12.3903 145.62 14.9705 132.377 20.1136 120.254L17.4064 119.106C12.0962 131.623 9.44966 145.26 9.44966 160H12.3903ZM20.1061 120.271C25.4408 108.13 32.8866 97.5602 42.4484 88.5501L40.4316 86.4099C30.5801 95.6931 22.9058 106.59 17.4139 119.089L20.1061 120.271ZM42.4484 88.5501C52.0095 79.5406 63.2312 72.5467 76.1291 67.5718L75.0709 64.8282C61.8355 69.9332 50.2839 77.1261 40.4316 86.4099L42.4484 88.5501ZM76.1291 67.5718C89.0119 62.6027 103.017 60.1103 118.16 60.1103V57.1697C102.689 57.1697 88.3214 59.7172 75.0709 64.8282L76.1291 67.5718ZM118.16 60.1103C133.492 60.1103 147.494 62.6036 160.184 67.5692L161.256 64.8307C148.186 59.7164 133.815 57.1697 118.16 57.1697V60.1103ZM160.191 67.5718C173.087 72.5459 184.211 79.537 193.581 88.5403L195.619 86.4197C185.949 77.1296 174.487 69.9341 161.249 64.8282L160.191 67.5718ZM193.592 88.5501C203.153 97.5602 210.599 108.13 215.934 120.271L218.626 119.089C213.134 106.59 205.46 95.6931 195.608 86.4099L193.592 88.5501ZM215.937 120.279C221.258 132.204 223.93 145.437 223.93 160H226.87C226.87 145.07 224.129 131.423 218.623 119.081L215.937 120.279ZM223.93 160C223.93 174.373 221.259 187.706 215.931 200.016L218.629 201.184C224.128 188.481 226.87 174.747 226.87 160H223.93ZM215.934 200.009C210.599 212.15 203.153 222.72 193.592 231.73L195.608 233.87C205.46 224.587 213.134 213.69 218.626 201.191L215.934 200.009ZM193.592 231.729C184.22 240.55 173.093 247.452 160.191 252.428L161.249 255.172C174.481 250.068 185.94 242.97 195.608 233.871L193.592 231.729ZM160.184 252.431C147.492 257.397 133.583 259.89 118.44 259.89V262.83C133.91 262.83 148.188 260.283 161.256 255.169L160.184 252.431ZM118.16 224.19C127.103 224.19 135.322 222.668 142.798 219.6L141.682 216.88C134.598 219.786 126.764 221.25 118.16 221.25V224.19ZM142.786 219.605C150.435 216.546 157.137 212.143 162.88 206.4L160.8 204.32C155.343 209.777 148.979 213.961 141.694 216.875L142.786 219.605ZM162.88 206.4C168.629 200.651 173.032 193.85 176.09 186.015L173.35 184.945C170.435 192.417 166.251 198.869 160.8 204.32L162.88 206.4ZM176.078 186.043C179.334 178.19 180.95 169.502 180.95 160H178.01C178.01 169.164 176.452 177.463 173.362 184.917L176.078 186.043ZM180.95 160C180.95 150.498 179.334 141.81 176.078 133.957L173.362 135.083C176.452 142.537 178.01 150.836 178.01 160H180.95ZM176.09 133.985C173.032 126.15 168.629 119.349 162.88 113.6L160.8 115.68C166.251 121.131 170.435 127.583 173.35 135.055L176.09 133.985ZM162.897 113.618C157.335 107.864 150.719 103.456 143.066 100.395L141.974 103.125C149.254 106.037 155.518 110.216 160.783 115.662L162.897 113.618ZM143.066 100.395C135.411 97.3326 127.103 95.8097 118.16 95.8097V98.7503C126.763 98.7503 134.696 100.214 141.974 103.125L143.066 100.395ZM118.16 95.8097C109.217 95.8097 100.909 97.3326 93.2539 100.395L94.3461 103.125C101.624 100.214 109.557 98.7503 118.16 98.7503V95.8097ZM93.2419 100.4C85.7805 103.461 79.1771 107.863 73.4403 113.6L75.5197 115.68C80.9829 110.216 87.2595 106.033 94.3581 103.12L93.2419 100.4ZM73.4403 113.6C67.6976 119.343 63.2055 126.134 59.9618 133.957L62.6782 135.083C65.7811 127.6 70.0624 121.137 75.5197 115.68L73.4403 113.6ZM59.9503 133.985C56.8887 141.831 55.3697 150.508 55.3697 160H58.3103C58.3103 150.825 59.778 142.516 62.6897 135.055L59.9503 133.985ZM55.3697 160C55.3697 169.309 56.8901 177.982 59.946 186.003L62.694 184.957C59.7765 177.298 58.3103 168.984 58.3103 160H55.3697ZM59.9618 186.043C63.2012 193.856 67.5933 200.641 73.1428 206.382L75.2572 204.338C69.9801 198.879 65.7854 192.411 62.6782 184.917L59.9618 186.043ZM73.1603 206.4C78.9033 212.143 85.6053 216.546 93.2539 219.605L94.3461 216.875C87.0614 213.961 80.6967 209.777 75.2397 204.32L73.1603 206.4ZM93.2539 219.605C100.909 222.667 109.217 224.19 118.16 224.19V221.25C109.557 221.25 101.624 219.786 94.3461 216.875L93.2539 219.605ZM292.81 254.08L292.274 255.449L292.286 255.454L292.298 255.458L292.81 254.08ZM259.21 232.8L258.191 233.86L258.191 233.86L259.21 232.8ZM236.81 200.6L235.456 201.174L235.46 201.183L235.464 201.191L236.81 200.6ZM236.81 119.4L235.464 118.809L235.46 118.817L235.456 118.826L236.81 119.4ZM259.21 87.2L258.202 86.1299L258.196 86.1348L258.191 86.1397L259.21 87.2ZM293.09 66.2L293.608 67.5759L293.617 67.5726L293.626 67.5692L293.09 66.2ZM381.29 67.6L380.7 68.9466L380.711 68.9515L380.722 68.9561L381.29 67.6ZM416.01 93.36L417.007 94.4404L418.026 93.5001L417.147 92.4279L416.01 93.36ZM386.89 120.24L385.785 121.21L386.78 122.343L387.887 121.32L386.89 120.24ZM364.49 103.16L363.857 104.487L363.869 104.493L363.882 104.499L364.49 103.16ZM292.53 114.64L293.57 115.68L293.57 115.68L292.53 114.64ZM279.37 134.52L278.012 133.957L278.006 133.971L278 133.985L279.37 134.52ZM279.37 185.48L278 186.015L278.006 186.029L278.012 186.043L279.37 185.48ZM292.53 205.36L291.49 206.4L291.49 206.4L292.53 205.36ZM364.49 217.12L365.098 218.459L365.111 218.453L365.123 218.447L364.49 217.12ZM386.89 199.48L387.887 198.4L386.766 197.365L385.774 198.523L386.89 199.48ZM416.01 226.36L417.147 227.292L418.026 226.22L417.007 225.28L416.01 226.36ZM381.29 252.4L380.706 251.05L380.7 251.053L381.29 252.4ZM335.09 259.89C320.13 259.89 306.211 257.489 293.322 252.702L292.298 255.458C305.542 260.377 319.81 262.83 335.09 262.83V259.89ZM293.346 252.711C280.637 247.738 269.603 240.746 260.229 231.74L258.191 233.86C267.857 243.147 279.223 250.342 292.274 255.449L293.346 252.711ZM260.229 231.74C250.85 222.729 243.494 212.156 238.156 200.009L235.464 201.191C240.953 213.684 248.53 224.578 258.191 233.86L260.229 231.74ZM238.164 200.026C233.021 187.905 230.44 174.57 230.44 160H227.5C227.5 174.924 230.145 188.655 235.456 201.174L238.164 200.026ZM230.44 160C230.44 145.43 233.021 132.095 238.164 119.974L235.456 118.826C230.145 131.345 227.5 145.076 227.5 160H230.44ZM238.156 119.991C243.494 107.844 250.85 97.271 260.229 88.2603L258.191 86.1397C248.53 95.4223 240.953 106.316 235.464 118.809L238.156 119.991ZM260.218 88.2701C269.779 79.261 280.904 72.3629 293.608 67.5759L292.572 64.8241C279.516 69.7437 268.054 76.8456 258.202 86.1299L260.218 88.2701ZM293.626 67.5692C306.318 62.6028 320.227 60.1103 335.37 60.1103V57.1697C319.9 57.1697 305.622 59.7172 292.554 64.8307L293.626 67.5692ZM335.37 60.1103C352.182 60.1103 367.284 63.0657 380.7 68.9466L381.88 66.2534C368.043 60.1877 352.531 57.1697 335.37 57.1697V60.1103ZM380.722 68.9561C394.318 74.6517 405.694 83.0944 414.873 94.2921L417.147 92.4279C407.659 80.8522 395.889 72.1216 381.858 66.2438L380.722 68.9561ZM415.013 92.2796L385.893 119.16L387.887 121.32L417.007 94.4404L415.013 92.2796ZM387.995 119.27C381.155 111.48 373.525 105.651 365.098 101.821L363.882 104.499C371.882 108.135 379.185 113.693 385.785 121.21L387.995 119.27ZM365.123 101.833C356.699 97.8124 347.521 95.8097 337.61 95.8097V98.7503C347.112 98.7503 355.854 100.668 363.857 104.487L365.123 101.833ZM337.61 95.8097C328.301 95.8097 319.717 97.33 311.875 100.39L312.945 103.13C320.409 100.217 328.626 98.7503 337.61 98.7503V95.8097ZM311.875 100.39C304.04 103.448 297.239 107.851 291.49 113.6L293.57 115.68C299.021 110.229 305.473 106.045 312.945 103.13L311.875 100.39ZM291.49 113.6C285.748 119.343 281.256 126.134 278.012 133.957L280.728 135.083C283.831 127.6 288.112 121.137 293.57 115.68L291.49 113.6ZM278 133.985C274.939 141.831 273.42 150.508 273.42 160H276.36C276.36 150.825 277.828 142.516 280.74 135.055L278 133.985ZM273.42 160C273.42 169.492 274.939 178.169 278 186.015L280.74 184.945C277.828 177.484 276.36 169.175 276.36 160H273.42ZM278.012 186.043C281.256 193.866 285.748 200.657 291.49 206.4L293.57 204.32C288.112 198.863 283.831 192.4 280.728 184.917L278.012 186.043ZM291.49 206.4C297.239 212.149 304.04 216.552 311.875 219.61L312.945 216.87C305.473 213.955 299.021 209.771 293.57 204.32L291.49 206.4ZM311.875 219.61C319.717 222.67 328.301 224.19 337.61 224.19V221.25C328.626 221.25 320.409 219.783 312.945 216.87L311.875 219.61ZM337.61 224.19C347.51 224.19 356.68 222.285 365.098 218.459L363.882 215.781C355.874 219.421 347.123 221.25 337.61 221.25V224.19ZM365.123 218.447C373.545 214.427 381.171 208.412 388.006 200.437L385.774 198.523C379.169 206.228 371.862 211.973 363.857 215.793L365.123 218.447ZM385.893 200.56L415.013 227.44L417.007 225.28L387.887 198.4L385.893 200.56ZM414.873 225.428C405.692 236.629 394.31 245.168 380.706 251.05L381.874 253.75C395.897 247.685 407.662 238.864 417.147 227.292L414.873 225.428ZM380.7 251.053C367.286 256.933 352.091 259.89 335.09 259.89V262.83C352.435 262.83 368.041 259.813 381.88 253.747L380.7 251.053ZM467.128 258H465.657V259.47H467.128V258ZM467.128 98.96H468.598V97.4897H467.128V98.96ZM404.408 98.96H402.937V100.43H404.408V98.96ZM404.408 62V60.5296H402.937V62H404.408ZM575.208 62H576.678V60.5296H575.208V62ZM575.208 98.96V100.43H576.678V98.96H575.208ZM512.488 98.96V97.4897H511.017V98.96H512.488ZM512.488 258V259.47H513.958V258H512.488ZM468.598 258V98.96H465.657V258H468.598ZM467.128 97.4897H404.408V100.43H467.128V97.4897ZM405.878 98.96V62H402.937V98.96H405.878ZM404.408 63.4703H575.208V60.5296H404.408V63.4703ZM573.737 62V98.96H576.678V62H573.737ZM575.208 97.4897H512.488V100.43H575.208V97.4897ZM511.017 98.96V258H513.958V98.96H511.017ZM512.488 256.53H467.128V259.47H512.488V256.53ZM545.81 258L544.467 257.401L543.545 259.47H545.81V258ZM633.17 62V60.5296H632.215L631.827 61.4014L633.17 62ZM677.97 62L679.312 61.3998L678.923 60.5296H677.97V62ZM765.61 258V259.47H767.878L766.952 257.4L765.61 258ZM718.01 258L716.651 258.563L717.027 259.47H718.01V258ZM646.33 84.96V83.4897H644.129L644.971 85.5227L646.33 84.96ZM664.25 84.96L665.607 85.5246L666.454 83.4897H664.25V84.96ZM592.29 258V259.47H593.271L593.647 258.565L592.29 258ZM589.49 216L588.102 215.515L587.418 217.47H589.49V216ZM601.53 181.56V180.09H600.486L600.142 181.075L601.53 181.56ZM702.33 181.56L703.714 181.065L703.365 180.09H702.33V181.56ZM714.65 216V217.47H716.737L716.034 215.505L714.65 216ZM547.153 258.599L634.513 62.5986L631.827 61.4014L544.467 257.401L547.153 258.599ZM633.17 63.4703H677.97V60.5296H633.17V63.4703ZM676.627 62.6002L764.267 258.6L766.952 257.4L679.312 61.3998L676.627 62.6002ZM765.61 256.53H718.01V259.47H765.61V256.53ZM719.368 257.437L647.688 84.3973L644.971 85.5227L716.651 258.563L719.368 257.437ZM646.33 86.4303H664.25V83.4897H646.33V86.4303ZM662.892 84.3954L590.932 257.435L593.647 258.565L665.607 85.5246L662.892 84.3954ZM592.29 256.53H545.81V259.47H592.29V256.53ZM590.878 216.485L602.918 182.045L600.142 181.075L588.102 215.515L590.878 216.485ZM601.53 183.03H702.33V180.09H601.53V183.03ZM700.945 182.055L713.265 216.495L716.034 215.505L703.714 181.065L700.945 182.055ZM714.65 214.53H589.49V217.47H714.65V214.53ZM787.065 255.2L786.644 256.609L786.652 256.611L786.661 256.614L787.065 255.2ZM752.345 238.68L751.004 238.076L750.525 239.138L751.451 239.847L752.345 238.68ZM767.745 204.52L768.597 203.322L767.139 202.285L766.404 203.916L767.745 204.52ZM797.425 219.36L796.946 220.75L796.96 220.755L796.973 220.759L797.425 219.36ZM853.985 222.44L854.421 223.844L854.435 223.84L854.45 223.835L853.985 222.44ZM866.305 214.88L865.17 213.945L865.17 213.945L866.305 214.88ZM864.065 191.64L863.166 192.803L863.183 192.817L863.2 192.829L864.065 191.64ZM847.825 184.08L847.395 185.486L847.413 185.492L847.431 185.497L847.825 184.08ZM825.425 178.48L825.092 179.912L825.111 179.917L825.13 179.921L825.425 178.48ZM801.065 171.76L800.609 173.158L800.619 173.161L801.065 171.76ZM778.945 161.68L778.178 162.935L778.178 162.935L778.945 161.68ZM762.425 145.44L761.17 146.207L761.178 146.219L761.186 146.232L762.425 145.44ZM765.225 89.16L763.998 88.3501L763.994 88.356L765.225 89.16ZM792.665 67.04L793.264 68.3828L793.273 68.3785L792.665 67.04ZM875.265 63.12L874.908 64.5464L874.919 64.5491L874.929 64.5515L875.265 63.12ZM906.905 76L908.267 76.5537L908.73 75.4148L907.691 74.7574L906.905 76ZM892.905 110.44L892.175 111.717L893.634 112.55L894.267 110.994L892.905 110.44ZM865.465 98.96L865.061 100.374L865.074 100.378L865.088 100.381L865.465 98.96ZM817.025 98.12L816.519 96.7395L816.519 96.7395L817.025 98.12ZM804.985 106.24L806.153 107.133L806.165 107.117L806.177 107.101L804.985 106.24ZM807.505 129.76L806.606 130.923L806.623 130.937L806.64 130.949L807.505 129.76ZM823.745 137.04L823.351 138.457L823.351 138.457L823.745 137.04ZM845.865 142.64L845.532 144.072L845.539 144.074L845.865 142.64ZM870.225 149.08L869.799 150.487L869.808 150.49L870.225 149.08ZM892.625 158.88L893.391 157.625L893.391 157.625L892.625 158.88ZM908.865 175.12L907.61 175.887L907.618 175.899L907.626 175.912L908.865 175.12ZM906.065 230.84L907.284 231.661L907.284 231.661L906.065 230.84ZM878.345 252.96L877.736 251.621L877.729 251.625L878.345 252.96ZM832.145 259.89C816.595 259.89 801.704 257.854 787.469 253.786L786.661 256.614C801.172 260.76 816.335 262.83 832.145 262.83V259.89ZM787.486 253.791C773.226 249.532 761.83 244.093 753.239 237.513L751.451 239.847C760.406 246.707 772.157 252.281 786.644 256.609L787.486 253.791ZM753.685 239.284L769.085 205.124L766.404 203.916L751.004 238.076L753.685 239.284ZM766.893 205.718C775.425 211.785 785.448 216.792 796.946 220.75L797.903 217.97C786.628 214.088 776.865 209.201 768.597 203.322L766.893 205.718ZM796.973 220.759C808.687 224.538 820.506 226.43 832.425 226.43V223.49C820.823 223.49 809.309 221.649 797.876 217.961L796.973 220.759ZM832.425 226.43C841.457 226.43 848.809 225.586 854.421 223.844L853.549 221.036C848.334 222.654 841.312 223.49 832.425 223.49V226.43ZM854.45 223.835C860.203 221.917 864.59 219.275 867.44 215.815L865.17 213.945C862.793 216.832 858.966 219.23 853.52 221.045L854.45 223.835ZM867.44 215.815C870.27 212.378 871.695 208.408 871.695 203.96H868.754C868.754 207.725 867.566 211.035 865.17 213.945L867.44 215.815ZM871.695 203.96C871.695 198.279 869.43 193.724 864.93 190.451L863.2 192.829C866.913 195.53 868.754 199.187 868.754 203.96H871.695ZM864.964 190.477C860.664 187.154 855.062 184.564 848.218 182.663L847.431 185.497C854.027 187.329 859.252 189.779 863.166 192.803L864.964 190.477ZM848.254 182.674C841.482 180.605 833.97 178.727 825.719 177.039L825.13 179.921C833.306 181.593 840.727 183.449 847.395 185.486L848.254 182.674ZM825.758 177.048C817.771 175.19 809.688 172.961 801.511 170.359L800.619 173.161C808.868 175.786 817.025 178.036 825.092 179.912L825.758 177.048ZM801.52 170.362C793.595 167.782 786.327 164.468 779.711 160.425L778.178 162.935C785.003 167.105 792.482 170.512 800.61 173.158L801.52 170.362ZM779.711 160.425C773.184 156.437 767.838 151.183 763.664 144.648L761.186 146.232C765.598 153.137 771.265 158.71 778.178 162.935L779.711 160.425ZM763.679 144.673C759.753 138.248 757.735 129.949 757.735 119.68H754.794C754.794 130.318 756.883 139.192 761.17 146.207L763.679 144.673ZM757.735 119.68C757.735 108.758 760.643 98.8652 766.456 89.964L763.994 88.356C757.86 97.7481 754.794 108.202 754.794 119.68H757.735ZM766.452 89.9699C772.431 80.9113 781.338 73.7037 793.264 68.3827L792.066 65.6972C779.725 71.2029 770.339 78.742 763.998 88.3501L766.452 89.9699ZM793.273 68.3785C805.346 62.891 820.522 60.1103 838.865 60.1103V57.1697C820.247 57.1697 804.624 59.989 792.056 65.7014L793.273 68.3785ZM838.865 60.1103C851.065 60.1103 863.078 61.5889 874.908 64.5464L875.621 61.6936C863.558 58.6777 851.305 57.1697 838.865 57.1697V60.1103ZM874.929 64.5515C886.737 67.319 897.128 71.5544 906.119 77.2425L907.691 74.7574C898.388 68.8722 887.685 64.5209 875.6 61.6884L874.929 64.5515ZM905.543 75.4463L891.543 109.886L894.267 110.994L908.267 76.5537L905.543 75.4463ZM893.634 109.163C884.389 103.881 875.125 100.002 865.842 97.5388L865.088 100.381C874.098 102.772 883.127 106.546 892.175 111.717L893.634 109.163ZM865.869 97.5462C856.602 94.8985 847.506 93.5697 838.585 93.5697V96.5103C847.21 96.5103 856.034 97.7948 865.061 100.374L865.869 97.5462ZM838.585 93.5697C829.712 93.5697 822.338 94.6058 816.519 96.7395L817.531 99.5005C822.912 97.5275 829.91 96.5103 838.585 96.5103V93.5697ZM816.519 96.7395C810.759 98.8515 806.451 101.698 803.793 105.379L806.177 107.101C808.372 104.062 812.091 101.495 817.531 99.5005L816.519 96.7395ZM803.817 105.347C801.179 108.796 799.874 112.85 799.874 117.44H802.815C802.815 113.444 803.937 110.03 806.153 107.133L803.817 105.347ZM799.874 117.44C799.874 122.951 802.151 127.481 806.606 130.923L808.404 128.597C804.645 125.692 802.815 122.009 802.815 117.44H799.874ZM806.64 130.949C810.931 134.07 816.521 136.559 823.351 138.457L824.138 135.623C817.529 133.787 812.292 131.423 808.37 128.571L806.64 130.949ZM823.351 138.457C830.094 140.33 837.488 142.202 845.532 144.072L846.198 141.208C838.188 139.345 830.835 137.484 824.138 135.623L823.351 138.457ZM845.539 144.074C853.719 145.933 861.806 148.071 869.799 150.487L870.65 147.673C862.59 145.236 854.437 143.08 846.191 141.206L845.539 144.074ZM869.808 150.49C877.909 152.884 885.257 156.1 891.858 160.135L893.391 157.625C886.553 153.446 878.967 150.13 870.641 147.67L869.808 150.49ZM891.858 160.135C898.379 164.12 903.625 169.366 907.61 175.887L910.119 174.353C905.891 167.434 900.31 161.854 893.391 157.625L891.858 160.135ZM907.626 175.912C911.73 182.336 913.834 190.534 913.834 200.6H916.775C916.775 190.132 914.586 181.344 910.104 174.328L907.626 175.912ZM913.834 200.6C913.834 211.32 910.842 221.114 904.845 230.019L907.284 231.661C913.607 222.272 916.775 211.906 916.775 200.6H913.834ZM904.845 230.019C898.868 238.893 889.865 246.108 877.736 251.621L878.953 254.299C891.465 248.612 900.941 241.08 907.284 231.661L904.845 230.019ZM877.729 251.625C865.849 257.108 850.678 259.89 832.145 259.89V262.83C850.945 262.83 866.574 260.012 878.961 254.295L877.729 251.625ZM980.179 253.8L979.65 255.172L979.657 255.174L980.179 253.8ZM946.019 232.52L945.001 233.58L945.006 233.585L945.011 233.59L946.019 232.52ZM923.619 200.32L922.266 200.894L922.269 200.903L922.273 200.911L923.619 200.32ZM923.619 119.68L922.273 119.089L922.269 119.097L922.266 119.106L923.619 119.68ZM980.459 66.2L979.93 64.8282L979.93 64.8282L980.459 66.2ZM1065.58 66.2L1065.04 67.5692L1065.05 67.5718L1065.58 66.2ZM1099.46 87.48L1098.44 88.5403L1098.45 88.5452L1098.45 88.5501L1099.46 87.48ZM1122.14 119.68L1120.79 120.271L1120.8 120.279L1122.14 119.68ZM1122.14 200.6L1123.49 201.191L1123.49 201.184L1122.14 200.6ZM1099.46 232.8L1100.47 233.871L1100.47 233.87L1099.46 232.8ZM1065.58 253.8L1065.05 252.428L1065.04 252.431L1065.58 253.8ZM1047.1 218.24L1046.55 216.875L1046.54 216.88L1047.1 218.24ZM1066.7 205.36L1065.66 204.32L1065.66 204.32L1066.7 205.36ZM1079.58 185.48L1078.22 184.917L1078.22 184.931L1078.21 184.945L1079.58 185.48ZM1079.58 134.52L1078.21 135.055L1078.22 135.069L1078.22 135.083L1079.58 134.52ZM1066.7 114.64L1065.64 115.662L1065.65 115.671L1065.66 115.68L1066.7 114.64ZM1047.38 101.76L1046.83 103.125L1046.83 103.125L1047.38 101.76ZM998.659 101.76L998.113 100.395L998.101 100.4L998.659 101.76ZM979.339 114.64L980.379 115.68L980.379 115.68L979.339 114.64ZM966.179 134.52L964.821 133.957L964.815 133.971L964.81 133.985L966.179 134.52ZM966.179 185.48L964.805 186.003L964.813 186.023L964.821 186.043L966.179 185.48ZM979.059 205.36L978.002 206.382L978.011 206.391L978.02 206.4L979.059 205.36ZM998.659 218.24L998.113 219.605L998.113 219.605L998.659 218.24ZM1023.3 259.89C1007.97 259.89 993.774 257.397 980.702 252.426L979.657 255.174C993.092 260.283 1007.64 262.83 1023.3 262.83V259.89ZM980.709 252.428C967.811 247.453 956.589 240.459 947.028 231.45L945.011 233.59C954.863 242.874 966.415 250.067 979.65 255.172L980.709 252.428ZM947.038 231.46C937.66 222.449 930.303 211.876 924.965 199.729L922.273 200.911C927.762 213.404 935.339 224.298 945.001 233.58L947.038 231.46ZM924.973 199.746C919.83 187.623 917.25 174.38 917.25 160H914.309C914.309 174.74 916.956 188.377 922.266 200.894L924.973 199.746ZM917.25 160C917.25 145.62 919.83 132.377 924.973 120.254L922.266 119.106C916.956 131.623 914.309 145.26 914.309 160H917.25ZM924.965 120.271C930.3 108.13 937.746 97.5602 947.308 88.5501L945.291 86.4099C935.439 95.6931 927.765 106.59 922.273 119.089L924.965 120.271ZM947.308 88.5501C956.869 79.5406 968.091 72.5467 980.989 67.5718L979.93 64.8282C966.695 69.9332 955.143 77.1261 945.291 86.4099L947.308 88.5501ZM980.989 67.5718C993.871 62.6027 1007.88 60.1103 1023.02 60.1103V57.1697C1007.55 57.1697 993.181 59.7172 979.93 64.8282L980.989 67.5718ZM1023.02 60.1103C1038.35 60.1103 1052.35 62.6036 1065.04 67.5692L1066.12 64.8307C1053.05 59.7164 1038.67 57.1697 1023.02 57.1697V60.1103ZM1065.05 67.5718C1077.95 72.5459 1089.07 79.537 1098.44 88.5403L1100.48 86.4197C1090.81 77.1296 1079.35 69.9341 1066.11 64.8282L1065.05 67.5718ZM1098.45 88.5501C1108.01 97.5602 1115.46 108.13 1120.79 120.271L1123.49 119.089C1117.99 106.59 1110.32 95.6931 1100.47 86.4099L1098.45 88.5501ZM1120.8 120.279C1126.12 132.204 1128.79 145.437 1128.79 160H1131.73C1131.73 145.07 1128.99 131.423 1123.48 119.081L1120.8 120.279ZM1128.79 160C1128.79 174.373 1126.12 187.706 1120.79 200.016L1123.49 201.184C1128.99 188.481 1131.73 174.747 1131.73 160H1128.79ZM1120.79 200.009C1115.46 212.15 1108.01 222.72 1098.45 231.73L1100.47 233.87C1110.32 224.587 1117.99 213.69 1123.49 201.191L1120.79 200.009ZM1098.45 231.729C1089.08 240.55 1077.95 247.452 1065.05 252.428L1066.11 255.172C1079.34 250.068 1090.8 242.97 1100.47 233.871L1098.45 231.729ZM1065.04 252.431C1052.35 257.397 1038.44 259.89 1023.3 259.89V262.83C1038.77 262.83 1053.05 260.283 1066.12 255.169L1065.04 252.431ZM1023.02 224.19C1031.96 224.19 1040.18 222.668 1047.66 219.6L1046.54 216.88C1039.46 219.786 1031.62 221.25 1023.02 221.25V224.19ZM1047.65 219.605C1055.29 216.546 1062 212.143 1067.74 206.4L1065.66 204.32C1060.2 209.777 1053.84 213.961 1046.55 216.875L1047.65 219.605ZM1067.74 206.4C1073.49 200.651 1077.89 193.85 1080.95 186.015L1078.21 184.945C1075.29 192.417 1071.11 198.869 1065.66 204.32L1067.74 206.4ZM1080.94 186.043C1084.19 178.19 1085.81 169.502 1085.81 160H1082.87C1082.87 169.164 1081.31 177.463 1078.22 184.917L1080.94 186.043ZM1085.81 160C1085.81 150.498 1084.19 141.81 1080.94 133.957L1078.22 135.083C1081.31 142.537 1082.87 150.836 1082.87 160H1085.81ZM1080.95 133.985C1077.89 126.15 1073.49 119.349 1067.74 113.6L1065.66 115.68C1071.11 121.131 1075.29 127.583 1078.21 135.055L1080.95 133.985ZM1067.76 113.618C1062.19 107.864 1055.58 103.456 1047.93 100.395L1046.83 103.125C1054.11 106.037 1060.38 110.216 1065.64 115.662L1067.76 113.618ZM1047.93 100.395C1040.27 97.3326 1031.96 95.8097 1023.02 95.8097V98.7503C1031.62 98.7503 1039.56 100.214 1046.83 103.125L1047.93 100.395ZM1023.02 95.8097C1014.08 95.8097 1005.77 97.3326 998.113 100.395L999.205 103.125C1006.48 100.214 1014.42 98.7503 1023.02 98.7503V95.8097ZM998.101 100.4C990.64 103.461 984.036 107.863 978.3 113.6L980.379 115.68C985.842 110.216 992.119 106.033 999.217 103.12L998.101 100.4ZM978.3 113.6C972.557 119.343 968.065 126.134 964.821 133.957L967.538 135.083C970.641 127.6 974.922 121.137 980.379 115.68L978.3 113.6ZM964.81 133.985C961.748 141.831 960.229 150.508 960.229 160H963.17C963.17 150.825 964.637 142.516 967.549 135.055L964.81 133.985ZM960.229 160C960.229 169.309 961.749 177.982 964.805 186.003L967.553 184.957C964.636 177.298 963.17 168.984 963.17 160H960.229ZM964.821 186.043C968.061 193.856 972.453 200.641 978.002 206.382L980.117 204.338C974.839 198.879 970.645 192.411 967.538 184.917L964.821 186.043ZM978.02 206.4C983.763 212.143 990.465 216.546 998.113 219.605L999.205 216.875C991.921 213.961 985.556 209.777 980.099 204.32L978.02 206.4ZM998.113 219.605C1005.77 222.667 1014.08 224.19 1023.02 224.19V221.25C1014.42 221.25 1006.48 219.786 999.205 216.875L998.113 219.605ZM1146.15 258H1144.68V259.47H1146.15V258ZM1146.15 62V60.5296H1144.68V62H1146.15ZM1191.51 62H1192.98V60.5296H1191.51V62ZM1191.51 221.04H1190.04V222.51H1191.51V221.04ZM1289.79 221.04H1291.26V219.57H1289.79V221.04ZM1289.79 258V259.47H1291.26V258H1289.79ZM1147.62 258V62H1144.68V258H1147.62ZM1146.15 63.4703H1191.51V60.5296H1146.15V63.4703ZM1190.04 62V221.04H1192.98V62H1190.04ZM1191.51 222.51H1289.79V219.57H1191.51V222.51ZM1288.32 221.04V258H1291.26V221.04H1288.32ZM1289.79 256.53H1146.15V259.47H1289.79V256.53Z" fill="url(#paint0_linear_173_85)" mask="url(#path-1-outside-1_173_85)"/>
</g>
<defs>
<linearGradient id="paint0_linear_173_85" x1="712.669" y1="-21.8605" x2="712.669" y2="268.884" gradientUnits="userSpaceOnUse">
<stop stop-color="#AAAAAA"/>
<stop offset="1" stop-color="white" stop-opacity="0.08"/>
</linearGradient>
</defs>
</svg>