<svg width="24" height="24" viewBox="0 0 24 24" fill="none" xmlns="http://www.w3.org/2000/svg">
<path d="M10.0684 14.1119C10.0684 14.7959 10.6684 15.3359 11.4004 15.3359C12.1324 15.3359 12.7324 14.7839 12.7324 14.1119C12.7324 13.4279 12.1324 12.8879 11.4004 12.8879C10.6684 12.8759 10.0684 13.4279 10.0684 14.1119ZM10.0684 9.73194C10.0684 10.4159 10.6684 10.9559 11.4004 10.9559C12.1324 10.9559 12.7324 10.4039 12.7324 9.73194C12.7324 9.04794 12.1324 8.50794 11.4004 8.50794C10.6684 8.50794 10.0684 9.04794 10.0684 9.73194Z" fill="#9097A6"/>
<path d="M0 3.89945L0 19.9795C0 21.3355 1.104 22.4395 2.472 22.4395H18.696C20.064 22.4395 21.168 21.3355 21.168 19.9795V6.37145L18.948 7.00745L20.376 5.47145L21.72 4.01945L24 1.43945H2.472C1.104 1.43945 0 2.54345 0 3.89945ZM15.672 8.53145C15.672 8.53145 15.156 8.96345 14.7 9.32345C14.256 7.75145 13.272 7.15145 13.272 7.15145C13.596 7.64345 13.824 8.11145 13.98 8.53145C14.232 9.13145 14.4 9.70745 14.496 10.2715C14.712 11.4235 14.652 12.4795 14.484 13.3795C14.352 14.0635 14.16 14.6515 13.968 15.1435C13.86 15.4195 13.728 15.7195 13.56 16.0195C13.536 16.0555 13.524 16.0915 13.5 16.1275C13.488 16.1515 13.476 16.1635 13.464 16.1755C13.344 16.3915 13.26 16.5115 13.26 16.5115C13.26 16.5115 14.22 15.9355 14.676 14.4115C15.132 14.7715 15.672 15.2155 15.672 15.2155C15.588 17.8675 13.848 18.8755 13.848 18.8755C9.984 18.8755 6.852 17.1475 6.852 17.1475C5.556 15.4195 5.592 13.7755 5.592 13.7755L5.736 13.6555C6.36 15.8155 7.308 16.8115 7.308 16.8115C7.308 16.8115 7.164 16.5475 6.96 16.1035C6.396 14.8195 6.24 13.7995 6.204 13.3795C6.192 13.3075 6.18 13.2475 6.18 13.1755C6.084 12.4435 6.06 11.6155 6.156 10.7515C6.288 9.61145 6.624 8.38745 7.308 7.13945C7.308 7.13945 6.408 8.08745 5.784 10.1275L5.592 9.95945C5.592 9.95945 5.556 8.31545 6.852 6.58745C6.852 6.58745 9.984 4.85945 13.848 4.85945C13.848 4.85945 15.588 5.87945 15.672 8.53145Z" fill="#9097A6"/>
</svg>
