<?xml version="1.0" standalone="no"?>
<svg id="Octasol" width="1283" height="206" viewBox="0 0 1283 206" fill="none" xmlns="http://www.w3.org/2000/svg" style="max-width: 100%; max-height: 100%;">
<g opacity="0.4">
<mask id="path-1-outside-1_173_85" maskUnits="userSpaceOnUse" x="0" y="0" width="1283" height="206" fill="black">
<rect fill="white" width="1283" height="206" stroke-dasharray="0,0,0,2978"><animate attributeType="XML" attributeName="stroke-dasharray" repeatCount="1" dur="1.3888888888888888s" values="0,0,0,2978; 
          0,1489,1489,0; 
          2978,0,0,0" keyTimes="0; 0.5; 1" fill="freeze"></animate></rect>
<path d="M109.44 204.36C93.9467 204.36 79.5733 201.84 66.32 196.8C53.2533 191.76 41.8667 184.667 32.16 175.52C22.64 166.373 15.1733 155.64 9.76 143.32C4.53333 131 1.92 117.56 1.92 103C1.92 88.44 4.53333 75 9.76 62.68C15.1733 50.36 22.7333 39.6267 32.44 30.48C42.1467 21.3333 53.5333 14.24 66.6 9.19998C79.6667 4.15999 93.8533 1.64 109.16 1.64C124.653 1.64 138.84 4.15999 151.72 9.19998C164.787 14.24 176.08 21.3333 185.6 30.48C195.307 39.6267 202.867 50.36 208.28 62.68C213.693 74.8133 216.4 88.2533 216.4 103C216.4 117.56 213.693 131.093 208.28 143.6C202.867 155.92 195.307 166.653 185.6 175.8C176.08 184.76 164.787 191.76 151.72 196.8C138.84 201.84 124.747 204.36 109.44 204.36ZM109.16 165.72C117.933 165.72 125.96 164.227 133.24 161.24C140.707 158.253 147.24 153.96 152.84 148.36C158.44 142.76 162.733 136.133 165.72 128.48C168.893 120.827 170.48 112.333 170.48 103C170.48 93.6667 168.893 85.1733 165.72 77.52C162.733 69.8667 158.44 63.24 152.84 57.64C147.427 52.04 140.987 47.7467 133.52 44.76C126.053 41.7733 117.933 40.28 109.16 40.28C100.387 40.28 92.2667 41.7733 84.8 44.76C77.52 47.7467 71.08 52.04 65.48 57.64C59.88 63.24 55.4933 69.8667 52.32 77.52C49.3333 85.1733 47.84 93.6667 47.84 103C47.84 112.147 49.3333 120.64 52.32 128.48C55.4933 136.133 59.7867 142.76 65.2 148.36C70.8 153.96 77.3333 158.253 84.8 161.24C92.2667 164.227 100.387 165.72 109.16 165.72ZM326.09 204.36C310.97 204.36 296.877 201.933 283.81 197.08C270.93 192.04 259.73 184.947 250.21 175.8C240.69 166.653 233.223 155.92 227.81 143.6C222.583 131.28 219.97 117.747 219.97 103C219.97 88.2533 222.583 74.72 227.81 62.4C233.223 50.08 240.69 39.3467 250.21 30.2C259.917 21.0533 271.21 14.0533 284.09 9.19998C296.97 4.15999 311.063 1.64 326.37 1.64C343.357 1.64 358.663 4.62666 372.29 10.6C386.103 16.3867 397.677 24.9733 407.01 36.36L377.89 63.24C371.17 55.5867 363.703 49.8933 355.49 46.16C347.277 42.24 338.317 40.28 328.61 40.28C319.463 40.28 311.063 41.7733 303.41 44.76C295.757 47.7467 289.13 52.04 283.53 57.64C277.93 63.24 273.543 69.8667 270.37 77.52C267.383 85.1733 265.89 93.6667 265.89 103C265.89 112.333 267.383 120.827 270.37 128.48C273.543 136.133 277.93 142.76 283.53 148.36C289.13 153.96 295.757 158.253 303.41 161.24C311.063 164.227 319.463 165.72 328.61 165.72C338.317 165.72 347.277 163.853 355.49 160.12C363.703 156.2 371.17 150.32 377.89 142.48L407.01 169.36C397.677 180.747 386.103 189.427 372.29 195.4C358.663 201.373 343.263 204.36 326.09 204.36ZM458.128 201V41.96H395.408V4.99999H566.208V41.96H503.488V201H458.128ZM536.81 201L624.17 4.99999H668.97L756.61 201H709.01L637.33 27.96H655.25L583.29 201H536.81ZM580.49 159L592.53 124.56H693.33L705.65 159H580.49ZM823.145 204.36C807.465 204.36 792.438 202.307 778.065 198.2C763.691 193.907 752.118 188.4 743.345 181.68L758.745 147.52C767.145 153.493 777.038 158.44 788.425 162.36C799.998 166.093 811.665 167.96 823.425 167.96C832.385 167.96 839.571 167.12 844.985 165.44C850.585 163.573 854.691 161.053 857.305 157.88C859.918 154.707 861.225 151.067 861.225 146.96C861.225 141.733 859.171 137.627 855.065 134.64C850.958 131.467 845.545 128.947 838.825 127.08C832.105 125.027 824.638 123.16 816.425 121.48C808.398 119.613 800.278 117.373 792.065 114.76C784.038 112.147 776.665 108.787 769.945 104.68C763.225 100.573 757.718 95.16 753.425 88.44C749.318 81.72 747.265 73.1333 747.265 62.68C747.265 51.48 750.251 41.3067 756.225 32.16C762.385 22.8267 771.531 15.4533 783.665 10.04C795.985 4.43999 811.385 1.64 829.865 1.64C842.185 1.64 854.318 3.13333 866.265 6.11999C878.211 8.91999 888.758 13.2133 897.905 19L883.905 53.44C874.758 48.2133 865.611 44.3867 856.465 41.96C847.318 39.3467 838.358 38.04 829.585 38.04C820.811 38.04 813.625 39.0667 808.025 41.12C802.425 43.1733 798.411 45.88 795.985 49.24C793.558 52.4133 792.345 56.1467 792.345 60.44C792.345 65.48 794.398 69.5867 798.505 72.76C802.611 75.7467 808.025 78.1733 814.745 80.04C821.465 81.9067 828.838 83.7733 836.865 85.64C845.078 87.5067 853.198 89.6533 861.225 92.08C869.438 94.5067 876.905 97.7733 883.625 101.88C890.345 105.987 895.758 111.4 899.865 118.12C904.158 124.84 906.305 133.333 906.305 143.6C906.305 154.613 903.225 164.693 897.065 173.84C890.905 182.987 881.665 190.36 869.345 195.96C857.211 201.56 841.811 204.36 823.145 204.36ZM1014.3 204.36C998.806 204.36 984.433 201.84 971.179 196.8C958.113 191.76 946.726 184.667 937.019 175.52C927.499 166.373 920.033 155.64 914.619 143.32C909.393 131 906.779 117.56 906.779 103C906.779 88.44 909.393 75 914.619 62.68C920.033 50.36 927.593 39.6267 937.299 30.48C947.006 21.3333 958.393 14.24 971.459 9.19998C984.526 4.15999 998.713 1.64 1014.02 1.64C1029.51 1.64 1043.7 4.15999 1056.58 9.19998C1069.65 14.24 1080.94 21.3333 1090.46 30.48C1100.17 39.6267 1107.73 50.36 1113.14 62.68C1118.55 74.8133 1121.26 88.2533 1121.26 103C1121.26 117.56 1118.55 131.093 1113.14 143.6C1107.73 155.92 1100.17 166.653 1090.46 175.8C1080.94 184.76 1069.65 191.76 1056.58 196.8C1043.7 201.84 1029.61 204.36 1014.3 204.36ZM1014.02 165.72C1022.79 165.72 1030.82 164.227 1038.1 161.24C1045.57 158.253 1052.1 153.96 1057.7 148.36C1063.3 142.76 1067.59 136.133 1070.58 128.48C1073.75 120.827 1075.34 112.333 1075.34 103C1075.34 93.6667 1073.75 85.1733 1070.58 77.52C1067.59 69.8667 1063.3 63.24 1057.7 57.64C1052.29 52.04 1045.85 47.7467 1038.38 44.76C1030.91 41.7733 1022.79 40.28 1014.02 40.28C1005.25 40.28 997.126 41.7733 989.659 44.76C982.379 47.7467 975.939 52.04 970.339 57.64C964.739 63.24 960.353 69.8667 957.179 77.52C954.193 85.1733 952.699 93.6667 952.699 103C952.699 112.147 954.193 120.64 957.179 128.48C960.353 136.133 964.646 142.76 970.059 148.36C975.659 153.96 982.193 158.253 989.659 161.24C997.126 164.227 1005.25 165.72 1014.02 165.72ZM1137.15 201V4.99999H1182.51V164.04H1280.79V201H1137.15Z" stroke-dasharray="0,0,0,6674.00341796875"><animate attributeType="XML" attributeName="stroke-dasharray" repeatCount="1" dur="1.3888888888888888s" values="0,0,0,6674.00341796875; 
          0,3337.001708984375,3337.001708984375,0; 
          6674.00341796875,0,0,0" keyTimes="0; 0.5; 1" fill="freeze"></animate></path>
</mask>
<path d="M66.32 196.8L65.7909 198.172L65.7974 198.174L66.32 196.8ZM32.16 175.52L31.1413 176.58L31.1465 176.585L31.1516 176.59L32.16 175.52ZM9.76 143.32L8.40643 143.894L8.4101 143.903L8.41388 143.911L9.76 143.32ZM9.76 62.68L8.41388 62.0885L8.4101 62.0971L8.40643 62.1058L9.76 62.68ZM66.6 9.19998L66.0709 7.82815L66.0709 7.82815L66.6 9.19998ZM151.72 9.19998L151.184 10.5692L151.191 10.5718L151.72 9.19998ZM185.6 30.48L184.581 31.5403L184.586 31.5452L184.592 31.5501L185.6 30.48ZM208.28 62.68L206.934 63.2715L206.937 63.2791L208.28 62.68ZM208.28 143.6L209.626 144.191L209.629 144.184L208.28 143.6ZM185.6 175.8L186.608 176.871L186.608 176.87L185.6 175.8ZM151.72 196.8L151.191 195.428L151.184 195.431L151.72 196.8ZM133.24 161.24L132.694 159.875L132.682 159.88L133.24 161.24ZM152.84 148.36L151.8 147.32L151.8 147.32L152.84 148.36ZM165.72 128.48L164.362 127.917L164.356 127.931L164.35 127.945L165.72 128.48ZM165.72 77.52L164.35 78.0545L164.356 78.0689L164.362 78.0832L165.72 77.52ZM152.84 57.64L151.783 58.6619L151.792 58.6709L151.8 58.6797L152.84 57.64ZM133.52 44.76L132.974 46.1252L132.974 46.1252L133.52 44.76ZM84.8 44.76L84.2539 43.3948L84.2419 43.3997L84.8 44.76ZM65.48 57.64L66.5197 58.6797L66.5197 58.6797L65.48 57.64ZM52.32 77.52L50.9618 76.9568L50.9559 76.9711L50.9503 76.9855L52.32 77.52ZM52.32 128.48L50.946 129.003L50.9536 129.023L50.9618 129.043L52.32 128.48ZM65.2 148.36L64.1428 149.382L64.1515 149.391L64.1603 149.4L65.2 148.36ZM84.8 161.24L84.2539 162.605L84.2539 162.605L84.8 161.24ZM109.44 202.89C94.1087 202.89 79.9142 200.397 66.8426 195.426L65.7974 198.174C79.2325 203.283 93.7846 205.83 109.44 205.83V202.89ZM66.8491 195.428C53.9512 190.453 42.7295 183.459 33.1684 174.45L31.1516 176.59C41.0039 185.874 52.5555 193.067 65.7909 198.172L66.8491 195.428ZM33.1787 174.46C23.8002 165.449 16.4436 154.876 11.1061 142.729L8.41388 143.911C13.9031 156.404 21.4798 167.298 31.1413 176.58L33.1787 174.46ZM11.1136 142.746C5.97051 130.623 3.39034 117.38 3.39034 103H0.449661C0.449661 117.74 3.09615 131.377 8.40643 143.894L11.1136 142.746ZM3.39034 103C3.39034 88.6198 5.97051 75.3771 11.1136 63.2542L8.40643 62.1058C3.09615 74.6228 0.449661 88.2602 0.449661 103H3.39034ZM11.1061 63.2715C16.4408 51.1304 23.8866 40.5602 33.4484 31.5501L31.4316 29.4099C21.5801 38.6931 13.9058 49.5896 8.41388 62.0885L11.1061 63.2715ZM33.4484 31.5501C43.0095 22.5406 54.2312 15.5467 67.1291 10.5718L66.0709 7.82815C52.8355 12.9332 41.2839 20.1261 31.4316 29.4099L33.4484 31.5501ZM67.1291 10.5718C80.0119 5.60274 94.0174 3.11034 109.16 3.11034V0.169657C93.6893 0.169657 79.3214 2.71725 66.0709 7.82815L67.1291 10.5718ZM109.16 3.11034C124.492 3.11034 138.494 5.6036 151.184 10.5692L152.256 7.83074C139.186 2.71639 124.815 0.169657 109.16 0.169657V3.11034ZM151.191 10.5718C164.087 15.5459 175.211 22.537 184.581 31.5403L186.619 29.4197C176.949 20.1296 165.487 12.9341 152.249 7.82815L151.191 10.5718ZM184.592 31.5501C194.153 40.5602 201.599 51.1304 206.934 63.2715L209.626 62.0885C204.134 49.5896 196.46 38.6931 186.608 29.4099L184.592 31.5501ZM206.937 63.2791C212.258 75.2041 214.93 88.4369 214.93 103H217.87C217.87 88.0697 215.129 74.4226 209.623 62.0809L206.937 63.2791ZM214.93 103C214.93 117.373 212.259 130.706 206.931 143.016L209.629 144.184C215.128 131.481 217.87 117.747 217.87 103H214.93ZM206.934 143.009C201.599 155.15 194.153 165.72 184.592 174.73L186.608 176.87C196.46 167.587 204.134 156.69 209.626 144.191L206.934 143.009ZM184.592 174.729C175.22 183.55 164.093 190.452 151.191 195.428L152.249 198.172C165.481 193.068 176.94 185.97 186.608 176.871L184.592 174.729ZM151.184 195.431C138.492 200.397 124.583 202.89 109.44 202.89V205.83C124.91 205.83 139.188 203.283 152.256 198.169L151.184 195.431ZM109.16 167.19C118.103 167.19 126.322 165.668 133.798 162.6L132.682 159.88C125.598 162.786 117.764 164.25 109.16 164.25V167.19ZM133.786 162.605C141.435 159.546 148.137 155.143 153.88 149.4L151.8 147.32C146.343 152.777 139.979 156.961 132.694 159.875L133.786 162.605ZM153.88 149.4C159.629 143.651 164.032 136.85 167.09 129.015L164.35 127.945C161.435 135.417 157.251 141.869 151.8 147.32L153.88 149.4ZM167.078 129.043C170.334 121.19 171.95 112.502 171.95 103H169.01C169.01 112.164 167.452 120.463 164.362 127.917L167.078 129.043ZM171.95 103C171.95 93.4978 170.334 84.8099 167.078 76.9568L164.362 78.0832C167.452 85.5367 169.01 93.8355 169.01 103H171.95ZM167.09 76.9855C164.032 69.15 159.629 62.3495 153.88 56.6003L151.8 58.6797C157.251 64.1305 161.435 70.5833 164.35 78.0545L167.09 76.9855ZM153.897 56.6181C148.335 50.864 141.719 46.456 134.066 43.3948L132.974 46.1252C140.254 49.0373 146.518 53.216 151.783 58.6619L153.897 56.6181ZM134.066 43.3948C126.411 40.3326 118.103 38.8097 109.16 38.8097V41.7503C117.763 41.7503 125.696 43.2141 132.974 46.1252L134.066 43.3948ZM109.16 38.8097C100.217 38.8097 91.9095 40.3326 84.2539 43.3948L85.3461 46.1252C92.6239 43.2141 100.557 41.7503 109.16 41.7503V38.8097ZM84.2419 43.3997C76.7805 46.4608 70.1771 50.8635 64.4403 56.6003L66.5197 58.6797C71.9829 53.2165 78.2595 49.0326 85.3581 46.1203L84.2419 43.3997ZM64.4403 56.6003C58.6976 62.343 54.2055 69.1337 50.9618 76.9568L53.6782 78.0832C56.7811 70.5997 61.0624 64.137 66.5197 58.6797L64.4403 56.6003ZM50.9503 76.9855C47.8887 84.8307 46.3697 93.5085 46.3697 103H49.3103C49.3103 93.8249 50.778 85.5159 53.6897 78.0545L50.9503 76.9855ZM46.3697 103C46.3697 112.309 47.8901 120.982 50.946 129.003L53.694 127.957C50.7765 120.298 49.3103 111.984 49.3103 103H46.3697ZM50.9618 129.043C54.2012 136.856 58.5933 143.641 64.1428 149.382L66.2572 147.338C60.9801 141.879 56.7854 135.411 53.6782 127.917L50.9618 129.043ZM64.1603 149.4C69.9033 155.143 76.6053 159.546 84.2539 162.605L85.3461 159.875C78.0614 156.961 71.6967 152.777 66.2397 147.32L64.1603 149.4ZM84.2539 162.605C91.9095 165.667 100.217 167.19 109.16 167.19V164.25C100.557 164.25 92.6239 162.786 85.3461 159.875L84.2539 162.605ZM283.81 197.08L283.274 198.449L283.286 198.454L283.298 198.458L283.81 197.08ZM250.21 175.8L249.191 176.86L249.191 176.86L250.21 175.8ZM227.81 143.6L226.456 144.174L226.46 144.183L226.464 144.191L227.81 143.6ZM227.81 62.4L226.464 61.8085L226.46 61.8171L226.456 61.8257L227.81 62.4ZM250.21 30.2L249.202 29.1299L249.196 29.1348L249.191 29.1397L250.21 30.2ZM284.09 9.19998L284.608 10.5759L284.617 10.5726L284.626 10.5692L284.09 9.19998ZM372.29 10.6L371.7 11.9466L371.711 11.9515L371.722 11.9561L372.29 10.6ZM407.01 36.36L408.007 37.4404L409.026 36.5001L408.147 35.4279L407.01 36.36ZM377.89 63.24L376.785 64.2101L377.78 65.3428L378.887 64.3204L377.89 63.24ZM355.49 46.16L354.857 47.4869L354.869 47.4929L354.882 47.4985L355.49 46.16ZM283.53 57.64L284.57 58.6797L284.57 58.6797L283.53 57.64ZM270.37 77.52L269.012 76.9568L269.006 76.9711L269 76.9855L270.37 77.52ZM270.37 128.48L269 129.015L269.006 129.029L269.012 129.043L270.37 128.48ZM283.53 148.36L282.49 149.4L282.49 149.4L283.53 148.36ZM355.49 160.12L356.098 161.459L356.111 161.453L356.123 161.447L355.49 160.12ZM377.89 142.48L378.887 141.4L377.766 140.365L376.774 141.523L377.89 142.48ZM407.01 169.36L408.147 170.292L409.026 169.22L408.007 168.28L407.01 169.36ZM372.29 195.4L371.706 194.05L371.7 194.053L372.29 195.4ZM326.09 202.89C311.13 202.89 297.211 200.489 284.322 195.702L283.298 198.458C296.542 203.377 310.81 205.83 326.09 205.83V202.89ZM284.346 195.711C271.637 190.738 260.603 183.746 251.229 174.74L249.191 176.86C258.857 186.147 270.223 193.342 283.274 198.449L284.346 195.711ZM251.229 174.74C241.85 165.729 234.494 155.156 229.156 143.009L226.464 144.191C231.953 156.684 239.53 167.578 249.191 176.86L251.229 174.74ZM229.164 143.026C224.021 130.905 221.44 117.57 221.44 103H218.5C218.5 117.924 221.145 131.655 226.456 144.174L229.164 143.026ZM221.44 103C221.44 88.4304 224.021 75.0949 229.164 62.9742L226.456 61.8257C221.145 74.3451 218.5 88.0762 218.5 103H221.44ZM229.156 62.9915C234.494 50.8442 241.85 40.271 251.229 31.2603L249.191 29.1397C239.53 38.4223 231.953 49.3158 226.464 61.8085L229.156 62.9915ZM251.218 31.2701C260.779 22.261 271.904 15.3629 284.608 10.5759L283.572 7.82408C270.516 12.7437 259.054 19.8456 249.202 29.1299L251.218 31.2701ZM284.626 10.5692C297.318 5.60281 311.227 3.11034 326.37 3.11034V0.169657C310.9 0.169657 296.622 2.71717 283.554 7.83074L284.626 10.5692ZM326.37 3.11034C343.182 3.11034 358.284 6.06566 371.7 11.9466L372.88 9.25336C359.043 3.18766 343.531 0.169657 326.37 0.169657V3.11034ZM371.722 11.9561C385.318 17.6517 396.694 26.0944 405.873 37.2921L408.147 35.4279C398.659 23.8522 386.889 15.1216 372.858 9.24385L371.722 11.9561ZM406.013 35.2796L376.893 62.1596L378.887 64.3204L408.007 37.4404L406.013 35.2796ZM378.995 62.2699C372.155 54.4801 364.525 48.6515 356.098 44.8214L354.882 47.4985C362.882 51.1352 370.185 56.6932 376.785 64.2101L378.995 62.2699ZM356.123 44.833C347.699 40.8124 338.521 38.8097 328.61 38.8097V41.7503C338.112 41.7503 346.854 43.6676 354.857 47.4869L356.123 44.833ZM328.61 38.8097C319.301 38.8097 310.717 40.33 302.875 43.3903L303.945 46.1297C311.409 43.2167 319.626 41.7503 328.61 41.7503V38.8097ZM302.875 43.3903C295.04 46.448 288.239 50.8511 282.49 56.6003L284.57 58.6797C290.021 53.2288 296.473 49.0453 303.945 46.1297L302.875 43.3903ZM282.49 56.6003C276.748 62.343 272.256 69.1337 269.012 76.9568L271.728 78.0832C274.831 70.5997 279.112 64.137 284.57 58.6797L282.49 56.6003ZM269 76.9855C265.939 84.8307 264.42 93.5085 264.42 103H267.36C267.36 93.8249 268.828 85.5159 271.74 78.0545L269 76.9855ZM264.42 103C264.42 112.492 265.939 121.169 269 129.015L271.74 127.945C268.828 120.484 267.36 112.175 267.36 103H264.42ZM269.012 129.043C272.256 136.866 276.748 143.657 282.49 149.4L284.57 147.32C279.112 141.863 274.831 135.4 271.728 127.917L269.012 129.043ZM282.49 149.4C288.239 155.149 295.04 159.552 302.875 162.61L303.945 159.87C296.473 156.955 290.021 152.771 284.57 147.32L282.49 149.4ZM302.875 162.61C310.717 165.67 319.301 167.19 328.61 167.19V164.25C319.626 164.25 311.409 162.783 303.945 159.87L302.875 162.61ZM328.61 167.19C338.51 167.19 347.68 165.285 356.098 161.459L354.882 158.781C346.874 162.421 338.123 164.25 328.61 164.25V167.19ZM356.123 161.447C364.545 157.427 372.171 151.412 379.006 143.437L376.774 141.523C370.169 149.228 362.862 154.973 354.857 158.793L356.123 161.447ZM376.893 143.56L406.013 170.44L408.007 168.28L378.887 141.4L376.893 143.56ZM405.873 168.428C396.692 179.629 385.31 188.168 371.706 194.05L372.874 196.75C386.897 190.685 398.662 181.864 408.147 170.292L405.873 168.428ZM371.7 194.053C358.286 199.933 343.091 202.89 326.09 202.89V205.83C343.435 205.83 359.041 202.813 372.88 196.747L371.7 194.053ZM458.128 201H456.657V202.47H458.128V201ZM458.128 41.96H459.598V40.4897H458.128V41.96ZM395.408 41.96H393.937V43.4303H395.408V41.96ZM395.408 4.99999V3.52965H393.937V4.99999H395.408ZM566.208 4.99999H567.678V3.52965H566.208V4.99999ZM566.208 41.96V43.4303H567.678V41.96H566.208ZM503.488 41.96V40.4897H502.017V41.96H503.488ZM503.488 201V202.47H504.958V201H503.488ZM459.598 201V41.96H456.657V201H459.598ZM458.128 40.4897H395.408V43.4303H458.128V40.4897ZM396.878 41.96V4.99999H393.937V41.96H396.878ZM395.408 6.47033H566.208V3.52965H395.408V6.47033ZM564.737 4.99999V41.96H567.678V4.99999H564.737ZM566.208 40.4897H503.488V43.4303H566.208V40.4897ZM502.017 41.96V201H504.958V41.96H502.017ZM503.488 199.53H458.128V202.47H503.488V199.53ZM536.81 201L535.467 200.401L534.545 202.47H536.81V201ZM624.17 4.99999V3.52965H623.215L622.827 4.4014L624.17 4.99999ZM668.97 4.99999L670.312 4.3998L669.923 3.52965H668.97V4.99999ZM756.61 201V202.47H758.878L757.952 200.4L756.61 201ZM709.01 201L707.651 201.563L708.027 202.47H709.01V201ZM637.33 27.96V26.4897H635.129L635.971 28.5227L637.33 27.96ZM655.25 27.96L656.607 28.5246L657.454 26.4897H655.25V27.96ZM583.29 201V202.47H584.271L584.647 201.565L583.29 201ZM580.49 159L579.102 158.515L578.418 160.47H580.49V159ZM592.53 124.56V123.09H591.486L591.142 124.075L592.53 124.56ZM693.33 124.56L694.714 124.065L694.365 123.09H693.33V124.56ZM705.65 159V160.47H707.737L707.034 158.505L705.65 159ZM538.153 201.599L625.513 5.59857L622.827 4.4014L535.467 200.401L538.153 201.599ZM624.17 6.47033H668.97V3.52965H624.17V6.47033ZM667.627 5.60017L755.267 201.6L757.952 200.4L670.312 4.3998L667.627 5.60017ZM756.61 199.53H709.01V202.47H756.61V199.53ZM710.368 200.437L638.688 27.3973L635.971 28.5227L707.651 201.563L710.368 200.437ZM637.33 29.4303H655.25V26.4897H637.33V29.4303ZM653.892 27.3954L581.932 200.435L584.647 201.565L656.607 28.5246L653.892 27.3954ZM583.29 199.53H536.81V202.47H583.29V199.53ZM581.878 159.485L593.918 125.045L591.142 124.075L579.102 158.515L581.878 159.485ZM592.53 126.03H693.33V123.09H592.53V126.03ZM691.945 125.055L704.265 159.495L707.034 158.505L694.714 124.065L691.945 125.055ZM705.65 157.53H580.49V160.47H705.65V157.53ZM778.065 198.2L777.644 199.609L777.652 199.611L777.661 199.614L778.065 198.2ZM743.345 181.68L742.004 181.076L741.525 182.138L742.451 182.847L743.345 181.68ZM758.745 147.52L759.597 146.322L758.139 145.285L757.404 146.916L758.745 147.52ZM788.425 162.36L787.946 163.75L787.96 163.755L787.973 163.759L788.425 162.36ZM844.985 165.44L845.421 166.844L845.435 166.84L845.45 166.835L844.985 165.44ZM857.305 157.88L856.17 156.945L856.17 156.945L857.305 157.88ZM855.065 134.64L854.166 135.803L854.183 135.817L854.2 135.829L855.065 134.64ZM838.825 127.08L838.395 128.486L838.413 128.492L838.431 128.497L838.825 127.08ZM816.425 121.48L816.092 122.912L816.111 122.917L816.13 122.921L816.425 121.48ZM792.065 114.76L791.609 116.158L791.619 116.161L792.065 114.76ZM769.945 104.68L769.178 105.935L769.178 105.935L769.945 104.68ZM753.425 88.44L752.17 89.2067L752.178 89.2192L752.186 89.2316L753.425 88.44ZM756.225 32.16L754.998 31.3501L754.994 31.356L756.225 32.16ZM783.665 10.04L784.264 11.3828L784.273 11.3785L783.665 10.04ZM866.265 6.11999L865.908 7.54643L865.919 7.54906L865.929 7.55154L866.265 6.11999ZM897.905 19L899.267 19.5537L899.73 18.4148L898.691 17.7574L897.905 19ZM883.905 53.44L883.175 54.7166L884.634 55.5502L885.267 53.9937L883.905 53.44ZM856.465 41.96L856.061 43.3738L856.074 43.3776L856.088 43.3812L856.465 41.96ZM808.025 41.12L807.519 39.7395L807.519 39.7395L808.025 41.12ZM795.985 49.24L797.153 50.1331L797.165 50.1172L797.177 50.1009L795.985 49.24ZM798.505 72.76L797.606 73.9234L797.623 73.9365L797.64 73.9491L798.505 72.76ZM814.745 80.04L814.351 81.4567L814.351 81.4567L814.745 80.04ZM836.865 85.64L836.532 87.0721L836.539 87.0738L836.865 85.64ZM861.225 92.08L860.799 93.4874L860.808 93.4901L861.225 92.08ZM883.625 101.88L884.391 100.625L884.391 100.625L883.625 101.88ZM899.865 118.12L898.61 118.887L898.618 118.899L898.626 118.912L899.865 118.12ZM897.065 173.84L898.284 174.661L898.284 174.661L897.065 173.84ZM869.345 195.96L868.736 194.621L868.729 194.625L869.345 195.96ZM823.145 202.89C807.595 202.89 792.704 200.854 778.469 196.786L777.661 199.614C792.172 203.76 807.335 205.83 823.145 205.83V202.89ZM778.486 196.791C764.226 192.532 752.83 187.093 744.239 180.513L742.451 182.847C751.406 189.707 763.157 195.281 777.644 199.609L778.486 196.791ZM744.685 182.284L760.085 148.124L757.404 146.916L742.004 181.076L744.685 182.284ZM757.893 148.718C766.425 154.785 776.448 159.792 787.946 163.75L788.903 160.97C777.628 157.088 767.865 152.201 759.597 146.322L757.893 148.718ZM787.973 163.759C799.687 167.538 811.506 169.43 823.425 169.43V166.49C811.823 166.49 800.309 164.649 788.876 160.961L787.973 163.759ZM823.425 169.43C832.457 169.43 839.809 168.586 845.421 166.844L844.549 164.036C839.334 165.654 832.312 166.49 823.425 166.49V169.43ZM845.45 166.835C851.203 164.917 855.59 162.275 858.44 158.815L856.17 156.945C853.793 159.832 849.966 162.23 844.52 164.045L845.45 166.835ZM858.44 158.815C861.27 155.378 862.695 151.408 862.695 146.96H859.754C859.754 150.725 858.566 154.035 856.17 156.945L858.44 158.815ZM862.695 146.96C862.695 141.279 860.43 136.724 855.93 133.451L854.2 135.829C857.913 138.53 859.754 142.187 859.754 146.96H862.695ZM855.964 133.477C851.664 130.154 846.062 127.564 839.218 125.663L838.431 128.497C845.027 130.329 850.252 132.779 854.166 135.803L855.964 133.477ZM839.254 125.674C832.482 123.605 824.97 121.727 816.719 120.039L816.13 122.921C824.306 124.593 831.727 126.449 838.395 128.486L839.254 125.674ZM816.758 120.048C808.771 118.19 800.688 115.961 792.511 113.359L791.619 116.161C799.868 118.786 808.025 121.036 816.092 122.912L816.758 120.048ZM792.52 113.362C784.595 110.782 777.327 107.468 770.711 103.425L769.178 105.935C776.003 110.105 783.482 113.512 791.61 116.158L792.52 113.362ZM770.711 103.425C764.184 99.4367 758.838 94.1826 754.664 87.6484L752.186 89.2316C756.598 96.1374 762.265 101.71 769.178 105.935L770.711 103.425ZM754.679 87.6733C750.753 81.248 748.735 72.949 748.735 62.68H745.794C745.794 73.3177 747.883 82.192 752.17 89.2067L754.679 87.6733ZM748.735 62.68C748.735 51.7579 751.643 41.8652 757.456 32.964L754.994 31.356C748.86 40.7481 745.794 51.2021 745.794 62.68H748.735ZM757.452 32.9699C763.431 23.9113 772.338 16.7037 784.264 11.3827L783.066 8.69723C770.725 14.2029 761.339 21.742 754.998 31.3501L757.452 32.9699ZM784.273 11.3785C796.346 5.89102 811.522 3.11034 829.865 3.11034V0.169657C811.247 0.169657 795.624 2.98897 783.056 8.70144L784.273 11.3785ZM829.865 3.11034C842.065 3.11034 854.078 4.58894 865.908 7.54643L866.621 4.69355C854.558 1.67772 842.305 0.169657 829.865 0.169657V3.11034ZM865.929 7.55154C877.737 10.319 888.128 14.5544 897.119 20.2425L898.691 17.7574C889.388 11.8722 878.685 7.52093 866.6 4.68844L865.929 7.55154ZM896.543 18.4463L882.543 52.8863L885.267 53.9937L899.267 19.5537L896.543 18.4463ZM884.634 52.1634C875.389 46.8805 866.125 43.0016 856.842 40.5388L856.088 43.3812C865.098 45.7717 874.127 49.5462 883.175 54.7166L884.634 52.1634ZM856.869 40.5462C847.602 37.8985 838.506 36.5697 829.585 36.5697V39.5103C838.21 39.5103 847.034 40.7948 856.061 43.3738L856.869 40.5462ZM829.585 36.5697C820.712 36.5697 813.338 37.6058 807.519 39.7395L808.531 42.5005C813.912 40.5275 820.91 39.5103 829.585 39.5103V36.5697ZM807.519 39.7395C801.759 41.8515 797.451 44.6982 794.793 48.3791L797.177 50.1009C799.372 47.0618 803.091 44.4952 808.531 42.5005L807.519 39.7395ZM794.817 48.3468C792.179 51.7963 790.874 55.8495 790.874 60.44H793.815C793.815 56.4438 794.937 53.0303 797.153 50.1331L794.817 48.3468ZM790.874 60.44C790.874 65.951 793.151 70.4814 797.606 73.9234L799.404 71.5965C795.645 68.692 793.815 65.009 793.815 60.44H790.874ZM797.64 73.9491C801.931 77.0699 807.521 79.5593 814.351 81.4567L815.138 78.6233C808.529 76.7873 803.292 74.4234 799.37 71.5709L797.64 73.9491ZM814.351 81.4567C821.094 83.3298 828.488 85.2016 836.532 87.0721L837.198 84.2079C829.188 82.3451 821.835 80.4835 815.138 78.6233L814.351 81.4567ZM836.539 87.0738C844.719 88.9329 852.806 91.0707 860.799 93.4874L861.65 90.6726C853.59 88.2359 845.437 86.0805 837.191 84.2062L836.539 87.0738ZM860.808 93.4901C868.909 95.8836 876.257 99.1004 882.858 103.135L884.391 100.625C877.553 96.4463 869.967 93.1298 861.641 90.6699L860.808 93.4901ZM882.858 103.135C889.379 107.12 894.625 112.366 898.61 118.887L901.119 117.353C896.891 110.434 891.31 104.854 884.391 100.625L882.858 103.135ZM898.626 118.912C902.73 125.336 904.834 133.534 904.834 143.6H907.775C907.775 133.132 905.586 124.344 901.104 117.328L898.626 118.912ZM904.834 143.6C904.834 154.32 901.842 164.114 895.845 173.019L898.284 174.661C904.607 165.272 907.775 154.906 907.775 143.6H904.834ZM895.845 173.019C889.868 181.893 880.865 189.108 868.736 194.621L869.953 197.299C882.465 191.612 891.941 184.08 898.284 174.661L895.845 173.019ZM868.729 194.625C856.849 200.108 841.678 202.89 823.145 202.89V205.83C841.945 205.83 857.574 203.012 869.961 197.295L868.729 194.625ZM971.179 196.8L970.65 198.172L970.657 198.174L971.179 196.8ZM937.019 175.52L936.001 176.58L936.006 176.585L936.011 176.59L937.019 175.52ZM914.619 143.32L913.266 143.894L913.269 143.903L913.273 143.911L914.619 143.32ZM914.619 62.68L913.273 62.0885L913.269 62.0971L913.266 62.1058L914.619 62.68ZM971.459 9.19998L970.93 7.82815L970.93 7.82815L971.459 9.19998ZM1056.58 9.19998L1056.04 10.5692L1056.05 10.5718L1056.58 9.19998ZM1090.46 30.48L1089.44 31.5403L1089.45 31.5452L1089.45 31.5501L1090.46 30.48ZM1113.14 62.68L1111.79 63.2715L1111.8 63.2791L1113.14 62.68ZM1113.14 143.6L1114.49 144.191L1114.49 144.184L1113.14 143.6ZM1090.46 175.8L1091.47 176.871L1091.47 176.87L1090.46 175.8ZM1056.58 196.8L1056.05 195.428L1056.04 195.431L1056.58 196.8ZM1038.1 161.24L1037.55 159.875L1037.54 159.88L1038.1 161.24ZM1057.7 148.36L1056.66 147.32L1056.66 147.32L1057.7 148.36ZM1070.58 128.48L1069.22 127.917L1069.22 127.931L1069.21 127.945L1070.58 128.48ZM1070.58 77.52L1069.21 78.0545L1069.22 78.0689L1069.22 78.0832L1070.58 77.52ZM1057.7 57.64L1056.64 58.6619L1056.65 58.6709L1056.66 58.6797L1057.7 57.64ZM1038.38 44.76L1037.83 46.1252L1037.83 46.1252L1038.38 44.76ZM989.659 44.76L989.113 43.3948L989.101 43.3997L989.659 44.76ZM970.339 57.64L971.379 58.6797L971.379 58.6797L970.339 57.64ZM957.179 77.52L955.821 76.9568L955.815 76.9711L955.81 76.9855L957.179 77.52ZM957.179 128.48L955.805 129.003L955.813 129.023L955.821 129.043L957.179 128.48ZM970.059 148.36L969.002 149.382L969.011 149.391L969.02 149.4L970.059 148.36ZM989.659 161.24L989.113 162.605L989.113 162.605L989.659 161.24ZM1014.3 202.89C998.968 202.89 984.774 200.397 971.702 195.426L970.657 198.174C984.092 203.283 998.644 205.83 1014.3 205.83V202.89ZM971.709 195.428C958.811 190.453 947.589 183.459 938.028 174.45L936.011 176.59C945.863 185.874 957.415 193.067 970.65 198.172L971.709 195.428ZM938.038 174.46C928.66 165.449 921.303 154.876 915.965 142.729L913.273 143.911C918.762 156.404 926.339 167.298 936.001 176.58L938.038 174.46ZM915.973 142.746C910.83 130.623 908.25 117.38 908.25 103H905.309C905.309 117.74 907.956 131.377 913.266 143.894L915.973 142.746ZM908.25 103C908.25 88.6198 910.83 75.3771 915.973 63.2542L913.266 62.1058C907.956 74.6228 905.309 88.2602 905.309 103H908.25ZM915.965 63.2715C921.3 51.1304 928.746 40.5602 938.308 31.5501L936.291 29.4099C926.439 38.6931 918.765 49.5896 913.273 62.0885L915.965 63.2715ZM938.308 31.5501C947.869 22.5406 959.091 15.5467 971.989 10.5718L970.93 7.82815C957.695 12.9332 946.143 20.1261 936.291 29.4099L938.308 31.5501ZM971.989 10.5718C984.871 5.60274 998.877 3.11034 1014.02 3.11034V0.169657C998.549 0.169657 984.181 2.71725 970.93 7.82815L971.989 10.5718ZM1014.02 3.11034C1029.35 3.11034 1043.35 5.6036 1056.04 10.5692L1057.12 7.83074C1044.05 2.71639 1029.67 0.169657 1014.02 0.169657V3.11034ZM1056.05 10.5718C1068.95 15.5459 1080.07 22.537 1089.44 31.5403L1091.48 29.4197C1081.81 20.1296 1070.35 12.9341 1057.11 7.82815L1056.05 10.5718ZM1089.45 31.5501C1099.01 40.5602 1106.46 51.1304 1111.79 63.2715L1114.49 62.0885C1108.99 49.5896 1101.32 38.6931 1091.47 29.4099L1089.45 31.5501ZM1111.8 63.2791C1117.12 75.2041 1119.79 88.4369 1119.79 103H1122.73C1122.73 88.0697 1119.99 74.4226 1114.48 62.0809L1111.8 63.2791ZM1119.79 103C1119.79 117.373 1117.12 130.706 1111.79 143.016L1114.49 144.184C1119.99 131.481 1122.73 117.747 1122.73 103H1119.79ZM1111.79 143.009C1106.46 155.15 1099.01 165.72 1089.45 174.73L1091.47 176.87C1101.32 167.587 1108.99 156.69 1114.49 144.191L1111.79 143.009ZM1089.45 174.729C1080.08 183.55 1068.95 190.452 1056.05 195.428L1057.11 198.172C1070.34 193.068 1081.8 185.97 1091.47 176.871L1089.45 174.729ZM1056.04 195.431C1043.35 200.397 1029.44 202.89 1014.3 202.89V205.83C1029.77 205.83 1044.05 203.283 1057.12 198.169L1056.04 195.431ZM1014.02 167.19C1022.96 167.19 1031.18 165.668 1038.66 162.6L1037.54 159.88C1030.46 162.786 1022.62 164.25 1014.02 164.25V167.19ZM1038.65 162.605C1046.29 159.546 1053 155.143 1058.74 149.4L1056.66 147.32C1051.2 152.777 1044.84 156.961 1037.55 159.875L1038.65 162.605ZM1058.74 149.4C1064.49 143.651 1068.89 136.85 1071.95 129.015L1069.21 127.945C1066.29 135.417 1062.11 141.869 1056.66 147.32L1058.74 149.4ZM1071.94 129.043C1075.19 121.19 1076.81 112.502 1076.81 103H1073.87C1073.87 112.164 1072.31 120.463 1069.22 127.917L1071.94 129.043ZM1076.81 103C1076.81 93.4978 1075.19 84.8099 1071.94 76.9568L1069.22 78.0832C1072.31 85.5367 1073.87 93.8355 1073.87 103H1076.81ZM1071.95 76.9855C1068.89 69.15 1064.49 62.3495 1058.74 56.6003L1056.66 58.6797C1062.11 64.1305 1066.29 70.5833 1069.21 78.0545L1071.95 76.9855ZM1058.76 56.6181C1053.19 50.864 1046.58 46.456 1038.93 43.3948L1037.83 46.1252C1045.11 49.0373 1051.38 53.216 1056.64 58.6619L1058.76 56.6181ZM1038.93 43.3948C1031.27 40.3326 1022.96 38.8097 1014.02 38.8097V41.7503C1022.62 41.7503 1030.56 43.2141 1037.83 46.1252L1038.93 43.3948ZM1014.02 38.8097C1005.08 38.8097 996.769 40.3326 989.113 43.3948L990.205 46.1252C997.483 43.2141 1005.42 41.7503 1014.02 41.7503V38.8097ZM989.101 43.3997C981.64 46.4608 975.036 50.8635 969.3 56.6003L971.379 58.6797C976.842 53.2165 983.119 49.0326 990.217 46.1203L989.101 43.3997ZM969.3 56.6003C963.557 62.343 959.065 69.1337 955.821 76.9568L958.538 78.0832C961.641 70.5997 965.922 64.137 971.379 58.6797L969.3 56.6003ZM955.81 76.9855C952.748 84.8307 951.229 93.5085 951.229 103H954.17C954.17 93.8249 955.637 85.5159 958.549 78.0545L955.81 76.9855ZM951.229 103C951.229 112.309 952.749 120.982 955.805 129.003L958.553 127.957C955.636 120.298 954.17 111.984 954.17 103H951.229ZM955.821 129.043C959.061 136.856 963.453 143.641 969.002 149.382L971.117 147.338C965.839 141.879 961.645 135.411 958.538 127.917L955.821 129.043ZM969.02 149.4C974.763 155.143 981.465 159.546 989.113 162.605L990.205 159.875C982.921 156.961 976.556 152.777 971.099 147.32L969.02 149.4ZM989.113 162.605C996.769 165.667 1005.08 167.19 1014.02 167.19V164.25C1005.42 164.25 997.483 162.786 990.205 159.875L989.113 162.605ZM1137.15 201H1135.68V202.47H1137.15V201ZM1137.15 4.99999V3.52965H1135.68V4.99999H1137.15ZM1182.51 4.99999H1183.98V3.52965H1182.51V4.99999ZM1182.51 164.04H1181.04V165.51H1182.51V164.04ZM1280.79 164.04H1282.26V162.57H1280.79V164.04ZM1280.79 201V202.47H1282.26V201H1280.79ZM1138.62 201V4.99999H1135.68V201H1138.62ZM1137.15 6.47033H1182.51V3.52965H1137.15V6.47033ZM1181.04 4.99999V164.04H1183.98V4.99999H1181.04ZM1182.51 165.51H1280.79V162.57H1182.51V165.51ZM1279.32 164.04V201H1282.26V164.04H1279.32ZM1280.79 199.53H1137.15V202.47H1280.79V199.53Z" fill="url(#paint0_linear_173_85)" mask="url(#path-1-outside-1_173_85)" stroke-dasharray="0,0,0,14692.947265625"><animate attributeType="XML" attributeName="stroke-dasharray" repeatCount="1" dur="1.3888888888888888s" values="0,0,0,14692.947265625; 
          0,7346.4736328125,7346.4736328125,0; 
          14692.947265625,0,0,0" keyTimes="0; 0.5; 1" fill="freeze"></animate></path>
</g>
<defs>
<linearGradient id="paint0_linear_173_85" x1="703.669" y1="-78.8605" x2="703.669" y2="211.884" gradientUnits="userSpaceOnUse">
<stop stop-color="#AAAAAA"></stop>
<stop offset="1" stop-color="white" stop-opacity="0.08"></stop>
</linearGradient>
</defs>
</svg>