<svg width="1288" height="212" viewBox="0 0 1288 212" fill="none" xmlns="http://www.w3.org/2000/svg">
<g opacity="0.4">
<mask id="path-1-outside-1_47_102" maskUnits="userSpaceOnUse" x="0" y="0" width="1288" height="212" fill="black">
<rect fill="white" width="1288" height="212"/>
<path d="M112.44 207.36C96.9467 207.36 82.5733 204.84 69.32 199.8C56.2533 194.76 44.8667 187.667 35.16 178.52C25.64 169.373 18.1733 158.64 12.76 146.32C7.53333 134 4.92 120.56 4.92 106C4.92 91.44 7.53333 78 12.76 65.68C18.1733 53.36 25.7333 42.6267 35.44 33.48C45.1467 24.3333 56.5333 17.24 69.6 12.2C82.6667 7.15999 96.8533 4.64 112.16 4.64C127.653 4.64 141.84 7.15999 154.72 12.2C167.787 17.24 179.08 24.3333 188.6 33.48C198.307 42.6267 205.867 53.36 211.28 65.68C216.693 77.8133 219.4 91.2533 219.4 106C219.4 120.56 216.693 134.093 211.28 146.6C205.867 158.92 198.307 169.653 188.6 178.8C179.08 187.76 167.787 194.76 154.72 199.8C141.84 204.84 127.747 207.36 112.44 207.36ZM112.16 168.72C120.933 168.72 128.96 167.227 136.24 164.24C143.707 161.253 150.24 156.96 155.84 151.36C161.44 145.76 165.733 139.133 168.72 131.48C171.893 123.827 173.48 115.333 173.48 106C173.48 96.6667 171.893 88.1733 168.72 80.52C165.733 72.8667 161.44 66.24 155.84 60.64C150.427 55.04 143.987 50.7467 136.52 47.76C129.053 44.7733 120.933 43.28 112.16 43.28C103.387 43.28 95.2667 44.7733 87.8 47.76C80.52 50.7467 74.08 55.04 68.48 60.64C62.88 66.24 58.4933 72.8667 55.32 80.52C52.3333 88.1733 50.84 96.6667 50.84 106C50.84 115.147 52.3333 123.64 55.32 131.48C58.4933 139.133 62.7867 145.76 68.2 151.36C73.8 156.96 80.3333 161.253 87.8 164.24C95.2667 167.227 103.387 168.72 112.16 168.72ZM329.09 207.36C313.97 207.36 299.877 204.933 286.81 200.08C273.93 195.04 262.73 187.947 253.21 178.8C243.69 169.653 236.223 158.92 230.81 146.6C225.583 134.28 222.97 120.747 222.97 106C222.97 91.2533 225.583 77.72 230.81 65.4C236.223 53.08 243.69 42.3467 253.21 33.2C262.917 24.0533 274.21 17.0533 287.09 12.2C299.97 7.15999 314.063 4.64 329.37 4.64C346.357 4.64 361.663 7.62666 375.29 13.6C389.103 19.3867 400.677 27.9733 410.01 39.36L380.89 66.24C374.17 58.5867 366.703 52.8933 358.49 49.16C350.277 45.24 341.317 43.28 331.61 43.28C322.463 43.28 314.063 44.7733 306.41 47.76C298.757 50.7467 292.13 55.04 286.53 60.64C280.93 66.24 276.543 72.8667 273.37 80.52C270.383 88.1733 268.89 96.6667 268.89 106C268.89 115.333 270.383 123.827 273.37 131.48C276.543 139.133 280.93 145.76 286.53 151.36C292.13 156.96 298.757 161.253 306.41 164.24C314.063 167.227 322.463 168.72 331.61 168.72C341.317 168.72 350.277 166.853 358.49 163.12C366.703 159.2 374.17 153.32 380.89 145.48L410.01 172.36C400.677 183.747 389.103 192.427 375.29 198.4C361.663 204.373 346.263 207.36 329.09 207.36ZM461.128 204V44.96H398.408V7.99999H569.208V44.96H506.488V204H461.128ZM539.81 204L627.17 7.99999H671.97L759.61 204H712.01L640.33 30.96H658.25L586.29 204H539.81ZM583.49 162L595.53 127.56H696.33L708.65 162H583.49ZM826.145 207.36C810.465 207.36 795.438 205.307 781.065 201.2C766.691 196.907 755.118 191.4 746.345 184.68L761.745 150.52C770.145 156.493 780.038 161.44 791.425 165.36C802.998 169.093 814.665 170.96 826.425 170.96C835.385 170.96 842.571 170.12 847.985 168.44C853.585 166.573 857.691 164.053 860.305 160.88C862.918 157.707 864.225 154.067 864.225 149.96C864.225 144.733 862.171 140.627 858.065 137.64C853.958 134.467 848.545 131.947 841.825 130.08C835.105 128.027 827.638 126.16 819.425 124.48C811.398 122.613 803.278 120.373 795.065 117.76C787.038 115.147 779.665 111.787 772.945 107.68C766.225 103.573 760.718 98.16 756.425 91.44C752.318 84.72 750.265 76.1333 750.265 65.68C750.265 54.48 753.251 44.3067 759.225 35.16C765.385 25.8267 774.531 18.4533 786.665 13.04C798.985 7.43999 814.385 4.64 832.865 4.64C845.185 4.64 857.318 6.13333 869.265 9.11999C881.211 11.92 891.758 16.2133 900.905 22L886.905 56.44C877.758 51.2133 868.611 47.3867 859.465 44.96C850.318 42.3467 841.358 41.04 832.585 41.04C823.811 41.04 816.625 42.0667 811.025 44.12C805.425 46.1733 801.411 48.88 798.985 52.24C796.558 55.4133 795.345 59.1467 795.345 63.44C795.345 68.48 797.398 72.5867 801.505 75.76C805.611 78.7467 811.025 81.1733 817.745 83.04C824.465 84.9067 831.838 86.7733 839.865 88.64C848.078 90.5067 856.198 92.6533 864.225 95.08C872.438 97.5067 879.905 100.773 886.625 104.88C893.345 108.987 898.758 114.4 902.865 121.12C907.158 127.84 909.305 136.333 909.305 146.6C909.305 157.613 906.225 167.693 900.065 176.84C893.905 185.987 884.665 193.36 872.345 198.96C860.211 204.56 844.811 207.36 826.145 207.36ZM1017.3 207.36C1001.81 207.36 987.433 204.84 974.179 199.8C961.113 194.76 949.726 187.667 940.019 178.52C930.499 169.373 923.033 158.64 917.619 146.32C912.393 134 909.779 120.56 909.779 106C909.779 91.44 912.393 78 917.619 65.68C923.033 53.36 930.593 42.6267 940.299 33.48C950.006 24.3333 961.393 17.24 974.459 12.2C987.526 7.15999 1001.71 4.64 1017.02 4.64C1032.51 4.64 1046.7 7.15999 1059.58 12.2C1072.65 17.24 1083.94 24.3333 1093.46 33.48C1103.17 42.6267 1110.73 53.36 1116.14 65.68C1121.55 77.8133 1124.26 91.2533 1124.26 106C1124.26 120.56 1121.55 134.093 1116.14 146.6C1110.73 158.92 1103.17 169.653 1093.46 178.8C1083.94 187.76 1072.65 194.76 1059.58 199.8C1046.7 204.84 1032.61 207.36 1017.3 207.36ZM1017.02 168.72C1025.79 168.72 1033.82 167.227 1041.1 164.24C1048.57 161.253 1055.1 156.96 1060.7 151.36C1066.3 145.76 1070.59 139.133 1073.58 131.48C1076.75 123.827 1078.34 115.333 1078.34 106C1078.34 96.6667 1076.75 88.1733 1073.58 80.52C1070.59 72.8667 1066.3 66.24 1060.7 60.64C1055.29 55.04 1048.85 50.7467 1041.38 47.76C1033.91 44.7733 1025.79 43.28 1017.02 43.28C1008.25 43.28 1000.13 44.7733 992.659 47.76C985.379 50.7467 978.939 55.04 973.339 60.64C967.739 66.24 963.353 72.8667 960.179 80.52C957.193 88.1733 955.699 96.6667 955.699 106C955.699 115.147 957.193 123.64 960.179 131.48C963.353 139.133 967.646 145.76 973.059 151.36C978.659 156.96 985.193 161.253 992.659 164.24C1000.13 167.227 1008.25 168.72 1017.02 168.72ZM1140.15 204V7.99999H1185.51V167.04H1283.79V204H1140.15Z"/>
</mask>
<path d="M69.32 199.8L67.8805 203.532L67.8894 203.535L67.8982 203.539L69.32 199.8ZM35.16 178.52L32.3887 181.404L32.4027 181.418L32.4168 181.431L35.16 178.52ZM12.76 146.32L9.07767 147.882L9.08765 147.906L9.09792 147.929L12.76 146.32ZM12.76 65.68L9.09792 64.0709L9.08765 64.0943L9.07767 64.1178L12.76 65.68ZM69.6 12.2L68.1605 8.46798L68.1605 8.46798L69.6 12.2ZM154.72 12.2L153.262 15.925L153.271 15.9285L153.281 15.932L154.72 12.2ZM188.6 33.48L185.829 36.3644L185.843 36.3778L185.857 36.3911L188.6 33.48ZM211.28 65.68L207.618 67.2891L207.622 67.2994L207.627 67.3098L211.28 65.68ZM211.28 146.6L214.942 148.209L214.947 148.199L214.951 148.189L211.28 146.6ZM188.6 178.8L191.341 181.713L191.343 181.711L188.6 178.8ZM154.72 199.8L153.281 196.068L153.271 196.071L153.262 196.075L154.72 199.8ZM136.24 164.24L134.754 160.526L134.738 160.533L134.722 160.539L136.24 164.24ZM155.84 151.36L153.012 148.532L153.012 148.532L155.84 151.36ZM168.72 131.48L165.025 129.948L165.009 129.987L164.994 130.026L168.72 131.48ZM168.72 80.52L164.994 81.9742L165.009 82.0133L165.025 82.0521L168.72 80.52ZM155.84 60.64L152.964 63.4201L152.988 63.4445L153.012 63.4684L155.84 60.64ZM136.52 47.76L135.034 51.4739L135.034 51.4739L136.52 47.76ZM87.8 47.76L86.3144 44.0461L86.2981 44.0526L86.2818 44.0593L87.8 47.76ZM68.48 60.64L71.3084 63.4684L71.3084 63.4684L68.48 60.64ZM55.32 80.52L51.625 78.9879L51.609 79.0267L51.5937 79.0658L55.32 80.52ZM55.32 131.48L51.5821 132.904L51.6028 132.958L51.625 133.012L55.32 131.48ZM68.2 151.36L65.3241 154.14L65.3476 154.164L65.3716 154.188L68.2 151.36ZM87.8 164.24L86.3144 167.954L86.3144 167.954L87.8 164.24ZM112.44 203.36C97.3874 203.36 83.5007 200.913 70.7418 196.061L67.8982 203.539C81.646 208.767 96.5059 211.36 112.44 211.36V203.36ZM70.7595 196.068C58.1519 191.205 47.2139 184.382 37.9032 175.609L32.4168 181.431C42.5195 190.951 54.3548 198.315 67.8805 203.532L70.7595 196.068ZM37.9313 175.636C28.7962 166.859 21.629 156.561 16.4221 144.711L9.09792 147.929C14.7177 160.719 22.4838 171.888 32.3887 181.404L37.9313 175.636ZM16.4423 144.758C11.4431 132.974 8.92 120.071 8.92 106H0.92C0.92 121.049 3.62355 135.026 9.07767 147.882L16.4423 144.758ZM8.92 106C8.92 91.9292 11.4431 79.026 16.4423 67.2422L9.07767 64.1178C3.62355 76.974 0.92 90.9508 0.92 106H8.92ZM16.4221 67.2891C21.6215 55.4558 28.8707 45.1664 38.1832 36.3911L32.6968 30.5688C22.596 40.0869 14.7251 51.2642 9.09792 64.0709L16.4221 67.2891ZM38.1832 36.3911C47.4939 27.6176 58.4319 20.7949 71.0395 15.932L68.1605 8.46798C54.6348 13.685 42.7995 21.049 32.6968 30.5688L38.1832 36.3911ZM71.0395 15.932C83.606 11.0849 97.2997 8.64 112.16 8.64V0.639997C96.407 0.639997 81.7274 3.23506 68.1605 8.46798L71.0395 15.932ZM112.16 8.64C127.214 8.64 140.899 11.0873 153.262 15.925L156.178 8.47501C142.781 3.23272 128.092 0.639997 112.16 0.639997V8.64ZM153.281 15.932C165.882 20.7925 176.715 27.608 185.829 36.3644L191.371 30.5956C181.445 21.0586 169.691 13.6874 156.159 8.46798L153.281 15.932ZM185.857 36.3911C195.169 45.1664 202.418 55.4558 207.618 67.2891L214.942 64.0709C209.315 51.2642 201.444 40.0869 191.343 30.5688L185.857 36.3911ZM207.627 67.3098C212.788 78.8764 215.4 91.7529 215.4 106H223.4C223.4 90.7538 220.599 76.7502 214.933 64.0502L207.627 67.3098ZM215.4 106C215.4 120.051 212.791 133.04 207.609 145.011L214.951 148.189C220.596 135.147 223.4 121.069 223.4 106H215.4ZM207.618 144.991C202.418 156.824 195.169 167.114 185.857 175.889L191.343 181.711C201.444 172.193 209.315 161.016 214.942 148.209L207.618 144.991ZM185.859 175.887C176.742 184.468 165.899 191.201 153.281 196.068L156.159 203.532C169.674 198.319 181.418 191.052 191.341 181.713L185.859 175.887ZM153.262 196.075C140.894 200.915 127.301 203.36 112.44 203.36V211.36C128.192 211.36 142.786 208.765 156.178 203.525L153.262 196.075ZM112.16 172.72C121.394 172.72 129.944 171.146 137.758 167.941L134.722 160.539C127.976 163.307 120.472 164.72 112.16 164.72V172.72ZM137.726 167.954C145.687 164.769 152.679 160.177 158.668 154.188L153.012 148.532C147.801 153.742 141.726 157.737 134.754 160.526L137.726 167.954ZM158.668 154.188C164.674 148.183 169.266 141.083 172.446 132.934L164.994 130.026C162.2 137.184 158.206 143.337 153.012 148.532L158.668 154.188ZM172.415 133.012C175.814 124.815 177.48 115.793 177.48 106H169.48C169.48 114.874 167.973 122.838 165.025 129.948L172.415 133.012ZM177.48 106C177.48 96.2072 175.814 87.1847 172.415 78.9879L165.025 82.0521C167.973 89.162 169.48 97.1261 169.48 106H177.48ZM172.446 79.0658C169.266 70.917 164.674 63.8173 158.668 57.8116L153.012 63.4684C158.206 68.6627 162.2 74.8164 164.994 81.9742L172.446 79.0658ZM158.716 57.8599C152.897 51.8407 145.979 47.2354 138.006 44.0461L135.034 51.4739C141.994 54.2579 147.956 58.2393 152.964 63.4201L158.716 57.8599ZM138.006 44.0461C130.025 40.8539 121.396 39.28 112.16 39.28V47.28C120.471 47.28 128.082 48.6928 135.034 51.4739L138.006 44.0461ZM112.16 39.28C102.924 39.28 94.2949 40.8539 86.3144 44.0461L89.2856 51.4739C96.2384 48.6928 103.849 47.28 112.16 47.28V39.28ZM86.2818 44.0593C78.5083 47.2484 71.6237 51.8394 65.6516 57.8116L71.3084 63.4684C76.5363 58.2406 82.5317 54.2449 89.3182 51.4607L86.2818 44.0593ZM65.6516 57.8116C59.6634 63.7997 54.9899 70.8726 51.625 78.9879L59.015 82.0521C61.9967 74.8607 66.0966 68.6803 71.3084 63.4684L65.6516 57.8116ZM51.5937 79.0658C48.4033 87.2413 46.84 96.2363 46.84 106H54.84C54.84 97.0971 56.2634 89.1053 59.0463 81.9742L51.5937 79.0658ZM46.84 106C46.84 115.589 48.4071 124.57 51.5821 132.904L59.058 130.056C56.2595 122.71 54.84 114.704 54.84 106H46.84ZM51.625 133.012C54.9783 141.099 59.54 148.157 65.3241 154.14L71.076 148.58C66.0333 143.363 62.0084 137.167 59.015 129.948L51.625 133.012ZM65.3716 154.188C71.3607 160.177 78.3528 164.769 86.3144 167.954L89.2856 160.526C82.3139 157.737 76.2394 153.742 71.0284 148.532L65.3716 154.188ZM86.3144 167.954C94.2949 171.146 102.924 172.72 112.16 172.72V164.72C103.849 164.72 96.2384 163.307 89.2856 160.526L86.3144 167.954ZM286.81 200.08L285.352 203.805L285.385 203.818L285.417 203.83L286.81 200.08ZM253.21 178.8L250.439 181.684L250.439 181.684L253.21 178.8ZM230.81 146.6L227.128 148.162L227.138 148.186L227.148 148.209L230.81 146.6ZM230.81 65.4L227.148 63.7909L227.138 63.8143L227.128 63.8378L230.81 65.4ZM253.21 33.2L250.467 30.2888L250.453 30.3021L250.439 30.3156L253.21 33.2ZM287.09 12.2L288.5 15.9431L288.524 15.9342L288.548 15.925L287.09 12.2ZM375.29 13.6L373.684 17.2635L373.714 17.2767L373.744 17.2893L375.29 13.6ZM410.01 39.36L412.723 42.2992L415.494 39.7411L413.104 36.8243L410.01 39.36ZM380.89 66.24L377.884 68.8792L380.59 71.9606L383.603 69.1792L380.89 66.24ZM358.49 49.16L356.767 52.7699L356.801 52.786L356.835 52.8015L358.49 49.16ZM286.53 60.64L289.358 63.4684L289.358 63.4684L286.53 60.64ZM273.37 80.52L269.675 78.9879L269.659 79.0267L269.644 79.0658L273.37 80.52ZM273.37 131.48L269.644 132.934L269.659 132.973L269.675 133.012L273.37 131.48ZM286.53 151.36L283.702 154.188L283.702 154.188L286.53 151.36ZM358.49 163.12L360.145 166.761L360.179 166.746L360.213 166.73L358.49 163.12ZM380.89 145.48L383.603 142.541L380.554 139.726L377.853 142.877L380.89 145.48ZM410.01 172.36L413.104 174.896L415.494 171.979L412.723 169.421L410.01 172.36ZM375.29 198.4L373.702 194.729L373.693 194.733L373.684 194.737L375.29 198.4ZM329.09 203.36C314.405 203.36 300.787 201.005 288.203 196.33L285.417 203.83C298.966 208.862 313.535 211.36 329.09 211.36V203.36ZM288.268 196.355C275.853 191.497 265.105 184.681 255.981 175.916L250.439 181.684C260.355 191.212 272.007 198.583 285.352 203.805L288.268 196.355ZM255.981 175.916C246.846 167.139 239.679 156.841 234.472 144.991L227.148 148.209C232.768 160.999 240.534 172.168 250.439 181.684L255.981 175.916ZM234.492 145.038C229.496 133.26 226.97 120.265 226.97 106H218.97C218.97 121.228 221.671 135.3 227.128 148.162L234.492 145.038ZM226.97 106C226.97 91.7351 229.496 78.7399 234.492 66.9622L227.128 63.8378C221.671 76.7001 218.97 90.7715 218.97 106H226.97ZM234.472 67.0091C239.679 55.1589 246.846 44.8613 255.981 36.0844L250.439 30.3156C240.534 39.8321 232.768 51.0011 227.148 63.7909L234.472 67.0091ZM255.953 36.1112C265.263 27.3388 276.099 20.616 288.5 15.9431L285.68 8.4569C272.321 13.4906 260.571 20.7678 250.467 30.2888L255.953 36.1112ZM288.548 15.925C300.916 11.0851 314.509 8.64 329.37 8.64V0.639997C313.618 0.639997 299.024 3.23485 285.632 8.47501L288.548 15.925ZM329.37 8.64C345.882 8.64 360.631 11.5414 373.684 17.2635L376.896 9.93652C362.696 3.71192 346.831 0.639997 329.37 0.639997V8.64ZM373.744 17.2893C386.966 22.8281 398.005 31.0232 406.916 41.8957L413.104 36.8243C403.349 24.9235 391.241 15.9452 376.836 9.91065L373.744 17.2893ZM407.297 36.4208L378.177 63.3008L383.603 69.1792L412.723 42.2992L407.297 36.4208ZM383.896 63.6008C376.85 55.5764 368.937 49.515 360.145 45.5185L356.835 52.8015C364.469 56.2717 371.49 61.5969 377.884 68.8792L383.896 63.6008ZM360.213 45.5501C351.426 41.3564 341.872 39.28 331.61 39.28V47.28C340.761 47.28 349.127 49.1236 356.767 52.7699L360.213 45.5501ZM331.61 39.28C322.022 39.28 313.122 40.8468 304.956 44.0337L307.864 51.4863C315.004 48.6999 322.905 47.28 331.61 47.28V39.28ZM304.956 44.0337C296.807 47.2137 289.707 51.8058 283.702 57.8116L289.358 63.4684C294.553 58.2742 300.706 54.2796 307.864 51.4863L304.956 44.0337ZM283.702 57.8116C277.713 63.7997 273.04 70.8726 269.675 78.9879L277.065 82.0521C280.047 74.8607 284.147 68.6803 289.358 63.4684L283.702 57.8116ZM269.644 79.0658C266.453 87.2413 264.89 96.2363 264.89 106H272.89C272.89 97.0971 274.313 89.1053 277.096 81.9742L269.644 79.0658ZM264.89 106C264.89 115.764 266.453 124.759 269.644 132.934L277.096 130.026C274.313 122.895 272.89 114.903 272.89 106H264.89ZM269.675 133.012C273.04 141.127 277.713 148.2 283.702 154.188L289.358 148.532C284.147 143.32 280.047 137.139 277.065 129.948L269.675 133.012ZM283.702 154.188C289.707 160.194 296.807 164.786 304.956 167.966L307.864 160.514C300.706 157.72 294.553 153.726 289.358 148.532L283.702 154.188ZM304.956 167.966C313.122 171.153 322.022 172.72 331.61 172.72V164.72C322.905 164.72 315.004 163.3 307.864 160.514L304.956 167.966ZM331.61 172.72C341.844 172.72 351.373 170.749 360.145 166.761L356.835 159.479C349.18 162.958 340.79 164.72 331.61 164.72V172.72ZM360.213 166.73C368.993 162.539 376.893 156.29 383.927 148.083L377.853 142.877C371.447 150.35 364.413 155.861 356.767 159.51L360.213 166.73ZM378.177 148.419L407.297 175.299L412.723 169.421L383.603 142.541L378.177 148.419ZM406.916 169.824C397.997 180.707 386.944 189.003 373.702 194.729L376.878 202.071C391.263 195.851 403.357 186.787 413.104 174.896L406.916 169.824ZM373.684 194.737C360.636 200.456 345.795 203.36 329.09 203.36V211.36C346.731 211.36 362.691 208.29 376.896 202.063L373.684 194.737ZM461.128 204H457.128V208H461.128V204ZM461.128 44.96H465.128V40.96H461.128V44.96ZM398.408 44.96H394.408V48.96H398.408V44.96ZM398.408 7.99999V3.99999H394.408V7.99999H398.408ZM569.208 7.99999H573.208V3.99999H569.208V7.99999ZM569.208 44.96V48.96H573.208V44.96H569.208ZM506.488 44.96V40.96H502.488V44.96H506.488ZM506.488 204V208H510.488V204H506.488ZM465.128 204V44.96H457.128V204H465.128ZM461.128 40.96H398.408V48.96H461.128V40.96ZM402.408 44.96V7.99999H394.408V44.96H402.408ZM398.408 12H569.208V3.99999H398.408V12ZM565.208 7.99999V44.96H573.208V7.99999H565.208ZM569.208 40.96H506.488V48.96H569.208V40.96ZM502.488 44.96V204H510.488V44.96H502.488ZM506.488 200H461.128V208H506.488V200ZM539.81 204L536.156 202.372L533.648 208H539.81V204ZM627.17 7.99999V3.99999H624.573L623.516 6.37156L627.17 7.99999ZM671.97 7.99999L675.621 6.36721L674.563 3.99999H671.97V7.99999ZM759.61 204V208H765.78L763.261 202.367L759.61 204ZM712.01 204L708.314 205.531L709.337 208H712.01V204ZM640.33 30.96V26.96H634.343L636.634 32.4908L640.33 30.96ZM658.25 30.96L661.943 32.4959L664.245 26.96H658.25V30.96ZM586.29 204V208H588.958L589.983 205.536L586.29 204ZM583.49 162L579.714 160.68L577.854 166H583.49V162ZM595.53 127.56V123.56H592.691L591.754 126.24L595.53 127.56ZM696.33 127.56L700.096 126.213L699.147 123.56H696.33V127.56ZM708.65 162V166H714.329L712.416 160.653L708.65 162ZM543.463 205.628L630.823 9.62841L623.516 6.37156L536.156 202.372L543.463 205.628ZM627.17 12H671.97V3.99999H627.17V12ZM668.318 9.63276L755.958 205.633L763.261 202.367L675.621 6.36721L668.318 9.63276ZM759.61 200H712.01V208H759.61V200ZM715.705 202.469L644.025 29.4292L636.634 32.4908L708.314 205.531L715.705 202.469ZM640.33 34.96H658.25V26.96H640.33V34.96ZM654.556 29.4241L582.596 202.464L589.983 205.536L661.943 32.4959L654.556 29.4241ZM586.29 200H539.81V208H586.29V200ZM587.266 163.32L599.306 128.88L591.754 126.24L579.714 160.68L587.266 163.32ZM595.53 131.56H696.33V123.56H595.53V131.56ZM692.563 128.907L704.883 163.347L712.416 160.653L700.096 126.213L692.563 128.907ZM708.65 158H583.49V166H708.65V158ZM781.065 201.2L779.92 205.033L779.943 205.04L779.966 205.046L781.065 201.2ZM746.345 184.68L742.698 183.036L741.395 185.927L743.912 187.856L746.345 184.68ZM761.745 150.52L764.063 147.26L760.098 144.441L758.098 148.876L761.745 150.52ZM791.425 165.36L790.123 169.142L790.16 169.155L790.197 169.167L791.425 165.36ZM847.985 168.44L849.17 172.26L849.21 172.248L849.25 172.235L847.985 168.44ZM860.305 160.88L857.217 158.337L857.217 158.337L860.305 160.88ZM858.065 137.64L855.619 140.805L855.665 140.841L855.712 140.875L858.065 137.64ZM841.825 130.08L840.656 133.905L840.705 133.92L840.754 133.934L841.825 130.08ZM819.425 124.48L818.519 128.376L818.571 128.388L818.623 128.399L819.425 124.48ZM795.065 117.76L793.826 121.563L793.839 121.568L793.852 121.572L795.065 117.76ZM772.945 107.68L770.859 111.093L770.859 111.093L772.945 107.68ZM756.425 91.44L753.012 93.5258L753.032 93.5599L753.054 93.5936L756.425 91.44ZM759.225 35.16L755.886 32.9566L755.881 32.9647L755.876 32.9728L759.225 35.16ZM786.665 13.04L788.294 16.6929L788.307 16.6872L788.32 16.6815L786.665 13.04ZM869.265 9.11999L868.295 13.0006L868.323 13.0077L868.352 13.0145L869.265 9.11999ZM900.905 22L904.61 23.5063L905.87 20.4079L903.043 18.6197L900.905 22ZM886.905 56.44L884.92 59.913L888.889 62.1808L890.61 57.9463L886.905 56.44ZM859.465 44.96L858.366 48.8061L858.402 48.8165L858.439 48.8262L859.465 44.96ZM811.025 44.12L809.648 40.3645L809.648 40.3645L811.025 44.12ZM798.985 52.24L802.162 54.6698L802.195 54.6263L802.227 54.582L798.985 52.24ZM801.505 75.76L799.059 78.9251L799.105 78.9607L799.152 78.9949L801.505 75.76ZM817.745 83.04L816.674 86.8941L816.674 86.8941L817.745 83.04ZM839.865 88.64L838.959 92.536L838.968 92.5383L838.978 92.5405L839.865 88.64ZM864.225 95.08L863.067 98.9088L863.079 98.9125L863.091 98.9161L864.225 95.08ZM886.625 104.88L888.711 101.467L888.711 101.467L886.625 104.88ZM902.865 121.12L899.452 123.206L899.472 123.24L899.494 123.274L902.865 121.12ZM900.065 176.84L903.382 179.074L903.382 179.074L900.065 176.84ZM872.345 198.96L870.689 195.319L870.679 195.323L870.668 195.328L872.345 198.96ZM826.145 203.36C810.818 203.36 796.162 201.354 782.164 197.354L779.966 205.046C794.714 209.26 810.111 211.36 826.145 211.36V203.36ZM782.21 197.367C768.146 193.167 757.054 187.844 748.777 181.504L743.912 187.856C753.182 194.956 765.237 200.647 779.92 205.033L782.21 197.367ZM749.991 186.324L765.391 152.164L758.098 148.876L742.698 183.036L749.991 186.324ZM759.427 153.78C768.186 160.009 778.433 165.118 790.123 169.142L792.727 161.578C781.643 157.762 772.104 152.978 764.063 147.26L759.427 153.78ZM790.197 169.167C802.153 173.024 814.234 174.96 826.425 174.96V166.96C815.096 166.96 803.843 165.163 792.653 161.553L790.197 169.167ZM826.425 174.96C835.582 174.96 843.217 174.108 849.17 172.26L846.799 164.62C841.926 166.132 835.187 166.96 826.425 166.96V174.96ZM849.25 172.235C855.268 170.229 860.136 167.377 863.392 163.423L857.217 158.337C855.247 160.73 851.901 162.918 846.72 164.645L849.25 172.235ZM863.392 163.423C866.595 159.534 868.225 154.995 868.225 149.96H860.225C860.225 153.138 859.241 155.879 857.217 158.337L863.392 163.423ZM868.225 149.96C868.225 143.498 865.594 138.17 860.417 134.405L855.712 140.875C858.748 143.083 860.225 145.969 860.225 149.96H868.225ZM860.51 134.475C855.88 130.897 849.952 128.186 842.895 126.226L840.754 133.934C847.137 135.707 852.036 138.037 855.619 140.805L860.51 134.475ZM842.994 126.255C836.132 124.158 828.541 122.262 820.226 120.561L818.623 128.399C826.735 130.058 834.077 131.895 840.656 133.905L842.994 126.255ZM820.331 120.584C812.412 118.742 804.394 116.531 796.278 113.948L793.852 121.572C802.162 124.216 810.384 126.484 818.519 128.376L820.331 120.584ZM796.303 113.957C788.552 111.433 781.466 108.2 775.03 104.267L770.859 111.093C777.864 115.374 785.524 118.86 793.826 121.563L796.303 113.957ZM775.031 104.267C768.836 100.481 763.766 95.5011 759.795 89.2864L753.054 93.5936C757.67 100.819 763.614 106.666 770.859 111.093L775.031 104.267ZM759.838 89.3542C756.221 83.436 754.265 75.6318 754.265 65.68H746.265C746.265 76.6349 748.415 86.004 753.012 93.5258L759.838 89.3542ZM754.265 65.68C754.265 55.236 757.036 45.8263 762.574 37.3471L755.876 32.9728C749.466 42.7871 746.265 53.724 746.265 65.68H754.265ZM762.563 37.3634C768.23 28.7774 776.724 21.8549 788.294 16.6929L785.035 9.38706C772.338 15.0517 762.54 22.8759 755.886 32.9566L762.563 37.3634ZM788.32 16.6815C799.967 11.3875 814.759 8.64 832.865 8.64V0.639997C814.01 0.639997 798.003 3.49254 785.009 9.39852L788.32 16.6815ZM832.865 8.64C844.858 8.64 856.665 10.0933 868.295 13.0006L870.235 5.23942C857.971 2.1734 845.512 0.639997 832.865 0.639997V8.64ZM868.352 13.0145C879.922 15.7261 890.043 19.8618 898.766 25.3803L903.043 18.6197C893.473 12.5649 882.501 8.1139 870.177 5.22552L868.352 13.0145ZM897.199 20.4937L883.199 54.9337L890.61 57.9463L904.61 23.5063L897.199 20.4937ZM888.889 52.967C879.475 47.5874 870.008 43.6188 860.49 41.0937L858.439 48.8262C867.215 51.1546 876.041 54.8392 884.92 59.913L888.889 52.967ZM860.564 41.1139C851.089 38.407 841.76 37.04 832.585 37.04V45.04C840.956 45.04 849.547 46.2863 858.366 48.8061L860.564 41.1139ZM832.585 37.04C823.542 37.04 815.844 38.0924 809.648 40.3645L812.402 47.8755C817.405 46.041 824.081 45.04 832.585 45.04V37.04ZM809.648 40.3645C803.613 42.5773 798.799 45.665 795.742 49.898L802.227 54.582C804.024 52.0949 807.237 49.7693 812.402 47.8755L809.648 40.3645ZM795.807 49.8102C792.806 53.7347 791.345 58.3383 791.345 63.44H799.345C799.345 59.9551 800.31 57.0919 802.162 54.6698L795.807 49.8102ZM791.345 63.44C791.345 69.7612 794.006 75.0207 799.059 78.9251L803.95 72.5948C800.79 70.1527 799.345 67.1988 799.345 63.44H791.345ZM799.152 78.9949C803.76 82.3465 809.653 84.9439 816.674 86.8941L818.815 79.1859C812.396 77.4028 807.462 75.1468 803.857 72.525L799.152 78.9949ZM816.674 86.8941C823.457 88.7783 830.886 90.6588 838.959 92.536L840.771 84.744C832.79 82.8879 825.472 81.035 818.815 79.1859L816.674 86.8941ZM838.978 92.5405C847.101 94.3866 855.13 96.5094 863.067 98.9088L865.382 91.2511C857.266 88.7973 849.055 86.6268 840.751 84.7395L838.978 92.5405ZM863.091 98.9161C870.999 101.252 878.141 104.383 884.539 108.293L888.711 101.467C881.668 97.1632 873.877 93.7609 865.358 91.2439L863.091 98.9161ZM884.539 108.293C890.717 112.069 895.676 117.027 899.452 123.206L906.278 119.034C901.84 111.773 895.972 105.904 888.711 101.467L884.539 108.293ZM899.494 123.274C903.273 129.189 905.305 136.88 905.305 146.6H913.305C913.305 135.787 911.043 126.491 906.235 118.966L899.494 123.274ZM905.305 146.6C905.305 156.816 902.463 166.118 896.747 174.606L903.382 179.074C909.987 169.268 913.305 158.411 913.305 146.6H905.305ZM896.747 174.606C891.085 183.013 882.489 189.955 870.689 195.319L874 202.601C886.841 196.765 896.724 188.961 903.382 179.074L896.747 174.606ZM870.668 195.328C859.226 200.609 844.447 203.36 826.145 203.36V211.36C845.175 211.36 861.197 208.511 874.021 202.592L870.668 195.328ZM974.179 199.8L972.74 203.532L972.749 203.535L972.758 203.539L974.179 199.8ZM940.019 178.52L937.248 181.404L937.262 181.418L937.276 181.431L940.019 178.52ZM917.619 146.32L913.937 147.882L913.947 147.906L913.957 147.929L917.619 146.32ZM917.619 65.68L913.957 64.0709L913.947 64.0943L913.937 64.1178L917.619 65.68ZM974.459 12.2L973.02 8.46798L973.02 8.46798L974.459 12.2ZM1059.58 12.2L1058.12 15.925L1058.13 15.9285L1058.14 15.932L1059.58 12.2ZM1093.46 33.48L1090.69 36.3644L1090.7 36.3778L1090.72 36.3911L1093.46 33.48ZM1116.14 65.68L1112.48 67.2891L1112.48 67.2994L1112.49 67.3098L1116.14 65.68ZM1116.14 146.6L1119.8 148.209L1119.81 148.199L1119.81 148.189L1116.14 146.6ZM1093.46 178.8L1096.2 181.713L1096.2 181.711L1093.46 178.8ZM1059.58 199.8L1058.14 196.068L1058.13 196.071L1058.12 196.075L1059.58 199.8ZM1041.1 164.24L1039.61 160.526L1039.6 160.533L1039.58 160.539L1041.1 164.24ZM1060.7 151.36L1057.87 148.532L1057.87 148.532L1060.7 151.36ZM1073.58 131.48L1069.88 129.948L1069.87 129.987L1069.85 130.026L1073.58 131.48ZM1073.58 80.52L1069.85 81.9742L1069.87 82.0133L1069.88 82.0521L1073.58 80.52ZM1060.7 60.64L1057.82 63.4201L1057.85 63.4445L1057.87 63.4684L1060.7 60.64ZM1041.38 47.76L1039.89 51.4739L1039.89 51.4739L1041.38 47.76ZM992.659 47.76L991.174 44.0461L991.157 44.0526L991.141 44.0593L992.659 47.76ZM973.339 60.64L976.168 63.4684L976.168 63.4684L973.339 60.64ZM960.179 80.52L956.484 78.9879L956.468 79.0267L956.453 79.0658L960.179 80.52ZM960.179 131.48L956.441 132.904L956.462 132.958L956.484 133.012L960.179 131.48ZM973.059 151.36L970.183 154.14L970.207 154.164L970.231 154.188L973.059 151.36ZM992.659 164.24L991.174 167.954L991.174 167.954L992.659 164.24ZM1017.3 203.36C1002.25 203.36 988.36 200.913 975.601 196.061L972.758 203.539C986.505 208.767 1001.37 211.36 1017.3 211.36V203.36ZM975.619 196.068C963.011 191.205 952.073 184.382 942.763 175.609L937.276 181.431C947.379 190.951 959.214 198.315 972.74 203.532L975.619 196.068ZM942.791 175.636C933.656 166.859 926.488 156.561 921.281 144.711L913.957 147.929C919.577 160.719 927.343 171.888 937.248 181.404L942.791 175.636ZM921.302 144.758C916.302 132.974 913.779 120.071 913.779 106H905.779C905.779 121.049 908.483 135.026 913.937 147.882L921.302 144.758ZM913.779 106C913.779 91.9292 916.302 79.026 921.302 67.2422L913.937 64.1178C908.483 76.974 905.779 90.9508 905.779 106H913.779ZM921.281 67.2891C926.481 55.4558 933.73 45.1664 943.043 36.3911L937.556 30.5688C927.455 40.0869 919.584 51.2642 913.957 64.0709L921.281 67.2891ZM943.043 36.3911C952.353 27.6176 963.291 20.7949 975.899 15.932L973.02 8.46798C959.494 13.685 947.659 21.049 937.556 30.5688L943.043 36.3911ZM975.899 15.932C988.465 11.0849 1002.16 8.64 1017.02 8.64V0.639997C1001.27 0.639997 986.587 3.23506 973.02 8.46798L975.899 15.932ZM1017.02 8.64C1032.07 8.64 1045.76 11.0873 1058.12 15.925L1061.04 8.47501C1047.64 3.23272 1032.95 0.639997 1017.02 0.639997V8.64ZM1058.14 15.932C1070.74 20.7925 1081.57 27.608 1090.69 36.3644L1096.23 30.5956C1086.3 21.0586 1074.55 13.6874 1061.02 8.46798L1058.14 15.932ZM1090.72 36.3911C1100.03 45.1664 1107.28 55.4558 1112.48 67.2891L1119.8 64.0709C1114.17 51.2642 1106.3 40.0869 1096.2 30.5688L1090.72 36.3911ZM1112.49 67.3098C1117.65 78.8764 1120.26 91.7529 1120.26 106H1128.26C1128.26 90.7538 1125.46 76.7502 1119.79 64.0502L1112.49 67.3098ZM1120.26 106C1120.26 120.051 1117.65 133.04 1112.47 145.011L1119.81 148.189C1125.46 135.147 1128.26 121.069 1128.26 106H1120.26ZM1112.48 144.991C1107.28 156.824 1100.03 167.114 1090.72 175.889L1096.2 181.711C1106.3 172.193 1114.17 161.016 1119.8 148.209L1112.48 144.991ZM1090.72 175.887C1081.6 184.468 1070.76 191.201 1058.14 196.068L1061.02 203.532C1074.53 198.319 1086.28 191.052 1096.2 181.713L1090.72 175.887ZM1058.12 196.075C1045.75 200.915 1032.16 203.36 1017.3 203.36V211.36C1033.05 211.36 1047.65 208.765 1061.04 203.525L1058.12 196.075ZM1017.02 172.72C1026.25 172.72 1034.8 171.146 1042.62 167.941L1039.58 160.539C1032.84 163.307 1025.33 164.72 1017.02 164.72V172.72ZM1042.58 167.954C1050.55 164.769 1057.54 160.177 1063.53 154.188L1057.87 148.532C1052.66 153.742 1046.59 157.737 1039.61 160.526L1042.58 167.954ZM1063.53 154.188C1069.53 148.183 1074.13 141.083 1077.31 132.934L1069.85 130.026C1067.06 137.184 1063.07 143.337 1057.87 148.532L1063.53 154.188ZM1077.27 133.012C1080.67 124.815 1082.34 115.793 1082.34 106H1074.34C1074.34 114.874 1072.83 122.838 1069.88 129.948L1077.27 133.012ZM1082.34 106C1082.34 96.2072 1080.67 87.1847 1077.27 78.9879L1069.88 82.0521C1072.83 89.162 1074.34 97.1261 1074.34 106H1082.34ZM1077.31 79.0658C1074.13 70.917 1069.53 63.8173 1063.53 57.8116L1057.87 63.4684C1063.07 68.6627 1067.06 74.8164 1069.85 81.9742L1077.31 79.0658ZM1063.58 57.8599C1057.76 51.8407 1050.84 47.2354 1042.86 44.0461L1039.89 51.4739C1046.85 54.2579 1052.82 58.2393 1057.82 63.4201L1063.58 57.8599ZM1042.86 44.0461C1034.88 40.8539 1026.26 39.28 1017.02 39.28V47.28C1025.33 47.28 1032.94 48.6928 1039.89 51.4739L1042.86 44.0461ZM1017.02 39.28C1007.78 39.28 999.154 40.8539 991.174 44.0461L994.145 51.4739C1001.1 48.6928 1008.71 47.28 1017.02 47.28V39.28ZM991.141 44.0593C983.368 47.2484 976.483 51.8394 970.511 57.8116L976.168 63.4684C981.396 58.2406 987.391 54.2449 994.178 51.4607L991.141 44.0593ZM970.511 57.8116C964.523 63.7997 959.849 70.8726 956.484 78.9879L963.874 82.0521C966.856 74.8607 970.956 68.6803 976.168 63.4684L970.511 57.8116ZM956.453 79.0658C953.263 87.2413 951.699 96.2363 951.699 106H959.699C959.699 97.0971 961.123 89.1053 963.906 81.9742L956.453 79.0658ZM951.699 106C951.699 115.589 953.267 124.57 956.441 132.904L963.917 130.056C961.119 122.71 959.699 114.704 959.699 106H951.699ZM956.484 133.012C959.838 141.099 964.399 148.157 970.183 154.14L975.935 148.58C970.893 143.363 966.868 137.167 963.874 129.948L956.484 133.012ZM970.231 154.188C976.22 160.177 983.212 164.769 991.174 167.954L994.145 160.526C987.173 157.737 981.099 153.742 975.888 148.532L970.231 154.188ZM991.174 167.954C999.154 171.146 1007.78 172.72 1017.02 172.72V164.72C1008.71 164.72 1001.1 163.307 994.145 160.526L991.174 167.954ZM1140.15 204H1136.15V208H1140.15V204ZM1140.15 7.99999V3.99999H1136.15V7.99999H1140.15ZM1185.51 7.99999H1189.51V3.99999H1185.51V7.99999ZM1185.51 167.04H1181.51V171.04H1185.51V167.04ZM1283.79 167.04H1287.79V163.04H1283.79V167.04ZM1283.79 204V208H1287.79V204H1283.79ZM1144.15 204V7.99999H1136.15V204H1144.15ZM1140.15 12H1185.51V3.99999H1140.15V12ZM1181.51 7.99999V167.04H1189.51V7.99999H1181.51ZM1185.51 171.04H1283.79V163.04H1185.51V171.04ZM1279.79 167.04V204H1287.79V167.04H1279.79ZM1283.79 200H1140.15V208H1283.79V200Z" fill="url(#paint0_linear_47_102)" fill-opacity="0.9" mask="url(#path-1-outside-1_47_102)"/>
</g>
<defs>
<linearGradient id="paint0_linear_47_102" x1="706.669" y1="-75.8605" x2="706.669" y2="214.884" gradientUnits="userSpaceOnUse">
<stop stop-color="#AAAAAA"/>
<stop offset="1" stop-color="white" stop-opacity="0.08"/>
</linearGradient>
</defs>
</svg>
