<svg width="1286" height="210" viewBox="0 0 1286 210" fill="none" xmlns="http://www.w3.org/2000/svg">
<g opacity="0.4">
<mask id="path-1-outside-1_47_102" maskUnits="userSpaceOnUse" x="0" y="0" width="1286" height="210" fill="black">
<rect fill="white" width="1286" height="210"/>
<path d="M111.44 206.36C95.9467 206.36 81.5733 203.84 68.32 198.8C55.2533 193.76 43.8667 186.667 34.16 177.52C24.64 168.373 17.1733 157.64 11.76 145.32C6.53333 133 3.92 119.56 3.92 105C3.92 90.44 6.53333 77 11.76 64.68C17.1733 52.36 24.7333 41.6267 34.44 32.48C44.1467 23.3333 55.5333 16.24 68.6 11.2C81.6667 6.15999 95.8533 3.64 111.16 3.64C126.653 3.64 140.84 6.15999 153.72 11.2C166.787 16.24 178.08 23.3333 187.6 32.48C197.307 41.6267 204.867 52.36 210.28 64.68C215.693 76.8133 218.4 90.2533 218.4 105C218.4 119.56 215.693 133.093 210.28 145.6C204.867 157.92 197.307 168.653 187.6 177.8C178.08 186.76 166.787 193.76 153.72 198.8C140.84 203.84 126.747 206.36 111.44 206.36ZM111.16 167.72C119.933 167.72 127.96 166.227 135.24 163.24C142.707 160.253 149.24 155.96 154.84 150.36C160.44 144.76 164.733 138.133 167.72 130.48C170.893 122.827 172.48 114.333 172.48 105C172.48 95.6667 170.893 87.1733 167.72 79.52C164.733 71.8667 160.44 65.24 154.84 59.64C149.427 54.04 142.987 49.7467 135.52 46.76C128.053 43.7733 119.933 42.28 111.16 42.28C102.387 42.28 94.2667 43.7733 86.8 46.76C79.52 49.7467 73.08 54.04 67.48 59.64C61.88 65.24 57.4933 71.8667 54.32 79.52C51.3333 87.1733 49.84 95.6667 49.84 105C49.84 114.147 51.3333 122.64 54.32 130.48C57.4933 138.133 61.7867 144.76 67.2 150.36C72.8 155.96 79.3333 160.253 86.8 163.24C94.2667 166.227 102.387 167.72 111.16 167.72ZM328.09 206.36C312.97 206.36 298.877 203.933 285.81 199.08C272.93 194.04 261.73 186.947 252.21 177.8C242.69 168.653 235.223 157.92 229.81 145.6C224.583 133.28 221.97 119.747 221.97 105C221.97 90.2533 224.583 76.72 229.81 64.4C235.223 52.08 242.69 41.3467 252.21 32.2C261.917 23.0533 273.21 16.0533 286.09 11.2C298.97 6.15999 313.063 3.64 328.37 3.64C345.357 3.64 360.663 6.62666 374.29 12.6C388.103 18.3867 399.677 26.9733 409.01 38.36L379.89 65.24C373.17 57.5867 365.703 51.8933 357.49 48.16C349.277 44.24 340.317 42.28 330.61 42.28C321.463 42.28 313.063 43.7733 305.41 46.76C297.757 49.7467 291.13 54.04 285.53 59.64C279.93 65.24 275.543 71.8667 272.37 79.52C269.383 87.1733 267.89 95.6667 267.89 105C267.89 114.333 269.383 122.827 272.37 130.48C275.543 138.133 279.93 144.76 285.53 150.36C291.13 155.96 297.757 160.253 305.41 163.24C313.063 166.227 321.463 167.72 330.61 167.72C340.317 167.72 349.277 165.853 357.49 162.12C365.703 158.2 373.17 152.32 379.89 144.48L409.01 171.36C399.677 182.747 388.103 191.427 374.29 197.4C360.663 203.373 345.263 206.36 328.09 206.36ZM460.128 203V43.96H397.408V6.99999H568.208V43.96H505.488V203H460.128ZM538.81 203L626.17 6.99999H670.97L758.61 203H711.01L639.33 29.96H657.25L585.29 203H538.81ZM582.49 161L594.53 126.56H695.33L707.65 161H582.49ZM825.145 206.36C809.465 206.36 794.438 204.307 780.065 200.2C765.691 195.907 754.118 190.4 745.345 183.68L760.745 149.52C769.145 155.493 779.038 160.44 790.425 164.36C801.998 168.093 813.665 169.96 825.425 169.96C834.385 169.96 841.571 169.12 846.985 167.44C852.585 165.573 856.691 163.053 859.305 159.88C861.918 156.707 863.225 153.067 863.225 148.96C863.225 143.733 861.171 139.627 857.065 136.64C852.958 133.467 847.545 130.947 840.825 129.08C834.105 127.027 826.638 125.16 818.425 123.48C810.398 121.613 802.278 119.373 794.065 116.76C786.038 114.147 778.665 110.787 771.945 106.68C765.225 102.573 759.718 97.16 755.425 90.44C751.318 83.72 749.265 75.1333 749.265 64.68C749.265 53.48 752.251 43.3067 758.225 34.16C764.385 24.8267 773.531 17.4533 785.665 12.04C797.985 6.43999 813.385 3.64 831.865 3.64C844.185 3.64 856.318 5.13333 868.265 8.11999C880.211 10.92 890.758 15.2133 899.905 21L885.905 55.44C876.758 50.2133 867.611 46.3867 858.465 43.96C849.318 41.3467 840.358 40.04 831.585 40.04C822.811 40.04 815.625 41.0667 810.025 43.12C804.425 45.1733 800.411 47.88 797.985 51.24C795.558 54.4133 794.345 58.1467 794.345 62.44C794.345 67.48 796.398 71.5867 800.505 74.76C804.611 77.7467 810.025 80.1733 816.745 82.04C823.465 83.9067 830.838 85.7733 838.865 87.64C847.078 89.5067 855.198 91.6533 863.225 94.08C871.438 96.5067 878.905 99.7733 885.625 103.88C892.345 107.987 897.758 113.4 901.865 120.12C906.158 126.84 908.305 135.333 908.305 145.6C908.305 156.613 905.225 166.693 899.065 175.84C892.905 184.987 883.665 192.36 871.345 197.96C859.211 203.56 843.811 206.36 825.145 206.36ZM1016.3 206.36C1000.81 206.36 986.433 203.84 973.179 198.8C960.113 193.76 948.726 186.667 939.019 177.52C929.499 168.373 922.033 157.64 916.619 145.32C911.393 133 908.779 119.56 908.779 105C908.779 90.44 911.393 77 916.619 64.68C922.033 52.36 929.593 41.6267 939.299 32.48C949.006 23.3333 960.393 16.24 973.459 11.2C986.526 6.15999 1000.71 3.64 1016.02 3.64C1031.51 3.64 1045.7 6.15999 1058.58 11.2C1071.65 16.24 1082.94 23.3333 1092.46 32.48C1102.17 41.6267 1109.73 52.36 1115.14 64.68C1120.55 76.8133 1123.26 90.2533 1123.26 105C1123.26 119.56 1120.55 133.093 1115.14 145.6C1109.73 157.92 1102.17 168.653 1092.46 177.8C1082.94 186.76 1071.65 193.76 1058.58 198.8C1045.7 203.84 1031.61 206.36 1016.3 206.36ZM1016.02 167.72C1024.79 167.72 1032.82 166.227 1040.1 163.24C1047.57 160.253 1054.1 155.96 1059.7 150.36C1065.3 144.76 1069.59 138.133 1072.58 130.48C1075.75 122.827 1077.34 114.333 1077.34 105C1077.34 95.6667 1075.75 87.1733 1072.58 79.52C1069.59 71.8667 1065.3 65.24 1059.7 59.64C1054.29 54.04 1047.85 49.7467 1040.38 46.76C1032.91 43.7733 1024.79 42.28 1016.02 42.28C1007.25 42.28 999.126 43.7733 991.659 46.76C984.379 49.7467 977.939 54.04 972.339 59.64C966.739 65.24 962.353 71.8667 959.179 79.52C956.193 87.1733 954.699 95.6667 954.699 105C954.699 114.147 956.193 122.64 959.179 130.48C962.353 138.133 966.646 144.76 972.059 150.36C977.659 155.96 984.193 160.253 991.659 163.24C999.126 166.227 1007.25 167.72 1016.02 167.72ZM1139.15 203V6.99999H1184.51V166.04H1282.79V203H1139.15Z"/>
</mask>
<path d="M68.32 198.8L67.2404 201.599L67.247 201.602L67.2537 201.604L68.32 198.8ZM34.16 177.52L32.0815 179.683L32.092 179.693L32.1026 179.703L34.16 177.52ZM11.76 145.32L8.99826 146.492L9.00574 146.509L9.01344 146.527L11.76 145.32ZM11.76 64.68L9.01344 63.4732L9.00574 63.4907L8.99826 63.5083L11.76 64.68ZM68.6 11.2L67.5204 8.40098L67.5204 8.40098L68.6 11.2ZM153.72 11.2L152.627 13.9937L152.634 13.9964L152.64 13.999L153.72 11.2ZM187.6 32.48L185.522 34.6433L185.532 34.6534L185.543 34.6634L187.6 32.48ZM210.28 64.68L207.533 65.8868L207.537 65.8946L207.54 65.9023L210.28 64.68ZM210.28 145.6L213.027 146.807L213.03 146.799L213.033 146.792L210.28 145.6ZM187.6 177.8L189.656 179.985L189.657 179.983L187.6 177.8ZM153.72 198.8L152.64 196.001L152.634 196.004L152.627 196.006L153.72 198.8ZM135.24 163.24L134.126 160.455L134.114 160.459L134.101 160.464L135.24 163.24ZM154.84 150.36L152.719 148.239L152.719 148.239L154.84 150.36ZM167.72 130.48L164.949 129.331L164.937 129.36L164.925 129.389L167.72 130.48ZM167.72 79.52L164.925 80.6106L164.937 80.64L164.949 80.669L167.72 79.52ZM154.84 59.64L152.683 61.7251L152.701 61.7433L152.719 61.7613L154.84 59.64ZM135.52 46.76L134.406 49.5454L134.406 49.5454L135.52 46.76ZM86.8 46.76L85.6858 43.9746L85.6736 43.9795L85.6613 43.9845L86.8 46.76ZM67.48 59.64L69.6013 61.7613L69.6013 61.7613L67.48 59.64ZM54.32 79.52L51.5488 78.371L51.5367 78.4L51.5253 78.4294L54.32 79.52ZM54.32 130.48L51.5165 131.548L51.5321 131.589L51.5488 131.629L54.32 130.48ZM67.2 150.36L65.043 152.445L65.0607 152.463L65.0787 152.481L67.2 150.36ZM86.8 163.24L85.6858 166.025L85.6858 166.025L86.8 163.24ZM111.44 203.36C96.2772 203.36 82.2688 200.895 69.3864 195.996L67.2537 201.604C80.8778 206.785 95.6161 209.36 111.44 209.36V203.36ZM69.3996 196.001C56.6772 191.094 45.6271 184.203 36.2174 175.337L32.1026 179.703C42.1063 189.13 53.8294 196.426 67.2404 201.599L69.3996 196.001ZM36.2385 175.357C27.0072 166.487 19.7651 156.081 14.5066 144.113L9.01344 146.527C14.5816 159.199 22.2728 170.259 32.0815 179.683L36.2385 175.357ZM14.5217 144.148C9.46567 132.23 6.92 119.193 6.92 105H0.92C0.92 119.927 3.60099 133.77 8.99826 146.492L14.5217 144.148ZM6.92 105C6.92 90.8069 9.46567 77.7695 14.5217 65.8516L8.99826 63.5083C3.60099 76.2305 0.92 90.0731 0.92 105H6.92ZM14.5066 65.8868C19.7595 53.9319 27.0863 43.5315 36.4974 34.6634L32.3826 30.2966C22.3803 39.7218 14.5872 50.7881 9.01344 63.4732L14.5066 65.8868ZM36.4974 34.6634C45.9071 25.7966 56.9572 18.9062 69.6796 13.999L67.5204 8.40098C54.1094 13.5738 42.3863 20.8701 32.3826 30.2966L36.4974 34.6634ZM69.6796 13.999C82.3712 9.10369 96.1881 6.64 111.16 6.64V0.639997C95.5185 0.639997 80.9622 3.21629 67.5204 8.40098L69.6796 13.999ZM111.16 6.64C126.324 6.64 140.135 9.10545 152.627 13.9937L154.813 8.40625C141.545 3.21454 126.983 0.639997 111.16 0.639997V6.64ZM152.64 13.999C165.358 18.9044 176.306 25.7893 185.522 34.6433L189.678 30.3167C179.854 20.8773 168.215 13.5756 154.8 8.40098L152.64 13.999ZM185.543 34.6634C194.954 43.5315 202.281 53.9319 207.533 65.8868L213.027 63.4732C207.453 50.7881 199.66 39.7218 189.657 30.2966L185.543 34.6634ZM207.54 65.9023C212.764 77.6106 215.4 90.628 215.4 105H221.4C221.4 89.8787 218.623 76.016 213.02 63.4577L207.54 65.9023ZM215.4 105C215.4 119.179 212.766 132.303 207.527 144.408L213.033 146.792C218.62 133.884 221.4 119.941 221.4 105H215.4ZM207.533 144.393C202.281 156.348 194.954 166.748 185.543 175.617L189.657 179.983C199.66 170.558 207.453 159.492 213.027 146.807L207.533 144.393ZM185.544 175.615C176.326 184.291 165.371 191.091 152.64 196.001L154.8 201.599C168.202 196.429 179.834 189.229 189.656 179.985L185.544 175.615ZM152.627 196.006C140.13 200.896 126.412 203.36 111.44 203.36V209.36C127.081 209.36 141.55 206.784 154.813 201.594L152.627 196.006ZM111.16 170.72C120.279 170.72 128.698 169.167 136.379 166.016L134.101 160.464C127.222 163.287 119.588 164.72 111.16 164.72V170.72ZM136.354 166.025C144.192 162.89 151.07 158.373 156.961 152.481L152.719 148.239C147.41 153.547 141.221 157.616 134.126 160.455L136.354 166.025ZM156.961 152.481C162.866 146.577 167.383 139.596 170.515 131.571L164.925 129.389C162.084 136.671 158.014 142.943 152.719 148.239L156.961 152.481ZM170.491 131.629C173.834 123.568 175.48 114.678 175.48 105H169.48C169.48 113.989 167.953 122.085 164.949 129.331L170.491 131.629ZM175.48 105C175.48 95.3221 173.834 86.4318 170.491 78.3709L164.949 80.669C167.953 87.9148 169.48 96.0112 169.48 105H175.48ZM170.515 78.4294C167.383 70.4044 162.866 63.423 156.961 57.5187L152.719 61.7613C158.014 67.057 162.084 73.3289 164.925 80.6106L170.515 78.4294ZM156.997 57.5549C151.28 51.6405 144.481 47.1132 136.634 43.9746L134.406 49.5454C141.492 52.3801 147.574 56.4395 152.683 61.7251L156.997 57.5549ZM136.634 43.9746C128.782 40.8338 120.28 39.28 111.16 39.28V45.28C119.587 45.28 127.325 46.7129 134.406 49.5454L136.634 43.9746ZM111.16 39.28C102.04 39.28 93.5379 40.8338 85.6858 43.9746L87.9142 49.5454C94.9955 46.7129 102.733 45.28 111.16 45.28V39.28ZM85.6613 43.9845C78.0113 47.123 71.2378 51.6395 65.3587 57.5187L69.6013 61.7613C74.9222 56.4404 81.0287 52.3703 87.9387 49.5355L85.6613 43.9845ZM65.3587 57.5187C59.4676 63.4098 54.8658 70.3711 51.5488 78.371L57.0912 80.669C60.1209 73.3622 64.2924 67.0702 69.6013 61.7613L65.3587 57.5187ZM51.5253 78.4294C48.3858 86.4743 46.84 95.3439 46.84 105H52.84C52.84 95.9895 54.2809 87.8723 57.1147 80.6106L51.5253 78.4294ZM46.84 105C46.84 114.479 48.3887 123.337 51.5165 131.548L57.1235 129.412C54.278 121.943 52.84 113.815 52.84 105H46.84ZM51.5488 131.629C54.857 139.608 59.3517 146.557 65.043 152.445L69.357 148.275C64.2217 142.963 60.1296 136.659 57.0912 129.331L51.5488 131.629ZM65.0787 152.481C70.9705 158.373 77.8479 162.89 85.6858 166.025L87.9142 160.455C80.8187 157.616 74.6295 153.547 69.3213 148.239L65.0787 152.481ZM85.6858 166.025C93.5379 169.166 102.04 170.72 111.16 170.72V164.72C102.733 164.72 94.9955 163.287 87.9142 160.455L85.6858 166.025ZM285.81 199.08L284.717 201.874L284.741 201.883L284.765 201.892L285.81 199.08ZM252.21 177.8L250.132 179.963L250.132 179.963L252.21 177.8ZM229.81 145.6L227.048 146.772L227.056 146.789L227.063 146.807L229.81 145.6ZM229.81 64.4L227.063 63.1932L227.056 63.2107L227.048 63.2283L229.81 64.4ZM252.21 32.2L250.153 30.0166L250.142 30.0266L250.132 30.0367L252.21 32.2ZM286.09 11.2L287.148 14.0073L287.166 14.0006L287.183 13.9937L286.09 11.2ZM374.29 12.6L373.086 15.3476L373.108 15.3575L373.131 15.367L374.29 12.6ZM409.01 38.36L411.045 40.5644L413.123 38.6458L411.33 36.4582L409.01 38.36ZM379.89 65.24L377.636 67.2194L379.665 69.5305L381.925 67.4444L379.89 65.24ZM357.49 48.16L356.198 50.8674L356.223 50.8795L356.249 50.8911L357.49 48.16ZM285.53 59.64L287.651 61.7613L287.651 61.7613L285.53 59.64ZM272.37 79.52L269.599 78.371L269.587 78.4L269.575 78.4294L272.37 79.52ZM272.37 130.48L269.575 131.571L269.587 131.6L269.599 131.629L272.37 130.48ZM285.53 150.36L283.409 152.481L283.409 152.481L285.53 150.36ZM357.49 162.12L358.731 164.851L358.757 164.84L358.782 164.827L357.49 162.12ZM379.89 144.48L381.925 142.276L379.638 140.164L377.612 142.528L379.89 144.48ZM409.01 171.36L411.33 173.262L413.123 171.074L411.045 169.156L409.01 171.36ZM374.29 197.4L373.099 194.646L373.092 194.649L373.086 194.652L374.29 197.4ZM328.09 203.36C313.296 203.36 299.56 200.987 286.855 196.268L284.765 201.892C298.194 206.88 312.644 209.36 328.09 209.36V203.36ZM286.903 196.286C274.372 191.383 263.511 184.498 254.288 175.637L250.132 179.963C259.949 189.396 271.488 196.697 284.717 201.874L286.903 196.286ZM254.288 175.637C245.057 166.767 237.815 156.361 232.557 144.393L227.063 146.807C232.632 159.479 240.323 170.539 250.132 179.963L254.288 175.637ZM232.572 144.428C227.518 132.515 224.97 119.385 224.97 105H218.97C218.97 120.108 221.649 134.045 227.048 146.772L232.572 144.428ZM224.97 105C224.97 90.6147 227.518 77.4849 232.572 65.5716L227.048 63.2283C221.649 75.9551 218.97 89.892 218.97 105H224.97ZM232.557 65.6068C237.815 53.6392 245.057 43.2326 254.288 34.3633L250.132 30.0367C240.323 39.4607 232.632 50.5208 227.063 63.1932L232.557 65.6068ZM254.267 34.3834C263.676 25.5175 274.627 18.7253 287.148 14.0073L285.032 8.39267C271.793 13.3813 260.157 20.5892 250.153 30.0166L254.267 34.3834ZM287.183 13.9937C299.68 9.10385 313.398 6.64 328.37 6.64V0.639997C312.729 0.639997 298.26 3.21614 284.997 8.40625L287.183 13.9937ZM328.37 6.64C345.001 6.64 359.889 9.56272 373.086 15.3476L375.494 9.85239C361.438 3.69061 345.713 0.639997 328.37 0.639997V6.64ZM373.131 15.367C386.5 20.9678 397.673 29.2607 406.69 40.2618L411.33 36.4582C401.681 24.6859 389.706 15.8055 375.449 9.83298L373.131 15.367ZM406.975 36.1556L377.855 63.0356L381.925 67.4444L411.045 40.5644L406.975 36.1556ZM382.144 63.2606C375.18 55.329 367.379 49.3595 358.731 45.4289L356.249 50.8911C364.028 54.4271 371.16 59.8443 377.636 67.2194L382.144 63.2606ZM358.782 45.4525C350.139 41.3273 340.733 39.28 330.61 39.28V45.28C339.9 45.28 348.415 47.1527 356.198 50.8674L358.782 45.4525ZM330.61 39.28C321.132 39.28 312.358 40.8284 304.319 43.9653L306.501 49.5547C313.769 46.7183 321.794 45.28 330.61 45.28V39.28ZM304.319 43.9653C296.294 47.097 289.313 51.6143 283.409 57.5187L287.651 61.7613C292.947 56.4656 299.219 52.3964 306.501 49.5547L304.319 43.9653ZM283.409 57.5187C277.518 63.4098 272.916 70.3711 269.599 78.371L275.141 80.669C278.171 73.3622 282.342 67.0702 287.651 61.7613L283.409 57.5187ZM269.575 78.4294C266.436 86.4743 264.89 95.3439 264.89 105H270.89C270.89 95.9895 272.331 87.8723 275.165 80.6106L269.575 78.4294ZM264.89 105C264.89 114.656 266.436 123.526 269.575 131.571L275.165 129.389C272.331 122.128 270.89 114.011 270.89 105H264.89ZM269.599 131.629C272.916 139.629 277.518 146.59 283.409 152.481L287.651 148.239C282.342 142.93 278.171 136.638 275.141 129.331L269.599 131.629ZM283.409 152.481C289.313 158.386 296.294 162.903 304.319 166.035L306.501 160.445C299.219 157.604 292.947 153.534 287.651 148.239L283.409 152.481ZM304.319 166.035C312.358 169.172 321.132 170.72 330.61 170.72V164.72C321.794 164.72 313.769 163.282 306.501 160.445L304.319 166.035ZM330.61 170.72C340.712 170.72 350.099 168.775 358.731 164.851L356.249 159.389C348.454 162.932 339.921 164.72 330.61 164.72V170.72ZM358.782 164.827C367.421 160.704 375.212 154.547 382.168 146.432L377.612 142.528C371.128 150.093 363.986 155.696 356.198 159.413L358.782 164.827ZM377.855 146.684L406.975 173.564L411.045 169.156L381.925 142.276L377.855 146.684ZM406.69 169.458C397.667 180.467 386.484 188.859 373.099 194.646L375.481 200.154C389.723 193.995 401.687 185.027 411.33 173.262L406.69 169.458ZM373.086 194.652C359.893 200.436 344.912 203.36 328.09 203.36V209.36C345.614 209.36 361.434 206.311 375.494 200.148L373.086 194.652ZM460.128 203H457.128V206H460.128V203ZM460.128 43.96H463.128V40.96H460.128V43.96ZM397.408 43.96H394.408V46.96H397.408V43.96ZM397.408 6.99999V3.99999H394.408V6.99999H397.408ZM568.208 6.99999H571.208V3.99999H568.208V6.99999ZM568.208 43.96V46.96H571.208V43.96H568.208ZM505.488 43.96V40.96H502.488V43.96H505.488ZM505.488 203V206H508.488V203H505.488ZM463.128 203V43.96H457.128V203H463.128ZM460.128 40.96H397.408V46.96H460.128V40.96ZM400.408 43.96V6.99999H394.408V43.96H400.408ZM397.408 9.99999H568.208V3.99999H397.408V9.99999ZM565.208 6.99999V43.96H571.208V6.99999H565.208ZM568.208 40.96H505.488V46.96H568.208V40.96ZM502.488 43.96V203H508.488V43.96H502.488ZM505.488 200H460.128V206H505.488V200ZM538.81 203L536.07 201.779L534.188 206H538.81V203ZM626.17 6.99999V3.99999H624.222L623.43 5.77867L626.17 6.99999ZM670.97 6.99999L673.708 5.7754L672.915 3.99999H670.97V6.99999ZM758.61 203V206H763.237L761.348 201.775L758.61 203ZM711.01 203L708.238 204.148L709.005 206H711.01V203ZM639.33 29.96V26.96H634.84L636.558 31.1081L639.33 29.96ZM657.25 29.96L660.02 31.1119L661.746 26.96H657.25V29.96ZM585.29 203V206H587.291L588.06 204.152L585.29 203ZM582.49 161L579.658 160.01L578.263 164H582.49V161ZM594.53 126.56V123.56H592.4L591.698 125.57L594.53 126.56ZM695.33 126.56L698.154 125.55L697.443 123.56H695.33V126.56ZM707.65 161V164H711.909L710.474 159.99L707.65 161ZM541.55 204.221L628.91 8.22131L623.43 5.77867L536.07 201.779L541.55 204.221ZM626.17 9.99999H670.97V3.99999H626.17V9.99999ZM668.231 8.22457L755.871 204.225L761.348 201.775L673.708 5.7754L668.231 8.22457ZM758.61 200H711.01V206H758.61V200ZM713.781 201.852L642.101 28.8119L636.558 31.1081L708.238 204.148L713.781 201.852ZM639.33 32.96H657.25V26.96H639.33V32.96ZM654.48 28.8081L582.52 201.848L588.06 204.152L660.02 31.1119L654.48 28.8081ZM585.29 200H538.81V206H585.29V200ZM585.322 161.99L597.362 127.55L591.698 125.57L579.658 160.01L585.322 161.99ZM594.53 129.56H695.33V123.56H594.53V129.56ZM692.505 127.57L704.825 162.01L710.474 159.99L698.154 125.55L692.505 127.57ZM707.65 158H582.49V164H707.65V158ZM780.065 200.2L779.206 203.075L779.223 203.08L779.241 203.085L780.065 200.2ZM745.345 183.68L742.61 182.447L741.632 184.615L743.52 186.062L745.345 183.68ZM760.745 149.52L762.483 147.075L759.509 144.96L758.01 148.287L760.745 149.52ZM790.425 164.36L789.448 167.197L789.476 167.206L789.504 167.215L790.425 164.36ZM846.985 167.44L847.874 170.305L847.904 170.296L847.933 170.286L846.985 167.44ZM859.305 159.88L856.989 157.973L856.989 157.973L859.305 159.88ZM857.065 136.64L855.23 139.014L855.265 139.041L855.3 139.066L857.065 136.64ZM840.825 129.08L839.948 131.949L839.985 131.96L840.022 131.971L840.825 129.08ZM818.425 123.48L817.745 126.402L817.784 126.411L817.824 126.419L818.425 123.48ZM794.065 116.76L793.136 119.613L793.146 119.616L793.155 119.619L794.065 116.76ZM771.945 106.68L770.38 109.24L770.38 109.24L771.945 106.68ZM755.425 90.44L752.865 92.0043L752.88 92.0299L752.897 92.0552L755.425 90.44ZM758.225 34.16L755.721 32.5075L755.717 32.5135L755.713 32.5196L758.225 34.16ZM785.665 12.04L786.887 14.7797L786.897 14.7754L786.906 14.7711L785.665 12.04ZM868.265 8.11999L867.537 11.0304L867.559 11.0358L867.58 11.0408L868.265 8.11999ZM899.905 21L902.684 22.1297L903.629 19.8059L901.509 18.4648L899.905 21ZM885.905 55.44L884.416 58.0447L887.393 59.7456L888.684 56.5697L885.905 55.44ZM858.465 43.96L857.641 46.8446L857.668 46.8524L857.695 46.8597L858.465 43.96ZM810.025 43.12L808.992 40.3034L808.992 40.3034L810.025 43.12ZM797.985 51.24L800.368 53.0623L800.393 53.0297L800.417 52.9965L797.985 51.24ZM800.505 74.76L798.67 77.1338L798.705 77.1605L798.74 77.1862L800.505 74.76ZM816.745 82.04L815.942 84.9306L815.942 84.9306L816.745 82.04ZM838.865 87.64L838.185 90.562L838.192 90.5637L838.2 90.5654L838.865 87.64ZM863.225 94.08L862.357 96.9516L862.366 96.9544L862.375 96.957L863.225 94.08ZM885.625 103.88L887.189 101.32L887.189 101.32L885.625 103.88ZM901.865 120.12L899.305 121.684L899.32 121.71L899.337 121.735L901.865 120.12ZM899.065 175.84L901.553 177.516L901.553 177.516L899.065 175.84ZM871.345 197.96L870.103 195.229L870.095 195.232L870.088 195.236L871.345 197.96ZM825.145 203.36C809.73 203.36 794.981 201.342 780.889 197.315L779.241 203.085C793.895 207.271 809.2 209.36 825.145 209.36V203.36ZM780.923 197.325C766.782 193.102 755.57 187.733 747.169 181.298L743.52 186.062C752.666 193.067 764.6 198.712 779.206 203.075L780.923 197.325ZM748.08 184.913L763.48 150.753L758.01 148.287L742.61 182.447L748.08 184.913ZM759.006 151.965C767.676 158.13 777.835 163.198 789.448 167.197L791.401 161.523C780.242 157.682 770.614 152.857 762.483 147.075L759.006 151.965ZM789.504 167.215C801.364 171.041 813.341 172.96 825.425 172.96V166.96C813.988 166.96 802.632 165.146 791.346 161.505L789.504 167.215ZM825.425 172.96C834.533 172.96 842.056 172.111 847.874 170.305L846.096 164.575C841.087 166.129 834.237 166.96 825.425 166.96V172.96ZM847.933 170.286C853.847 168.315 858.525 165.546 861.62 161.787L856.989 157.973C854.858 160.561 851.322 162.832 846.036 164.594L847.933 170.286ZM861.62 161.787C864.676 158.077 866.225 153.763 866.225 148.96H860.225C860.225 152.37 859.16 155.336 856.989 157.973L861.62 161.787ZM866.225 148.96C866.225 142.807 863.739 137.784 858.829 134.214L855.3 139.066C858.604 141.469 860.225 144.66 860.225 148.96H866.225ZM858.899 134.266C854.399 130.789 848.601 128.126 841.628 126.189L840.022 131.971C846.489 133.767 851.517 136.144 855.23 139.014L858.899 134.266ZM841.701 126.211C834.875 124.125 827.315 122.236 819.026 120.541L817.824 126.419C825.961 128.084 833.334 129.928 839.948 131.949L841.701 126.211ZM819.104 120.558C811.159 118.71 803.115 116.492 794.974 113.901L793.155 119.619C801.441 122.255 809.638 124.517 817.745 126.402L819.104 120.558ZM794.993 113.907C787.173 111.361 780.016 108.096 773.509 104.12L770.38 109.24C777.314 113.477 784.903 116.932 793.136 119.613L794.993 113.907ZM773.509 104.12C767.183 100.254 762.004 95.1658 757.953 88.8248L752.897 92.0552C757.432 99.1542 763.266 104.892 770.38 109.24L773.509 104.12ZM757.985 88.8756C754.245 82.757 752.265 74.7572 752.265 64.68H746.265C746.265 75.5095 748.391 84.683 752.865 92.0043L757.985 88.8756ZM752.265 64.68C752.265 54.047 755.09 44.4464 760.737 35.8004L755.713 32.5196C749.413 42.167 746.265 52.913 746.265 64.68H752.265ZM760.729 35.8125C766.519 27.0397 775.176 20.0045 786.887 14.7797L784.442 9.30029C771.887 14.9021 762.251 22.6136 755.721 32.5075L760.729 35.8125ZM786.906 14.7711C798.721 9.40059 813.665 6.64 831.865 6.64V0.639997C813.104 0.639997 797.248 3.4794 784.423 9.30889L786.906 14.7711ZM831.865 6.64C843.94 6.64 855.829 8.10327 867.537 11.0304L868.992 5.20956C856.808 2.16338 844.43 0.639997 831.865 0.639997V6.64ZM867.58 11.0408C879.244 13.7746 889.472 17.9496 898.301 23.5352L901.509 18.4648C892.044 12.477 881.179 8.06542 868.949 5.19914L867.58 11.0408ZM897.126 19.8703L883.126 54.3103L888.684 56.5697L902.684 22.1297L897.126 19.8703ZM887.393 52.8353C878.046 47.4939 868.659 43.5607 859.234 41.0603L857.695 46.8597C866.564 49.2126 875.47 52.9328 884.416 58.0447L887.393 52.8353ZM859.289 41.0754C849.897 38.3919 840.659 37.04 831.585 37.04V43.04C840.057 43.04 848.739 44.3014 857.641 46.8446L859.289 41.0754ZM831.585 37.04C822.609 37.04 815.039 38.0859 808.992 40.3034L811.057 45.9366C816.21 44.0474 823.013 43.04 831.585 43.04V37.04ZM808.992 40.3034C803.066 42.4763 798.452 45.4688 795.553 49.4835L800.417 52.9965C802.371 50.2912 805.784 47.8703 811.057 45.9366L808.992 40.3034ZM795.602 49.4176C792.744 53.1544 791.345 57.5404 791.345 62.44H797.345C797.345 58.753 798.372 55.6723 800.368 53.0623L795.602 49.4176ZM791.345 62.44C791.345 68.4409 793.854 73.4122 798.67 77.1338L802.339 72.3861C798.942 69.7612 797.345 66.5191 797.345 62.44H791.345ZM798.74 77.1862C803.223 80.4466 808.996 83.0012 815.942 84.9306L817.548 79.1494C811.053 77.3454 806 75.0467 802.269 72.3338L798.74 77.1862ZM815.942 84.9306C822.709 86.8104 830.124 88.6874 838.185 90.562L839.544 84.718C831.552 82.8593 824.22 81.0029 817.548 79.1494L815.942 84.9306ZM838.2 90.5654C846.345 92.4166 854.397 94.5453 862.357 96.9516L864.093 91.2084C855.999 88.7613 847.811 86.5967 839.53 84.7146L838.2 90.5654ZM862.375 96.957C870.359 99.316 877.582 102.481 884.06 106.44L887.189 101.32C880.227 97.0657 872.517 93.6973 864.075 91.2029L862.375 96.957ZM884.06 106.44C890.374 110.298 895.446 115.37 899.305 121.684L904.425 118.556C900.07 111.43 894.315 105.675 887.189 101.32L884.06 106.44ZM899.337 121.735C903.245 127.852 905.305 135.743 905.305 145.6H911.305C911.305 134.923 909.071 125.828 904.393 118.505L899.337 121.735ZM905.305 145.6C905.305 156.015 902.403 165.512 896.576 174.164L901.553 177.516C908.046 167.875 911.305 157.211 911.305 145.6H905.305ZM896.576 174.164C890.79 182.756 882.033 189.806 870.103 195.229L872.586 200.691C885.297 194.914 895.019 187.217 901.553 177.516L896.576 174.164ZM870.088 195.236C858.472 200.597 843.538 203.36 825.145 203.36V209.36C844.084 209.36 859.95 206.523 872.602 200.684L870.088 195.236ZM973.179 198.8L972.1 201.599L972.106 201.602L972.113 201.604L973.179 198.8ZM939.019 177.52L936.941 179.683L936.951 179.693L936.962 179.703L939.019 177.52ZM916.619 145.32L913.858 146.492L913.865 146.509L913.873 146.527L916.619 145.32ZM916.619 64.68L913.873 63.4732L913.865 63.4907L913.858 63.5083L916.619 64.68ZM973.459 11.2L972.38 8.40098L972.38 8.40098L973.459 11.2ZM1058.58 11.2L1057.49 13.9937L1057.49 13.9964L1057.5 13.999L1058.58 11.2ZM1092.46 32.48L1090.38 34.6433L1090.39 34.6534L1090.4 34.6634L1092.46 32.48ZM1115.14 64.68L1112.39 65.8868L1112.4 65.8946L1112.4 65.9023L1115.14 64.68ZM1115.14 145.6L1117.89 146.807L1117.89 146.799L1117.89 146.792L1115.14 145.6ZM1092.46 177.8L1094.52 179.985L1094.52 179.983L1092.46 177.8ZM1058.58 198.8L1057.5 196.001L1057.49 196.004L1057.49 196.006L1058.58 198.8ZM1040.1 163.24L1038.99 160.455L1038.97 160.459L1038.96 160.464L1040.1 163.24ZM1059.7 150.36L1057.58 148.239L1057.58 148.239L1059.7 150.36ZM1072.58 130.48L1069.81 129.331L1069.8 129.36L1069.78 129.389L1072.58 130.48ZM1072.58 79.52L1069.78 80.6106L1069.8 80.64L1069.81 80.669L1072.58 79.52ZM1059.7 59.64L1057.54 61.7251L1057.56 61.7433L1057.58 61.7613L1059.7 59.64ZM1040.38 46.76L1039.27 49.5454L1039.27 49.5454L1040.38 46.76ZM991.659 46.76L990.545 43.9746L990.533 43.9795L990.521 43.9845L991.659 46.76ZM972.339 59.64L974.461 61.7613L974.461 61.7613L972.339 59.64ZM959.179 79.52L956.408 78.371L956.396 78.4L956.385 78.4294L959.179 79.52ZM959.179 130.48L956.376 131.548L956.391 131.589L956.408 131.629L959.179 130.48ZM972.059 150.36L969.902 152.445L969.92 152.463L969.938 152.481L972.059 150.36ZM991.659 163.24L990.545 166.025L990.545 166.025L991.659 163.24ZM1016.3 203.36C1001.14 203.36 987.128 200.895 974.246 195.996L972.113 201.604C985.737 206.785 1000.48 209.36 1016.3 209.36V203.36ZM974.259 196.001C961.537 191.094 950.486 184.203 941.077 175.337L936.962 179.703C946.966 189.13 958.689 196.426 972.1 201.599L974.259 196.001ZM941.098 175.357C931.867 166.487 924.624 156.081 919.366 144.113L913.873 146.527C919.441 159.199 927.132 170.259 936.941 179.683L941.098 175.357ZM919.381 144.148C914.325 132.23 911.779 119.193 911.779 105H905.779C905.779 119.927 908.46 133.77 913.858 146.492L919.381 144.148ZM911.779 105C911.779 90.8069 914.325 77.7695 919.381 65.8516L913.858 63.5083C908.46 76.2305 905.779 90.0731 905.779 105H911.779ZM919.366 65.8868C924.619 53.9319 931.946 43.5315 941.357 34.6634L937.242 30.2966C927.24 39.7218 919.447 50.7881 913.873 63.4732L919.366 65.8868ZM941.357 34.6634C950.766 25.7966 961.817 18.9062 974.539 13.999L972.38 8.40098C958.969 13.5738 947.246 20.8701 937.242 30.2966L941.357 34.6634ZM974.539 13.999C987.231 9.10369 1001.05 6.64 1016.02 6.64V0.639997C1000.38 0.639997 985.822 3.21629 972.38 8.40098L974.539 13.999ZM1016.02 6.64C1031.18 6.64 1044.99 9.10545 1057.49 13.9937L1059.67 8.40625C1046.4 3.21454 1031.84 0.639997 1016.02 0.639997V6.64ZM1057.5 13.999C1070.22 18.9044 1081.17 25.7893 1090.38 34.6433L1094.54 30.3167C1084.71 20.8773 1073.07 13.5756 1059.66 8.40098L1057.5 13.999ZM1090.4 34.6634C1099.81 43.5315 1107.14 53.9319 1112.39 65.8868L1117.89 63.4732C1112.31 50.7881 1104.52 39.7218 1094.52 30.2966L1090.4 34.6634ZM1112.4 65.9023C1117.62 77.6106 1120.26 90.628 1120.26 105H1126.26C1126.26 89.8787 1123.48 76.016 1117.88 63.4577L1112.4 65.9023ZM1120.26 105C1120.26 119.179 1117.63 132.303 1112.39 144.408L1117.89 146.792C1123.48 133.884 1126.26 119.941 1126.26 105H1120.26ZM1112.39 144.393C1107.14 156.348 1099.81 166.748 1090.4 175.617L1094.52 179.983C1104.52 170.558 1112.31 159.492 1117.89 146.807L1112.39 144.393ZM1090.4 175.615C1081.19 184.291 1070.23 191.091 1057.5 196.001L1059.66 201.599C1073.06 196.429 1084.69 189.229 1094.52 179.985L1090.4 175.615ZM1057.49 196.006C1044.99 200.896 1031.27 203.36 1016.3 203.36V209.36C1031.94 209.36 1046.41 206.784 1059.67 201.594L1057.49 196.006ZM1016.02 170.72C1025.14 170.72 1033.56 169.167 1041.24 166.016L1038.96 160.464C1032.08 163.287 1024.45 164.72 1016.02 164.72V170.72ZM1041.21 166.025C1049.05 162.89 1055.93 158.373 1061.82 152.481L1057.58 148.239C1052.27 153.547 1046.08 157.616 1038.99 160.455L1041.21 166.025ZM1061.82 152.481C1067.73 146.577 1072.24 139.596 1075.37 131.571L1069.78 129.389C1066.94 136.671 1062.87 142.943 1057.58 148.239L1061.82 152.481ZM1075.35 131.629C1078.69 123.568 1080.34 114.678 1080.34 105H1074.34C1074.34 113.989 1072.81 122.085 1069.81 129.331L1075.35 131.629ZM1080.34 105C1080.34 95.3221 1078.69 86.4318 1075.35 78.3709L1069.81 80.669C1072.81 87.9148 1074.34 96.0112 1074.34 105H1080.34ZM1075.37 78.4294C1072.24 70.4044 1067.73 63.423 1061.82 57.5187L1057.58 61.7613C1062.87 67.057 1066.94 73.3289 1069.78 80.6106L1075.37 78.4294ZM1061.86 57.5549C1056.14 51.6405 1049.34 47.1132 1041.49 43.9746L1039.27 49.5454C1046.35 52.3801 1052.43 56.4395 1057.54 61.7251L1061.86 57.5549ZM1041.49 43.9746C1033.64 40.8338 1025.14 39.28 1016.02 39.28V45.28C1024.45 45.28 1032.18 46.7129 1039.27 49.5454L1041.49 43.9746ZM1016.02 39.28C1006.9 39.28 998.397 40.8338 990.545 43.9746L992.774 49.5454C999.855 46.7129 1007.59 45.28 1016.02 45.28V39.28ZM990.521 43.9845C982.871 47.123 976.097 51.6395 970.218 57.5187L974.461 61.7613C979.782 56.4404 985.888 52.3703 992.798 49.5355L990.521 43.9845ZM970.218 57.5187C964.327 63.4098 959.725 70.3711 956.408 78.371L961.951 80.669C964.98 73.3622 969.152 67.0702 974.461 61.7613L970.218 57.5187ZM956.385 78.4294C953.245 86.4743 951.699 95.3439 951.699 105H957.699C957.699 95.9895 959.14 87.8723 961.974 80.6106L956.385 78.4294ZM951.699 105C951.699 114.479 953.248 123.337 956.376 131.548L961.983 129.412C959.137 121.943 957.699 113.815 957.699 105H951.699ZM956.408 131.629C959.716 139.608 964.211 146.557 969.902 152.445L974.216 148.275C969.081 142.963 964.989 136.659 961.951 129.331L956.408 131.629ZM969.938 152.481C975.83 158.373 982.707 162.89 990.545 166.025L992.774 160.455C985.678 157.616 979.489 153.547 974.181 148.239L969.938 152.481ZM990.545 166.025C998.397 169.166 1006.9 170.72 1016.02 170.72V164.72C1007.59 164.72 999.855 163.287 992.774 160.455L990.545 166.025ZM1139.15 203H1136.15V206H1139.15V203ZM1139.15 6.99999V3.99999H1136.15V6.99999H1139.15ZM1184.51 6.99999H1187.51V3.99999H1184.51V6.99999ZM1184.51 166.04H1181.51V169.04H1184.51V166.04ZM1282.79 166.04H1285.79V163.04H1282.79V166.04ZM1282.79 203V206H1285.79V203H1282.79ZM1142.15 203V6.99999H1136.15V203H1142.15ZM1139.15 9.99999H1184.51V3.99999H1139.15V9.99999ZM1181.51 6.99999V166.04H1187.51V6.99999H1181.51ZM1184.51 169.04H1282.79V163.04H1184.51V169.04ZM1279.79 166.04V203H1285.79V166.04H1279.79ZM1282.79 200H1139.15V206H1282.79V200Z" fill="url(#paint0_linear_47_102)" mask="url(#path-1-outside-1_47_102)"/>
</g>
<defs>
<linearGradient id="paint0_linear_47_102" x1="705.669" y1="-76.8605" x2="705.669" y2="213.884" gradientUnits="userSpaceOnUse">
<stop stop-color="#AAAAAA"/>
<stop offset="1" stop-color="white" stop-opacity="0.08"/>
</linearGradient>
</defs>
</svg>
