<svg width="24" height="24" viewBox="0 0 24 24" fill="none" xmlns="http://www.w3.org/2000/svg">
<path fill-rule="evenodd" clip-rule="evenodd" d="M12 0C18.6274 0 24 5.37258 24 12C24 18.6274 18.6274 24 12 24C5.37258 24 0 18.6274 0 12C0 5.37258 5.37258 0 12 0ZM8.85893 11.5699C9.3444 12.737 10.3492 15.0697 11.8733 18.568C12.0992 19.136 12.3202 19.4336 12.5363 19.4607C12.9015 19.5065 13.0453 19.0492 13.2411 18.4264C13.2678 18.3417 13.2954 18.2539 13.3246 18.1639C13.5238 17.5512 13.7568 16.7271 13.766 16.2986C13.7744 15.9099 13.6142 15.4762 13.2853 14.9972C11.079 11.7287 9.96381 10.0415 9.93977 9.93557C9.92281 9.86084 9.90148 9.75728 9.96385 9.68711C10.0262 9.61695 10.1443 9.62384 10.176 9.63128C10.3691 9.67658 12.0381 11.4718 12.9018 12.4008C13.171 12.6904 13.362 12.8958 13.4056 12.9378C13.5033 13.0319 13.5958 13.1278 13.6846 13.2199C14.2333 13.7891 14.6448 14.216 15.3168 13.1963C15.6397 12.7063 15.9067 12.3141 16.1731 11.923C16.4641 11.4957 16.7543 11.0696 17.1157 10.5183C17.2077 10.3778 17.3034 10.2437 17.3965 10.113C17.751 9.61581 18.0694 9.16913 18.0186 8.61729C17.9891 8.29663 17.6876 7.96542 16.7884 7.7972C14.6631 7.39966 10.0585 6.61825 8.16097 6.43766C7.99473 6.42184 7.78197 6.44174 7.68857 6.45773C7.59518 6.47371 7.46211 6.50711 7.3636 6.62851C7.24694 6.77229 7.22234 6.99424 7.22408 7.09351C7.23203 7.54486 7.47282 8.23732 8.85893 11.5699Z" fill="#9097A6"/>
</svg>
