<svg width="20" height="24" viewBox="0 0 20 24" fill="none" xmlns="http://www.w3.org/2000/svg">
<path d="M19.7497 16.4498C19.7497 7.39547 12.2465 2.44172 5.74162 2.44172C5.53068 2.44172 5.31505 2.44641 5.10412 2.45578C4.40722 1.49212 3.54401 0.660505 2.55505 0C2.95436 0.897478 3.21514 1.85036 3.32849 2.82609C2.71266 1.79872 1.74523 1.02947 0.605523 0.660938C1.17831 1.62745 1.58237 2.68442 1.80037 3.78656C1.01132 4.52916 0.488872 5.51101 0.313807 6.58031C0.138742 7.64962 0.320806 8.74681 0.831852 9.70226C1.3429 10.6577 2.15446 11.4182 3.14107 11.8662C4.12767 12.3141 5.23437 12.4246 6.29005 12.1805C6.19185 14.1375 5.68346 16.0521 4.79785 17.8C3.91225 19.548 2.66919 21.0903 1.14927 22.327C2.233 22.9556 3.5154 23.1479 4.73585 22.865C5.95629 22.582 7.0232 21.8449 7.71974 20.8036C7.69492 21.5854 7.48444 22.35 7.10568 23.0344H7.16662C8.30391 23.0351 9.40634 22.6419 10.2865 21.9217C11.1667 21.2015 11.7703 20.1987 11.9947 19.0838C12.1929 19.8079 12.2218 20.568 12.0791 21.3052C13.0572 20.9905 13.9126 20.3784 14.5261 19.5542C15.1395 18.73 15.4804 17.7349 15.501 16.7077C16.8709 18.4516 17.6139 20.6058 17.6104 22.8234C17.6098 23.2167 17.5857 23.6096 17.5382 24C18.9835 21.7471 19.7511 19.1265 19.7497 16.4498Z" fill="#9097A6"/>
</svg>
